<svg version="1" xmlns="http://www.w3.org/2000/svg" width="682.667" height="682.667" viewBox="0 0 512.000000 512.000000"><path d="M232.5 28.1c-33 4.6-55 11.2-81 24.6-3.8 2-8 4.1-9.2 4.7-1.3.6-2.3 1.4-2.3 1.8 0 .5-.4.8-.9.8-1.7 0-19.6 12.4-27.9 19.4-4.3 3.6-24.5 23.7-28.3 28.1-12.8 15.2-33.2 48.6-31.4 51.6.4.5 2.3-.4 4.3-2.1 17-14.2 30.3-23 47.6-31.5 18.9-9.3 46.6-18 64.3-20 17.9-2.1 39.1-2.6 53.3-1.1 37.7 4 76.5 19.4 107.2 42.7 11.3 8.6 24 20.4 31.8 29.5 18.6 21.8 30.7 42 40.4 67.8 2.3 6 4.6 11.1 5.2 11.3.6.2 2.3-2.5 3.8-5.9 2.6-5.9 10.3-27.9 11.1-31.6.2-.9 1.1-5.3 2-9.7 1.8-8.4 2-9.8 3.5-21 .9-7 .5-39.5-.5-47-2.4-17.2-8.7-40.6-13.1-48.1-1.3-2.3-5.2-6.6-8.6-9.5-3.5-3-6.5-5.6-6.8-6-1-1.1-20.6-14.9-23-16.1-1.4-.7-4.7-2.7-7.5-4.4-16-9.9-44.6-20.5-67.5-25.1-1.4-.3-3.2-.6-4-.8-.8-.2-4-.6-7-1s-6.6-.9-8-1.2c-4.3-.9-41.2-1-47.5-.2z"/><path d="M172.8 128.5c-.2.2-3 .6-6.3.9-3.3.4-6.7.9-7.5 1.1-.8.2-2.8.7-4.5 1-1.6.2-4.1.7-5.5 1-1.4.3-3.5.8-4.6 1.1-6.8 1.4-28.4 9.3-37.9 13.8-11.3 5.4-26 14.1-33 19.5-2.2 1.7-5.3 4.1-7 5.4-8 6-25 22.8-29.5 29.3-2.7 3.8-5.2 10.9-6.4 18.4-.3 1.9-.8 4.4-1 5.6-2.7 13.9-2.8 57.8-.1 67.4.3.8.7 3.3.9 5.6.9 6.7 4.3 20.3 7.9 31.4 13.9 42.3 40.4 80.2 74.9 107.1 12.6 9.9 14 10.8 28.1 18.9 24.3 14 54.9 24.6 79.7 27.5 2.5.3 5.6.8 7 1.1 3.5.8 38.8 1.3 42.8.7 1.8-.3 3.1-1 2.9-1.7-.2-.6-4.4-2.6-9.3-4.4-70.5-25.8-124.6-90.3-138-164.5-3.3-18.2-4-49.5-1.5-67.2 5.7-41.3 22.9-79.2 50.8-112.2 2.9-3.4 4.9-6.4 4.5-6.7-.8-.5-6.9-.5-7.4-.1z"/><path d="M443.3 132.7c.3 2.1.8 4.7 1 5.8.5 2.1 1.4 9.7 2.5 20.5 1.8 16.8.1 40.6-4.2 62.8-5 25.1-21.4 61.3-37.3 82.1-12.9 16.9-24.3 28.6-42.2 43.1-8 6.5-21.5 15-33.1 20.9-24.2 12.3-41.8 17.8-73 22.6-6.2 1-39.3 1.3-46.5.4-11.3-1.4-14.8-1.9-19-2.9-5-1.2-8.5-1.3-8.5-.2 0 3.5 26.1 32.8 37.7 42.4 24.4 20.3 53.1 34.6 84.8 42.3 13.6 3.3 19.2 3 32.5-2 80.8-30.3 136-101 146.7-188 1-7.6 1-37.8.1-47-3.3-33.8-16-70.1-34.3-98.2-6-9.2-8.1-10.5-7.2-4.6z"/></svg>