<?xml version="1.0" encoding="UTF-8"?>
<svg width="170px" height="67px" viewBox="0 0 170 67" version="1.1" xmlns="http://www.w3.org/2000/svg" xmlns:xlink="http://www.w3.org/1999/xlink">
    <!-- Generator: Sketch 50.2 (55047) - http://www.bohemiancoding.com/sketch -->
    <title>aaosFooterLogo</title>
    <desc>Created with Sketch.</desc>
    <defs></defs>
    <g id="aaosFooterLogo" stroke="none" stroke-width="1" fill="none" fill-rule="evenodd">
        <path d="M105.708131,3.84005554 L105.684599,10.305607 L104.365751,10.305607 L103.906354,7.53649828 C103.746742,6.50700873 103.18196,5.75720709 102.208939,5.28610156 C101.240011,4.80805343 100.01734,4.57398836 98.5439957,4.57398836 C97.0992999,4.57398836 95.8919763,5.10658556 94.93021,6.17078815 C93.9684437,7.23598254 93.4885837,8.48862735 93.4885837,9.92773076 C93.4885837,10.998876 93.8088314,11.8994314 94.4472806,12.6234462 C95.0918686,13.35242 95.7804523,13.905845 96.521217,14.284713 C97.2558428,14.6665565 98.5879914,15.2656043 100.512547,16.0858239 C102.053419,16.7592568 103.330318,17.4197964 104.345288,18.0614917 C105.357189,18.7021952 106.220732,19.5134885 106.934895,20.5062814 C107.647011,21.4911399 108,22.6545226 108,23.9914705 C108,25.1905581 107.744211,26.3380719 107.242865,27.4379794 C106.726171,28.536895 106.008939,29.5058847 105.079914,30.3360222 C104.147819,31.1691351 103.032579,31.8207485 101.739311,32.2908622 C100.447065,32.7629595 99.0381799,33 97.5095854,33 C95.5451265,33 93.8262251,32.8591642 92.3477652,32.5794763 C90.8723748,32.2978048 89.7540657,31.9873711 89,31.6372653 L89,24.3604205 L90.3771675,24.3604205 L90.7894992,27.1949881 C91.024825,28.746165 91.702154,29.8391299 92.8214863,30.476858 C93.943888,31.1086353 95.6147011,31.4260116 97.8267636,31.4260116 C99.1537964,31.4260116 100.297684,31.1403729 101.260474,30.5601693 C102.22224,29.9799656 102.950727,29.220246 103.436726,28.2750595 C103.925794,27.3288812 104.169305,26.3261703 104.169305,25.2669267 C104.169305,23.7574054 103.542111,22.5206295 102.285676,21.555607 C101.03231,20.5876091 99.1077544,19.5839064 96.507916,18.538548 C95.1246096,17.9742132 93.9684437,17.4128537 93.0353258,16.8594287 C92.1052773,16.3040201 91.3092623,15.5254562 90.6483037,14.5247289 C89.986322,13.522018 89.6517501,12.2971436 89.6517501,10.8481222 C89.6517501,9.22553557 90.0947765,7.8191616 90.9746904,6.62602486 C91.8546042,5.43685533 93.0128164,4.53629992 94.4472806,3.92435864 C95.8827679,3.30845015 97.4011309,3 99.0023694,3 C99.7615509,3 100.579052,3.04562285 101.457943,3.12496694 C102.337857,3.21224544 103.158428,3.32035176 103.915563,3.45920391 C104.673721,3.60400688 105.271244,3.72897382 105.708131,3.84005554" id="Fill-1" fill="#FFFFFF"></path>
        <path d="M38.1663966,19.4177388 L43.3290612,6.76540059 C44.8790621,11.0045606 46.3319376,15.2190457 47.7017058,19.4177388 L38.1663966,19.4177388 Z M12.2980029,19.4177388 L17.4566622,6.76540059 C19.0106683,11.0045606 20.4665477,15.2190457 21.8293069,19.4177388 L12.2980029,19.4177388 Z M56.2707677,30.6053706 C55.8021628,30.5510857 55.4757414,30.3467769 55.2905023,29.9865224 C55.1062645,29.6292288 54.6887254,28.5158941 54.0318775,26.6465183 L48.2974749,10.0955347 C48.0121065,9.25263767 47.7047097,8.3702607 47.3682754,7.44445579 C47.034845,6.51667688 46.7695024,5.77247975 46.5782556,5.21087741 C46.3870087,4.64927507 46.1476998,3.90902593 45.8663365,3 L43.2219228,3 L32.0695261,28.585971 C31.7000492,29.416037 31.3926523,29.9381594 31.2154235,30.2066231 C31.066231,30.4267238 30.8109013,30.6369546 30.3733365,30.6369546 C29.7905842,30.6369546 29.5252417,30.1780001 29.4221085,29.9865224 C29.2348668,29.6292288 28.8173278,28.5158941 28.1634838,26.6465183 L22.4280799,10.0955347 C22.1427115,9.25263767 21.8323108,8.3702607 21.4988804,7.44445579 C21.1654499,6.51667688 20.9001074,5.77247975 20.7098618,5.21087741 C20.5186149,4.64927507 20.2823099,3.90902593 19.9969415,3 L17.3535291,3 L6.20113237,28.585971 C5.82865153,29.416037 5.54328315,29.9519774 5.34602851,30.2066231 C5.14576999,30.4612688 4.88343134,30.6053706 4.55700996,30.6497856 L3,30.8412634 L3,32 L11.6992299,32 L11.6992299,30.8442244 L9.58550128,30.5708257 C9.24906698,30.5155537 8.99373737,30.4583078 8.82251634,30.4010619 C8.65029402,30.3467769 8.52413115,30.253999 8.4370187,30.1296372 C8.35291012,30.0033013 8.31085583,29.8137976 8.31085583,29.5650739 C8.31085583,29.3133891 8.4370187,28.8445647 8.69535218,28.1576135 L11.5540425,21.4085154 L22.4050502,21.4085154 C23.2471372,23.8128446 23.8619309,25.6249745 24.259444,26.84984 C24.6579585,28.0717446 24.8552131,28.8445647 24.8552131,29.1663263 C24.8552131,29.6006058 24.7550838,29.9164454 24.5478163,30.1108842 C24.3405487,30.308284 23.9560524,30.4494248 23.3893208,30.5293717 L21.3376723,30.8225104 L21.3376723,32 L37.5676237,32 L37.5676237,30.8442244 L35.4609041,30.5708257 C35.1174607,30.5155537 34.8621311,30.4583078 34.6909101,30.4010619 C34.5196891,30.3467769 34.3925249,30.253999 34.3054124,30.1296372 C34.2223052,30.0033013 34.1802509,29.8137976 34.1802509,29.5650739 C34.1802509,29.3133891 34.3054124,28.8445647 34.5647472,28.1576135 L37.4194324,21.4085154 L48.2744452,21.4085154 C49.115531,23.8128446 49.7303246,25.6249745 50.128839,26.84984 C50.5273535,28.0717446 50.727612,28.8445647 50.727612,29.1663263 C50.727612,29.6006058 50.6234776,29.9164454 50.4202152,30.1108842 C50.2129476,30.308284 49.8244461,30.4494248 49.2547106,30.5293717 L47.2130751,30.8225104 L47.2130751,32 L58,32 L58,30.8165884 L56.2707677,30.6053706 Z" id="Fill-2" fill="#FFFFFF"></path>
        <path d="M58.160556,10.6459677 C62.6092639,6.68250881 69.153214,5.86241581 74.4531755,8.61031034 C77.8395347,10.3729273 80.3373305,13.3258451 81.486081,16.9307562 C81.4988449,16.9686515 81.5302637,16.99683 81.5744464,16.9997451 C81.6127381,17.0026601 81.6471024,16.9803116 81.6667392,16.946303 C83.1964427,13.7650418 83.41932,10.1688757 82.2862789,6.82048654 C82.2862789,6.82048654 82.2823516,6.82048654 82.2823516,6.82340156 C82.1399851,6.36574303 81.9426356,6.11407942 81.8405245,6.00330857 L81.6343385,5.80022867 C76.6554381,1.36550779 69.2258701,0.746551347 63.5685196,4.28927534 C61.1463253,5.80605871 59.2199591,7.96706205 58.0113166,10.5361685 C57.9887343,10.5769788 58.0014982,10.6265342 58.0358625,10.6498544 C58.0780816,10.6770613 58.1252098,10.6770613 58.160556,10.6459677" id="Fill-3" fill="#FFFFFF"></path>
        <path d="M72.9306386,32.7523531 C67.0149348,30.8887665 62.8740441,25.5813591 62.6202081,19.5497189 C62.45812,15.6967214 63.8486112,12.0042242 66.5307095,9.16079328 C66.5612921,9.13206175 66.5674087,9.09045056 66.5470202,9.05181161 C66.5307095,9.01713562 66.4919715,8.99732077 66.452214,9.000293 C62.7680242,9.28166386 59.3845638,10.9193612 56.9297965,13.6181437 C56.9297965,13.6181437 56.9328548,13.6211159 56.935913,13.6211159 C56.5903291,13.9807554 56.4649402,14.2750059 56.4190663,14.4226266 L56.3364931,14.7069697 C54.8929921,21.3201757 58.1918405,28.128558 64.3501666,31.2662394 C66.986391,32.6116677 69.9447526,33.191252 72.9071919,32.9445572 C72.9571435,32.9405942 72.9928233,32.902946 72.9989398,32.8543996 C73.0060758,32.8058532 72.9765125,32.7652328 72.9306386,32.7523531" id="Fill-4" fill="#FFFFFF"></path>
        <path d="M87.9870739,17.005925 C87.8643179,14.146869 86.8965914,11.3908686 85.190283,9.03629417 C85.1636859,9.00194231 85.1104916,8.99016453 85.067527,9.00881268 C85.0245624,9.02451639 84.9989883,9.07260899 85.008195,9.11284973 C86.3073626,14.9654247 83.6415115,21.0476664 78.3711872,24.248278 C75.0086958,26.2927043 71.0150339,26.9610933 67.1267376,26.1327228 C67.083773,26.1238894 67.0438773,26.1425376 67.0172802,26.173945 C66.993752,26.2082968 66.993752,26.2495191 67.0203491,26.2828894 C69.1204997,29.216538 72.2845356,31.221705 75.9283428,31.9322977 L75.9283428,31.9293533 C76.4173209,32.0402607 76.751831,31.996094 76.9032301,31.9607607 L77.1978445,31.8851866 C83.8379211,29.8162233 88.2714586,23.6966853 87.9870739,17.005925" id="Fill-5" fill="#FFFFFF"></path>
        <path d="M5.9712962,43.2930948 L4.199718,47.660038 L7.47195085,47.660038 C7.00261859,46.2090537 6.50206466,44.7560708 5.9712962,43.2930948 Z M6.84348877,42 C6.9411824,42.3137804 7.02276161,42.5696013 7.08822641,42.7624663 C7.15268406,42.9573299 7.24332763,43.2111522 7.35814281,43.5319277 C7.47195085,43.8517038 7.57870883,44.1584891 7.67740961,44.4492855 L9.64336791,50.1572899 C9.86393393,50.7988408 10.0109779,51.1835715 10.0724141,51.3064855 C10.1378789,51.4293994 10.2486655,51.4993505 10.4077953,51.5193365 L11,51.5932847 L11,52 L7.30274952,52 L7.30274952,51.5932847 L8.00574076,51.4913561 C8.20112801,51.461377 8.33105046,51.4124113 8.40255816,51.3454582 C8.47507302,51.2775057 8.5103233,51.1705806 8.5103233,51.0186869 C8.5103233,50.9097632 8.44183704,50.6409513 8.30486454,50.2172479 C8.16789203,49.7915459 7.95639037,49.1639852 7.67035955,48.3325672 L3.945916,48.3325672 L2.9599154,50.669931 C2.87229328,50.9097632 2.82999295,51.0706505 2.82999295,51.158589 C2.82999295,51.2445288 2.84308591,51.3094834 2.87229328,51.3554512 C2.90150065,51.3974218 2.94682244,51.4293994 3.00523718,51.4483861 C3.06365193,51.4673728 3.15127405,51.4873588 3.26911069,51.5063456 L3.99526639,51.6002798 L3.99526639,52 L1,52 L1,51.6002798 L1.53681136,51.5353253 C1.64759795,51.5193365 1.73924867,51.47137 1.80773492,51.3834316 C1.87521402,51.2964925 1.9739148,51.1096233 2.10383724,50.8258219 L5.93503878,42 L6.84348877,42 Z" id="Fill-6" fill="#FFFFFF"></path>
        <path d="M13.6673058,45.9232186 L13.6893576,50.0643151 C13.6893576,50.5234452 13.6989453,50.8496954 13.7142857,51.0450489 C13.7296261,51.2433772 13.7698945,51.3722907 13.8283797,51.4337725 C13.8906999,51.493271 13.9837009,51.5269868 14.114094,51.5359116 L14.7372963,51.5934268 L14.7372963,51.9484346 L12,51.9484346 L12,51.5934268 L12.6634708,51.507154 C12.7689358,51.493271 12.8427613,51.465505 12.8801534,51.4238561 C12.9175455,51.385182 12.9424736,51.3118005 12.9549377,51.2086698 C12.970278,51.1065307 12.9856184,50.8883695 13.0038351,50.5551778 C13.0134228,50.33305 13.0354746,49.654767 13.0661553,48.5163621 C13.0728667,48.2377107 13.0824545,47.7637059 13.0977948,47.0903811 C13.1160115,46.4200312 13.1227229,45.9916419 13.1227229,45.8012466 C13.1284756,45.6862162 13.1160115,45.6029183 13.0882071,45.5513529 C13.0604027,45.5027624 12.9923298,45.468055 12.8801534,45.4551636 L12.2790029,45.3530245 L12.2790029,45 L14.5541707,45 L16.5493768,50.3598243 L18.5982742,45 L20.9654842,45 L20.9654842,45.3530245 L20.3394056,45.426406 C20.2032598,45.4392974 20.1102589,45.4809463 20.0604027,45.548378 C20.008629,45.6158096 19.9769895,45.7377816 19.9616491,45.9113189 C19.949185,46.0828729 19.9395973,46.4081315 19.9395973,46.8851112 L19.9395973,50.0643151 C19.9395973,50.5293951 19.949185,50.8496954 19.9616491,51.0162913 C19.9769895,51.1868537 20.0047939,51.304859 20.0517737,51.3752656 C20.0977948,51.4436889 20.1783317,51.4873212 20.2905081,51.5002125 L21,51.5934268 L21,51.9484346 L17.7056568,51.9484346 L17.7056568,51.5964018 L18.3537872,51.5170704 C18.5388303,51.4972376 18.653883,51.4198895 18.6979866,51.2850262 C18.7651007,51.0133163 18.7996165,50.1347216 18.7996165,48.6571752 C18.7996165,47.827171 18.7842761,47.0199745 18.7535954,46.2316192 L16.4995206,52 L15.9482263,52 C15.2694151,49.8659867 14.5100671,47.8400623 13.6673058,45.9232186" id="Fill-7" fill="#FFFFFF"></path>
        <path d="M25.3617344,48.6943057 L25.3617344,51.5354645 L27.7052472,51.4255744 C27.8722794,51.4095904 27.9826219,51.3686314 28.0423486,51.2967033 C28.1010629,51.2257742 28.1790113,51.0749251 28.277206,50.8451548 L28.5950734,50.0739261 L29,50.1628372 L28.6598617,52 L23,52 L23,51.6553447 L23.6701535,51.5774226 C23.8564198,51.5584416 23.9718239,51.4775225 24.0143412,51.3356643 C24.0598954,51.1968032 24.0892526,50.7962038 24.1054496,50.1378621 C24.1246837,49.4795205 24.1317699,48.9200799 24.1317699,48.4645355 C24.1317699,47.958042 24.1125359,47.2737263 24.0730555,46.4085914 C24.0497722,45.965035 24.0173781,45.6983017 23.9809347,45.6043956 C23.9455036,45.5064935 23.8473089,45.4525475 23.6903999,45.4395604 L23,45.3586414 L23,45 L28.2944154,45 L28.2944154,46.9120879 L27.8884765,46.9120879 L27.7477645,46.1298701 C27.7052472,45.8951049 27.6455205,45.7432567 27.5706091,45.6753247 C27.4987346,45.6103896 27.3610596,45.5724276 27.1585963,45.5624376 L25.3617344,45.4915085 L25.3617344,48.2297702 L26.4904674,48.2007992 C26.7394972,48.1938062 26.9004555,48.1518482 26.9682807,48.0679321 C27.0371183,47.987013 27.0897587,47.8291708 27.1221529,47.5964036 L27.2112367,47.043956 L27.5938924,47.043956 L27.5938924,49.8281718 L27.2112367,49.8281718 L27.1292391,49.3106893 C27.0958326,49.0789211 27.0442045,48.9230769 26.975367,48.8461538 C26.9065294,48.7682318 26.7465834,48.7262737 26.4904674,48.7232767 L25.3617344,48.6943057" id="Fill-8" fill="#FFFFFF"></path>
        <path d="M33.2972897,50.0989011 C33.2972897,50.4735265 33.3012217,50.7422577 33.3100688,50.9100899 C33.3198989,51.0769231 33.335627,51.2057942 33.3582362,51.2937063 C33.3769134,51.3806194 33.4152507,51.4455544 33.4693161,51.4875125 C33.5263306,51.5264735 33.5990732,51.5554446 33.6944249,51.5714286 L34.3048729,51.6423576 L34.3048729,52 L31,52 L31,51.6423576 L31.6517343,51.5614386 C31.8522679,51.5384615 31.9662969,51.4575425 31.9948041,51.3226773 C32.0675467,51.002997 32.102935,50.0699301 32.102935,48.5234765 C32.102935,47.7512488 32.0714787,46.8771229 32.0105322,45.9010989 C32.0046342,45.7302697 31.982025,45.6143856 31.9377896,45.5454545 C31.8965033,45.4815185 31.8109816,45.4395604 31.6802415,45.4265734 L31,45.3486513 L31,45 L34.193793,45 C34.6548238,45 35.0735852,45.0579421 35.4520433,45.1778222 C35.8295183,45.2967033 36.1283528,45.4785215 36.3475635,45.7202797 C36.5667743,45.962038 36.6778542,46.2527473 36.6778542,46.5924076 C36.6778542,47.0739261 36.5166409,47.4735265 36.1951973,47.7932068 C35.8708047,48.1128871 35.4549923,48.3296703 34.9398961,48.4425574 L37.0779385,51.2427572 C37.1673922,51.3616384 37.2470159,51.4395604 37.3109114,51.4845155 C37.3738239,51.5264735 37.4534475,51.5554446 37.5487993,51.5714286 L38,51.6423576 L38,52 L36.1696391,52 C35.9189721,51.5904096 35.6486449,51.1808192 35.3596405,50.7612388 C35.0706361,50.3446553 34.7590226,49.9180819 34.4287319,49.4855145 C34.0984412,49.0529471 33.8123859,48.7042957 33.576464,48.4355644 C34.2606376,48.3516484 34.7393624,48.1618382 35.0165707,47.8611389 C35.292796,47.5574426 35.4323831,47.1728272 35.4323831,46.7022977 C35.4323831,46.3466533 35.2829659,46.0559441 34.9811824,45.8301698 C34.682348,45.6043956 34.2950428,45.4915085 33.821233,45.4915085 L33.2972897,45.4915085 L33.2972897,50.0989011" id="Fill-9" fill="#FFFFFF"></path>
        <path d="M40,45 L42.9633721,45 L42.9633721,45.3556444 L42.3991279,45.4365634 C42.2813953,45.4525475 42.1968023,45.4945055 42.1479651,45.5684316 C42.0973837,45.6393606 42.0694767,45.7652348 42.0555233,45.9400599 C42.044186,46.1148851 42.0354651,46.4335664 42.0354651,46.8991009 L42.0354651,50.1018981 C42.0354651,50.4705295 42.0380814,50.7322677 42.044186,50.8871129 C42.0468023,51.040959 42.0607558,51.1708292 42.0834302,51.2777223 C42.1061047,51.3806194 42.1375,51.4485514 42.1741279,51.4775225 C42.2072674,51.5064935 42.2665698,51.5294705 42.3485465,51.5484515 L43,51.6423576 L43,52 L40,52 L40,51.6423576 L40.5694767,51.5654346 C40.7360465,51.5454545 40.8372093,51.4675325 40.8747093,51.3296703 C40.8825581,51.2967033 40.8965116,51.1868132 40.9165698,50.999001 C40.9366279,50.8121878 40.9505814,50.5324675 40.9619186,50.1608392 C40.9697674,49.7862138 40.9758721,49.3046953 40.9758721,48.7162837 C40.9758721,48.0869131 40.9593023,47.3156843 40.9252907,46.4055944 C40.9052326,45.962038 40.8799419,45.6943057 40.8520349,45.6003996 C40.8267442,45.5064935 40.7447674,45.4525475 40.609593,45.4365634 L40,45.3556444 L40,45" id="Fill-10" fill="#FFFFFF"></path>
        <path d="M50.6277847,45.2572682 L50.6277847,47.1167032 L50.25,47.1167032 L50.0615718,46.2383434 C50.0216584,46.0300329 49.926052,45.8687603 49.7793936,45.7574054 C49.5631188,45.5990126 49.167698,45.5212562 48.5968441,45.5212562 C48.0566213,45.5212562 47.6101485,45.6546901 47.2592822,45.9244377 C46.9084158,46.1951454 46.6531559,46.5512891 46.4907178,46.9986286 C46.3282797,47.4459682 46.248453,47.9441854 46.248453,48.4971201 C46.248453,48.9003017 46.2930074,49.2756445 46.3830446,49.616429 C46.4730817,49.9620132 46.6169554,50.2778387 46.8146658,50.5658256 C47.0133045,50.8518925 47.2620668,51.0784421 47.5646658,51.2368349 C47.8654084,51.3981075 48.2227723,51.4787438 48.6358292,51.4787438 C49.0683787,51.4787438 49.419245,51.4259462 49.6828589,51.3232309 C49.9501856,51.2214756 50.1302599,51.0534833 50.2295792,50.8144542 L50.6556312,49.7719419 L51,49.8621777 L50.7150371,51.6217773 C50.4328589,51.7484915 50.1209777,51.8444871 49.7821782,51.9068843 C49.4396658,51.9683214 49.0590965,52 48.6358292,52 C47.9071782,52 47.301052,51.8848053 46.8146658,51.6553758 C46.3282797,51.4230664 45.9542079,51.12452 45.6868812,50.7587767 C45.4204827,50.3901536 45.2404084,50.0138508 45.1438738,49.6298683 C45.0482673,49.2478058 45,48.8695831 45,48.5028799 C45,48.0161821 45.1076733,47.5035656 45.3267327,46.9669501 C45.5457921,46.4341744 45.9300743,45.9705156 46.4758663,45.5836533 C47.0225866,45.1929512 47.7419554,45 48.6358292,45 C48.9783416,45 49.3384901,45.022079 49.7134901,45.0681569 C50.0884901,45.1151947 50.3938738,45.1766319 50.6277847,45.2572682" id="Fill-11" fill="#FFFFFF"></path>
        <path d="M55.4061875,46.1276566 L54.289772,48.9492774 L56.3508468,48.9492774 C56.0642752,48.0665911 55.7497,47.1243978 55.4061875,46.1276566 Z M56.1818909,45 C56.2388318,45.2112496 56.4255234,45.7815245 56.7456994,46.7147917 L58.0618749,50.651176 C58.1878917,51.0330122 58.2849713,51.279966 58.3447126,51.3950128 C58.4053874,51.5100595 58.490332,51.5745254 58.5986131,51.5903939 L59,51.6379994 L59,52 L56.1277504,52 L56.1277504,51.6379994 L56.6971596,51.5646075 C56.8362448,51.5417965 56.9267902,51.5100595 56.9697293,51.4684046 C57.0080011,51.4267498 57.0294706,51.3563332 57.0294706,51.2531879 C57.0294706,51.0875602 56.8521136,50.5063757 56.4983331,49.5136016 L54.0732098,49.5136016 L53.4897986,51.0042505 C53.427257,51.1480589 53.3936525,51.2670728 53.3936525,51.3563332 C53.3936525,51.4436101 53.4095213,51.4971663 53.4393919,51.5199773 C53.4664622,51.5417965 53.5420723,51.5586568 53.659688,51.5745254 L54.244966,51.6449419 L54.244966,52 L52,52 L52,51.6479173 L52.3621816,51.5963446 C52.4461928,51.5804761 52.5162022,51.5417965 52.5703427,51.4783225 C52.6244833,51.4138566 52.6907588,51.2918674 52.7635685,51.1133466 L55.3361782,45 L56.1818909,45 Z" id="Fill-12" fill="#FFFFFF"></path>
        <path d="M62.0847294,45.5999433 C61.9969869,45.5225953 61.8851392,45.4710299 61.747258,45.4492138 L61.1523442,45.346083 L61.1523442,45 L63.4027962,45 L67.4196698,50.308259 C67.4013499,49.9939085 67.3888152,49.5863437 67.38303,49.0905227 C67.3762806,48.5937102 67.3676027,48.0641734 67.3541039,47.4999292 C67.3425334,46.9396515 67.3328914,46.5677858 67.3232494,46.3912736 C67.3049295,46.0580819 67.2895022,45.8399207 67.2731108,45.7348066 C67.2615403,45.6316759 67.2326142,45.5582944 67.1921176,45.5126788 C67.1554779,45.4710299 67.0831626,45.4432639 66.980957,45.4333475 L66.257804,45.346083 L66.257804,45 L69,45 L69,45.346083 L68.3703748,45.4333475 C68.2585272,45.4462388 68.1804267,45.4809463 68.1341449,45.5394532 C68.0897915,45.5930018 68.058937,45.7209236 68.0435097,45.9232186 C68.0280824,46.1255135 68.0184404,46.4428389 68.0184404,46.8751948 L67.9837291,52 L67.2114017,52 C65.8055924,49.9076356 64.2946848,47.907494 62.6825359,45.999575 L62.7201398,50.0643151 C62.7201398,50.5650942 62.7230324,50.8853945 62.7297818,51.0301742 C62.7355671,51.1699958 62.763529,51.280068 62.8136676,51.3534495 C62.8609136,51.426831 62.9602266,51.4754214 63.1096782,51.493271 L63.7711221,51.5934268 L63.7711221,51.9484346 L61,51.9484346 L61,51.5934268 L61.6575871,51.507154 C61.7665421,51.493271 61.8378932,51.465505 61.8783898,51.4238561 C61.9198505,51.385182 61.9449199,51.3118005 61.9603471,51.2086698 C61.9719176,51.1065307 61.9912016,50.8883695 62.0095215,50.5551778 C62.0471255,49.8342541 62.0664095,49.1440714 62.0664095,48.4975209 C62.0664095,47.026916 62.0721948,46.0610568 62.0847294,45.5999433" id="Fill-13" fill="#FFFFFF"></path>
        <path d="M77.9712962,43.2930948 L76.199718,47.660038 L79.4679222,47.660038 C79.0026186,46.2090537 78.5020647,44.7560708 77.9712962,43.2930948 Z M78.8394602,42 C78.9381609,42.3137804 79.0197402,42.5696013 79.0841978,42.7624663 C79.1526841,42.9573299 79.2403062,43.2111522 79.3581428,43.5319277 C79.4719509,43.8517038 79.5756874,44.1584891 79.673381,44.4492855 L81.6393393,50.1572899 C81.8639339,50.7988408 82.0069493,51.1835715 82.0734213,51.3064855 C82.1338503,51.4293994 82.2456441,51.4993505 82.4077953,51.5193365 L83,51.5932847 L83,52 L79.3017424,52 L79.3017424,51.5932847 L80.0027193,51.4913561 C80.1981066,51.461377 80.3310505,51.4124113 80.4025582,51.3454582 C80.4710444,51.2775057 80.5073018,51.1705806 80.5073018,51.0186869 C80.5073018,50.9097632 80.4388156,50.6409513 80.3018431,50.2172479 C80.1648706,49.7915459 79.9533689,49.1639852 79.6673381,48.3325672 L75.9428946,48.3325672 L74.9599154,50.669931 C74.8722933,50.9097632 74.8259643,51.0706505 74.8259643,51.158589 C74.8259643,51.2445288 74.8430859,51.3094834 74.8722933,51.3554512 C74.9015007,51.3974218 74.943801,51.4293994 75.0022157,51.4483861 C75.0606305,51.4673728 75.1482526,51.4873588 75.2691107,51.5063456 L75.9952664,51.6002798 L75.9952664,52 L73,52 L73,51.6002798 L73.5337899,51.5353253 C73.6475979,51.5193365 73.7392487,51.47137 73.8067278,51.3834316 C73.875214,51.2964925 73.9729076,51.1096233 74.0998086,50.8258219 L77.9320173,42 L78.8394602,42 Z" id="Fill-14" fill="#FFFFFF"></path>
        <path d="M87.4022072,45.2025166 L87.4022072,46.9790959 L86.9433885,46.9790959 L86.8013489,46.1076026 C86.7390149,45.6833735 86.312896,45.471259 85.5301451,45.471259 C85.1857756,45.471259 84.9160025,45.5797158 84.710607,45.7975891 C84.5082771,46.0145026 84.4071122,46.2870842 84.4071122,46.6124544 C84.4071122,46.7967349 84.4428776,46.9455031 84.5184958,47.0664371 C84.5920703,47.1835321 84.6983446,47.2919888 84.8332311,47.3918074 C84.9711833,47.4906662 85.0968731,47.5626508 85.213366,47.6087209 C85.3288371,47.6557509 85.5720417,47.7555695 85.9399142,47.9033778 C86.2372777,48.0156737 86.4998978,48.1212511 86.7318618,48.2229893 C86.9597384,48.3266471 87.1651339,48.4427822 87.350092,48.5704348 C87.5340282,48.6980875 87.690374,48.8689309 87.8119763,49.0772062 C87.9376661,49.2874012 88,49.52639 88,49.7960922 C88,50.1963264 87.8753321,50.5744853 87.6239526,50.9248103 C87.3725731,51.276095 87.0333129,51.5486766 86.6000409,51.7348767 C86.1708563,51.9249159 85.7048845,52.0112974 85.2031474,51.9988201 C84.7402412,51.9834634 84.3171878,51.9489108 83.9380748,51.8903633 C83.5548743,51.8318159 83.2411608,51.7598313 83,51.6763292 L83,49.6751581 L83.4588187,49.6751581 L83.6069896,50.4871441 C83.6744329,50.8566649 83.8420192,51.1234877 84.1158798,51.2847331 C84.3866748,51.4459786 84.7770284,51.5266013 85.2746781,51.5266013 C85.7641529,51.5266013 86.1310035,51.4027878 86.382383,51.1522815 C86.6327406,50.9008154 86.7574085,50.5840833 86.7574085,50.1963264 C86.7574085,49.9947696 86.7185776,49.8268056 86.6398937,49.6933942 C86.560188,49.5609426 86.4416513,49.4428879 86.2832618,49.3401899 C86.1238504,49.2384517 85.9296955,49.1415124 85.6977315,49.0512918 C85.4667893,48.9639505 85.2164316,48.8718102 84.9487022,48.7719916 C84.6125077,48.644339 84.3253628,48.5186059 84.0893113,48.3813553 C83.8522379,48.2479439 83.6539955,48.0521459 83.4884529,47.7987602 C83.3269978,47.5472941 83.2442264,47.2180846 83.2442264,46.8207298 C83.2442264,46.2438934 83.4823217,45.7975891 83.9534028,45.4779776 C84.4306152,45.1583661 85.0079706,45 85.6885346,45 C86.181075,45 86.7522992,45.0681454 87.4022072,45.2025166" id="Fill-15" fill="#FFFFFF"></path>
        <path d="M93.40143,45.2025166 L93.40143,46.9790959 L92.9468846,46.9790959 L92.804903,46.1076026 C92.7385087,45.6833735 92.3156282,45.471259 91.5331971,45.471259 C91.1899898,45.471259 90.9152196,45.5797158 90.7139939,45.7975891 C90.5097038,46.0145026 90.4065373,46.2870842 90.4065373,46.6124544 C90.4065373,46.7967349 90.4463739,46.9455031 90.5199183,47.0664371 C90.5955056,47.1835321 90.700715,47.2919888 90.8355465,47.3918074 C90.9713994,47.4906662 91.0970378,47.5626508 91.2165475,47.6087209 C91.3319714,47.6557509 91.5730337,47.7555695 91.938713,47.9033778 C92.2400409,48.0156737 92.5035751,48.1212511 92.7313585,48.2229893 C92.959142,48.3266471 93.1675179,48.4427822 93.3524004,48.5704348 C93.5342186,48.6980875 93.6884576,48.8689309 93.814096,49.0772062 C93.9356486,49.2874012 94,49.52639 94,49.7960922 C94,50.1963264 93.8743616,50.5744853 93.6230848,50.9248103 C93.371808,51.276095 93.0326864,51.5486766 92.6036772,51.7348767 C92.1736466,51.9249159 91.7048008,52.0112974 91.2032686,51.9988201 C90.7436159,51.9834634 90.3207354,51.9489108 89.9376915,51.8903633 C89.5546476,51.8318159 89.2461696,51.7598313 89,51.6763292 L89,49.6751581 L89.4637385,49.6751581 L89.6108274,50.4871441 C89.6751788,50.8566649 89.8426966,51.1234877 90.1164454,51.2847331 C90.3912155,51.4459786 90.7773238,51.5266013 91.278856,51.5266013 C91.7630235,51.5266013 92.1348315,51.4027878 92.3820225,51.1522815 C92.6322778,50.9008154 92.7579162,50.5840833 92.7579162,50.1963264 C92.7579162,49.9947696 92.7191011,49.8268056 92.639428,49.6933942 C92.5597549,49.5609426 92.4412666,49.4428879 92.2819203,49.3401899 C92.124617,49.2384517 91.9295199,49.1415124 91.6976507,49.0512918 C91.4668029,48.9639505 91.2185904,48.8718102 90.9519918,48.7719916 C90.6149132,48.644339 90.3278856,48.5186059 90.0898876,48.3813553 C89.8559755,48.2479439 89.6547497,48.0521459 89.4933606,47.7987602 C89.3278856,47.5472941 89.2461696,47.2180846 89.2461696,46.8207298 C89.2461696,46.2438934 89.4831461,45.7975891 89.9581205,45.4779776 C90.4310521,45.1583661 91.0081716,45 91.6874362,45 C92.1807967,45 92.7507661,45.0681454 93.40143,45.2025166" id="Fill-16" fill="#FFFFFF"></path>
        <path d="M98.9962919,51.5277016 C99.3766389,51.5277016 99.7262614,51.4566648 100.04516,51.3145913 C100.362998,51.1715579 100.632102,50.9690071 100.862005,50.7059792 C101.08873,50.4448711 101.263541,50.1290455 101.389617,49.7565826 C101.513574,49.3869995 101.575023,48.9646188 101.575023,48.5 C101.575023,48.0219419 101.513574,47.5976413 101.389617,47.2251783 C101.263541,46.8488755 101.08873,46.53209 100.858827,46.2757817 C100.626804,46.0146736 100.355582,45.8159627 100.040922,45.6767691 C99.7262614,45.5394953 99.3766389,45.4713385 98.9962919,45.4713385 C98.4888094,45.4713385 98.0406569,45.5932529 97.6539531,45.8351618 C97.2672494,46.0799506 96.9663621,46.4303346 96.7491723,46.8863138 C96.5309231,47.3461327 96.4249768,47.8827482 96.4249768,48.5 C96.4249768,49.1086122 96.5309231,49.6423478 96.7491723,50.1012068 C96.9663621,50.5610258 97.2672494,50.9142896 97.6539531,51.1590784 C98.0406569,51.4038673 98.4888094,51.5277016 98.9962919,51.5277016 Z M98.9962919,45 C99.612899,45 100.171236,45.0806363 100.671302,45.2390291 C101.16713,45.4003017 101.588796,45.6297312 101.934181,45.9273176 C102.277447,46.225864 102.540193,46.5916072 102.725599,47.0264674 C102.906767,47.4632474 103,47.953785 103,48.5028799 C103,49.0519748 102.906767,49.5425123 102.725599,49.9764125 C102.540193,50.4074328 102.277447,50.774136 101.934181,51.0726824 C101.588796,51.3693088 101.16713,51.5968184 100.671302,51.7580911 C100.171236,51.9193637 99.612899,52 98.9962919,52 C98.178387,52 97.4653688,51.8598464 96.8625348,51.584339 C96.2565223,51.3078716 95.7977751,50.9046901 95.4756986,50.3738343 C95.1568004,49.8429786 95,49.2199671 95,48.5028799 C95,47.9720241 95.0932327,47.4882063 95.2775791,47.0475864 C95.462985,46.6069665 95.7267912,46.2383434 96.0721759,45.9340373 C96.4143822,45.633571 96.8392266,45.4003017 97.335055,45.2390291 C97.8351212,45.0806363 98.387101,45 98.9962919,45 Z" id="Fill-17" fill="#FFFFFF"></path>
        <path d="M109.627842,45.2572682 L109.627842,47.1167032 L109.250116,47.1167032 L109.060789,46.2383434 C109.02181,46.0300329 108.926218,45.8687603 108.779582,45.7574054 C108.563341,45.5990126 108.166125,45.5212562 107.597216,45.5212562 C107.057077,45.5212562 106.609745,45.6546901 106.259861,45.9244377 C105.908121,46.1951454 105.6529,46.5512891 105.491415,46.9986286 C105.32993,47.4459682 105.24826,47.9441854 105.24826,48.4971201 C105.24826,48.9003017 105.293735,49.2756445 105.382831,49.616429 C105.472854,49.9620132 105.616705,50.2778387 105.815313,50.5658256 C106.012993,50.8518925 106.262645,51.0784421 106.565197,51.2368349 C106.864965,51.3981075 107.222274,51.4787438 107.635267,51.4787438 C108.068677,51.4787438 108.418561,51.4259462 108.683063,51.3232309 C108.94942,51.2214756 109.130394,51.0534833 109.22877,50.8144542 L109.654756,49.7719419 L110,49.8621777 L109.714153,51.6217773 C109.432947,51.7484915 109.121114,51.8444871 108.782367,51.9068843 C108.439907,51.9683214 108.059397,52 107.635267,52 C106.906729,52 106.301624,51.8848053 105.815313,51.6553758 C105.32993,51.4230664 104.954988,51.12452 104.686775,50.7587767 C104.41949,50.3901536 104.240371,50.0138508 104.143852,49.6298683 C104.04826,49.2478058 104,48.8695831 104,48.5028799 C104,48.0161821 104.107657,47.5035656 104.32761,46.9669501 C104.546636,46.4341744 104.92993,45.9705156 105.476566,45.5836533 C106.022274,45.1929512 106.741531,45 107.635267,45 C107.977726,45 108.337819,45.022079 108.712761,45.0681569 C109.087703,45.1151947 109.393968,45.1766319 109.627842,45.2572682" id="Fill-18" fill="#FFFFFF"></path>
        <path d="M111,45 L113.963372,45 L113.963372,45.3556444 L113.399128,45.4365634 C113.280523,45.4525475 113.196802,45.4945055 113.147965,45.5684316 C113.097384,45.6393606 113.068605,45.7652348 113.055523,45.9400599 C113.044186,46.1148851 113.035465,46.4335664 113.035465,46.8991009 L113.035465,50.1018981 C113.035465,50.4705295 113.038081,50.7322677 113.044186,50.8871129 C113.046802,51.040959 113.059884,51.1708292 113.08343,51.2777223 C113.106105,51.3806194 113.136628,51.4485514 113.173256,51.4775225 C113.206395,51.5064935 113.26657,51.5294705 113.348547,51.5484515 L114,51.6423576 L114,52 L111,52 L111,51.6423576 L111.569477,51.5654346 C111.736047,51.5454545 111.837209,51.4675325 111.873837,51.3296703 C111.882558,51.2967033 111.896512,51.1868132 111.91657,50.999001 C111.935756,50.8121878 111.949709,50.5324675 111.961919,50.1608392 C111.969767,49.7862138 111.975,49.3046953 111.975,48.7162837 C111.975,48.0869131 111.95843,47.3156843 111.925291,46.4055944 C111.905233,45.962038 111.879942,45.6943057 111.851163,45.6003996 C111.825872,45.5064935 111.744767,45.4525475 111.608721,45.4365634 L111,45.3556444 L111,45" id="Fill-19" fill="#FFFFFF"></path>
        <path d="M118.405708,46.1276566 L117.290077,48.9492774 L119.350493,48.9492774 C119.063884,48.0665911 118.7502,47.1243978 118.405708,46.1276566 Z M119.181515,45 C119.239397,45.2112496 119.426114,45.7815245 119.746332,46.7147917 L121.06175,50.651176 C121.188717,51.0330122 121.284876,51.279966 121.345559,51.3950128 C121.405308,51.5100595 121.490264,51.5745254 121.59856,51.5903939 L122,51.6379994 L122,52 L119.128301,52 L119.128301,51.6379994 L119.697786,51.5646075 C119.83689,51.5417965 119.926514,51.5100595 119.969459,51.4684046 C120.008669,51.4267498 120.030141,51.3563332 120.030141,51.2531879 C120.030141,51.0875602 119.851827,50.5063757 119.497999,49.5136016 L117.073486,49.5136016 L116.489997,51.0042505 C116.426514,51.1480589 116.392905,51.2670728 116.392905,51.3563332 C116.392905,51.4436101 116.408776,51.4971663 116.43865,51.5199773 C116.465724,51.5417965 116.541344,51.5586568 116.658976,51.5745254 L117.244332,51.6449419 L117.244332,52 L115,52 L115,51.6479173 L115.361296,51.5963446 C115.446252,51.5804761 115.516271,51.5417965 115.569485,51.4783225 C115.623633,51.4138566 115.690851,51.2918674 115.762737,51.1133466 L118.336623,45 L119.181515,45 Z" id="Fill-20" fill="#FFFFFF"></path>
        <path d="M126.167042,45.5434565 L126.167042,50.0989011 C126.167042,50.5704296 126.177538,50.8931069 126.190133,51.0649351 C126.207977,51.2357642 126.237367,51.3586414 126.288799,51.4295704 C126.339181,51.4995005 126.42735,51.5384615 126.550157,51.5484515 L127.564103,51.6423576 L127.564103,52 L123.478932,52 L123.478932,51.6423576 L124.412056,51.5414585 C124.527515,51.5264735 124.609387,51.4995005 124.659769,51.4645355 C124.707003,51.4295704 124.745839,51.3716284 124.768931,51.2937063 C124.785725,51.2517483 124.802519,51.1348651 124.820363,50.9450549 C124.836107,50.7542458 124.852901,50.4835165 124.870745,50.1238761 C124.883341,49.7692308 124.890688,49.2977023 124.890688,48.7102897 C124.890688,47.3406593 124.861299,46.2857143 124.79937,45.5434565 L123.069576,45.5944056 C122.896386,45.5974026 122.784076,45.6363636 122.736842,45.7102897 C122.68646,45.7822178 122.635028,45.9400599 122.580447,46.1818182 L122.434548,46.8731269 L122,46.8441558 L122.14275,45 L128.877193,45 L129,46.8441558 L128.57175,46.8731269 L128.442645,46.1818182 C128.395412,45.95005 128.348178,45.7942058 128.300945,45.7172827 C128.252662,45.6393606 128.137202,45.5974026 127.954566,45.5944056 L126.167042,45.5434565" id="Fill-21" fill="#FFFFFF"></path>
        <path d="M130,45 L132.95993,45 L132.95993,45.3556444 L132.396341,45.4365634 C132.277875,45.4525475 132.194251,45.4945055 132.14547,45.5684316 C132.097561,45.6393606 132.067073,45.7652348 132.055749,45.9400599 C132.041812,46.1148851 132.036585,46.4335664 132.036585,46.8991009 L132.036585,50.1018981 C132.036585,50.4705295 132.039199,50.7322677 132.041812,50.8871129 C132.047038,51.040959 132.058362,51.1708292 132.084495,51.2777223 C132.106272,51.3806194 132.135017,51.4485514 132.170732,51.4775225 C132.208188,51.5064935 132.267422,51.5294705 132.34669,51.5484515 L133,51.6423576 L133,52 L130,52 L130,51.6423576 L130.571429,51.5654346 C130.735192,51.5454545 130.837108,51.4675325 130.876307,51.3296703 C130.885017,51.2967033 130.898084,51.1868132 130.915505,50.999001 C130.93554,50.8121878 130.949477,50.5324675 130.960801,50.1608392 C130.971254,49.7862138 130.977352,49.3046953 130.977352,48.7162837 C130.977352,48.0869131 130.960801,47.3156843 130.9277,46.4055944 C130.904181,45.962038 130.881533,45.6943057 130.85453,45.6003996 C130.824913,45.5064935 130.743902,45.4525475 130.608885,45.4365634 L130,45.3556444 L130,45" id="Fill-22" fill="#FFFFFF"></path>
        <path d="M137.995762,51.5277016 C138.380397,51.5277016 138.729007,51.4566648 139.047947,51.3145913 C139.363709,51.1715579 139.637086,50.9690071 139.862781,50.7059792 C140.092715,50.4448711 140.26755,50.1290455 140.390464,49.7565826 C140.514437,49.3869995 140.575894,48.9646188 140.575894,48.5 C140.575894,48.0219419 140.514437,47.5976413 140.390464,47.2251783 C140.26755,46.8488755 140.089536,46.53209 139.859603,46.2757817 C139.630728,46.0146736 139.355232,45.8159627 139.04053,45.6767691 C138.726887,45.5394953 138.380397,45.4713385 137.995762,45.4713385 C137.490331,45.4713385 137.044238,45.5932529 136.656424,45.8351618 C136.269669,46.0799506 135.968742,46.4303346 135.750464,46.8863138 C135.534305,47.3461327 135.424106,47.8827482 135.424106,48.5 C135.424106,49.1086122 135.534305,49.6423478 135.750464,50.1012068 C135.968742,50.5610258 136.269669,50.9142896 136.656424,51.1590784 C137.044238,51.4038673 137.490331,51.5277016 137.995762,51.5277016 Z M137.995762,45 C138.61245,45 139.170861,45.0806363 139.670993,45.2390291 C140.171126,45.4003017 140.592848,45.6297312 140.935099,45.9273176 C141.281589,46.225864 141.54543,46.5916072 141.726623,47.0264674 C141.910993,47.4632474 142,47.953785 142,48.5028799 C142,49.0519748 141.910993,49.5425123 141.726623,49.9764125 C141.54543,50.4074328 141.281589,50.774136 140.935099,51.0726824 C140.592848,51.3693088 140.171126,51.5968184 139.670993,51.7580911 C139.170861,51.9193637 138.61245,52 137.995762,52 C137.178808,52 136.468874,51.8598464 135.861722,51.584339 C135.259868,51.3078716 134.79894,50.9046901 134.48,50.3738343 C134.16106,49.8429786 134,49.2199671 134,48.5028799 C134,47.9720241 134.093245,47.4882063 134.276556,47.0475864 C134.461987,46.6069665 134.729007,46.2383434 135.071258,45.9340373 C135.417748,45.633571 135.83947,45.4003017 136.338543,45.2390291 C136.834437,45.0806363 137.390728,45 137.995762,45 Z" id="Fill-23" fill="#FFFFFF"></path>
        <path d="M143.088062,45.5999433 C142.99747,45.5225953 142.884713,45.4710299 142.750753,45.4492138 L142.156126,45.346083 L142.156126,45 L144.405493,45 L148.420431,50.308259 C148.40212,49.9939085 148.389592,49.5863437 148.379954,49.0905227 C148.373208,48.5937102 148.363571,48.0641734 148.35297,47.4999292 C148.343332,46.9396515 148.32984,46.5677858 148.321166,46.3912736 C148.301891,46.0580819 148.286472,45.8399207 148.273943,45.7348066 C148.258523,45.6316759 148.23443,45.5582944 148.192989,45.5126788 C148.153475,45.4710299 148.081195,45.4432639 147.98193,45.4333475 L147.25527,45.346083 L147.25527,45 L150,45 L150,45.346083 L149.366823,45.4333475 C149.255993,45.4462388 149.176967,45.4809463 149.133598,45.5394532 C149.09023,45.5930018 149.05939,45.7209236 149.043971,45.9232186 C149.024696,46.1255135 149.018913,46.4428389 149.018913,46.8751948 L148.985183,52 L148.2113,52 C146.803277,49.9076356 145.295988,47.907494 143.686544,45.999575 L143.720275,50.0643151 C143.720275,50.5650942 143.723166,50.8853945 143.729912,51.0301742 C143.739549,51.1699958 143.767498,51.280068 143.813757,51.3534495 C143.863872,51.426831 143.963137,51.4754214 144.111553,51.493271 L144.772678,51.5934268 L144.772678,51.9484346 L142,51.9484346 L142,51.5934268 L142.660161,51.507154 C142.767136,51.493271 142.841344,51.465505 142.87893,51.4238561 C142.919407,51.385182 142.947356,51.3118005 142.959884,51.2086698 C142.975304,51.1065307 142.990724,50.8883695 143.009999,50.5551778 C143.047585,49.8342541 143.064932,49.1440714 143.064932,48.4975209 C143.064932,47.026916 143.072642,46.0610568 143.088062,45.5999433" id="Fill-24" fill="#FFFFFF"></path>
        <path d="M158.996292,51.5277016 C159.379817,51.5277016 159.72838,51.4566648 160.047279,51.3145913 C160.362998,51.1715579 160.637399,50.9690071 160.863064,50.7059792 C161.091908,50.4448711 161.26672,50.1290455 161.390677,49.7565826 C161.513574,49.3869995 161.575023,48.9646188 161.575023,48.5 C161.575023,48.0219419 161.513574,47.5976413 161.390677,47.2251783 C161.26672,46.8488755 161.08873,46.53209 160.858827,46.2757817 C160.629983,46.0146736 160.355582,45.8159627 160.040922,45.6767691 C159.725202,45.5394953 159.379817,45.4713385 158.996292,45.4713385 C158.488809,45.4713385 158.044895,45.5932529 157.657132,45.8351618 C157.270428,46.0799506 156.968481,46.4303346 156.750232,46.8863138 C156.534101,47.3461327 156.423917,47.8827482 156.423917,48.5 C156.423917,49.1086122 156.534101,49.6423478 156.750232,50.1012068 C156.968481,50.5610258 157.270428,50.9142896 157.657132,51.1590784 C158.044895,51.4038673 158.488809,51.5277016 158.996292,51.5277016 Z M158.996292,45 C159.612899,45 160.171236,45.0806363 160.670242,45.2390291 C161.171368,45.4003017 161.591975,45.6297312 161.934181,45.9273176 C162.280625,46.225864 162.544431,46.5916072 162.72454,47.0264674 C162.911005,47.4632474 163,47.953785 163,48.5028799 C163,49.0519748 162.911005,49.5425123 162.72454,49.9764125 C162.544431,50.4074328 162.280625,50.774136 161.934181,51.0726824 C161.591975,51.3693088 161.171368,51.5968184 160.670242,51.7580911 C160.171236,51.9193637 159.612899,52 158.996292,52 C158.177328,52 157.469607,51.8598464 156.862535,51.584339 C156.26076,51.3078716 155.797775,50.9046901 155.479936,50.3738343 C155.161038,49.8429786 155,49.2199671 155,48.5028799 C155,47.9720241 155.092173,47.4882063 155.277579,47.0475864 C155.461926,46.6069665 155.72891,46.2383434 156.072176,45.9340373 C156.417561,45.633571 156.839227,45.4003017 157.338233,45.2390291 C157.835121,45.0806363 158.390279,45 158.996292,45 Z" id="Fill-25" fill="#FFFFFF"></path>
        <path d="M166.286329,48.6943057 L166.286329,50.1238761 C166.286329,50.4835165 166.288285,50.7422577 166.291218,50.9000999 C166.297086,51.0549451 166.310776,51.1838162 166.339136,51.2847153 C166.364561,51.3876124 166.398787,51.4555445 166.440837,51.4875125 C166.484843,51.5164835 166.547428,51.5384615 166.633483,51.5484515 L167.514571,51.6423576 L167.514571,52 L164,52 L164,51.6423576 L164.655193,51.5614386 C164.834148,51.5414585 164.948562,51.4645355 164.988656,51.3226773 C165.061999,51.0609391 165.097203,50.1998002 165.097203,48.7432567 C165.097203,48.0899101 165.077645,47.3086913 165.040485,46.3956044 C165.01506,45.953047 164.988656,45.6813187 164.957364,45.5874126 C164.926071,45.4915085 164.834148,45.4365634 164.683552,45.4225774 L164.008801,45.3456543 L164.008801,45 L169,45 L169,46.9020979 L168.612752,46.9020979 L168.482691,46.1238761 C168.440642,45.8811189 168.38099,45.7232767 168.308625,45.6523477 C168.236261,45.5824176 168.099355,45.5434565 167.907686,45.5404595 L166.286329,45.4645355 L166.286329,48.2297702 L167.315079,48.2007992 C167.54293,48.1938062 167.688637,48.1518482 167.749267,48.0679321 C167.811852,47.984016 167.859769,47.8261738 167.890084,47.5894106 L167.976139,47.043956 L168.374144,47.043956 L168.374144,49.8341658 L167.976139,49.8341658 L167.907686,49.3336663 C167.881283,49.1598402 167.855858,49.033966 167.827499,48.959041 C167.799139,48.8841159 167.745355,48.8271728 167.663211,48.7872128 C167.584979,48.7492507 167.454919,48.7262737 167.280853,48.7232767 L166.286329,48.6943057" id="Fill-26" fill="#FFFFFF"></path>
        <path d="M6.99948985,63.4749565 C7.52800735,63.4749565 8.01265177,63.3685941 8.4473013,63.1529685 C8.88297113,62.9412106 9.2553821,62.6375943 9.56861545,62.2440534 C9.87878788,61.8505125 10.1195796,61.3757494 10.2909907,60.8158963 C10.4624018,60.2560433 10.5481073,59.6507445 10.5481073,58.9970992 C10.5481073,58.3376523 10.4593409,57.7275189 10.2879298,57.164765 C10.1134578,56.6029781 9.87572697,56.1311158 9.57269666,55.7462773 C9.26558514,55.3653065 8.89317417,55.064591 8.45444342,54.8499323 C8.01265177,54.630439 7.52800735,54.5250435 6.99948985,54.5250435 C6.47607387,54.5250435 5.99142945,54.630439 5.5516784,54.8499323 C5.10988675,55.064591 4.73441486,55.3682073 4.42424242,55.7588474 C4.11100908,56.1494875 3.87021732,56.618449 3.70186716,57.1686328 C3.53351699,57.7178495 3.45189266,58.327983 3.45189266,58.9970992 C3.45189266,59.6594469 3.53351699,60.2657126 3.70186716,60.8129956 C3.87021732,61.3593115 4.11406999,61.8340746 4.43138455,62.2343841 C4.74767881,62.6346935 5.1231507,62.9412106 5.55882053,63.1529685 C5.99347005,63.3685941 6.47607387,63.4749565 6.99948985,63.4749565 Z M6.99948985,54 C7.78818488,54 8.49015407,54.112164 9.10743802,54.336492 C9.72064075,54.5617869 10.245077,54.8934442 10.6766656,55.3275962 C11.1092746,55.7617482 11.4357719,56.2867917 11.6632997,56.9065945 C11.8877666,57.5244634 12,58.2216206 12,58.9970992 C12,59.7725778 11.8877666,60.4687681 11.6632997,61.0914717 C11.4357719,61.7093406 11.1092746,62.2372849 10.6766656,62.6714369 C10.2420161,63.1065558 9.71349862,63.4343454 9.08397102,63.663508 C8.45750434,63.887836 7.76165697,64 6.99642894,64 C6.23528211,64 5.53943475,63.887836 4.91194776,63.663508 C4.28548107,63.4343454 3.75492297,63.1065558 3.32231405,62.6714369 C2.89072544,62.2372849 2.56116723,61.7093406 2.33670034,61.0914717 C2.11223345,60.4687681 2,59.7725778 2,58.9970992 C2,58.2216206 2.11223345,57.5244634 2.33670034,56.9065945 C2.56116723,56.2867917 2.89072544,55.7617482 3.32231405,55.3275962 C3.75492297,54.8934442 4.28242016,54.5617869 4.89970411,54.336492 C5.51902867,54.112164 6.21895725,54 6.99948985,54 Z" id="Fill-27" fill="#FFFFFF"></path>
        <path d="M15.2943407,62.0979021 C15.2943407,62.4725275 15.3002387,62.7402597 15.3100688,62.9090909 C15.3198989,63.0769231 15.331695,63.2057942 15.3543042,63.2927073 C15.3769134,63.3796204 15.4142677,63.4445554 15.4693161,63.4865135 C15.5223985,63.5254745 15.5990732,63.5534466 15.6914759,63.5704296 L16.3009409,63.6413586 L16.3009409,64 L13,64 L13,63.6413586 L13.6507513,63.5604396 C13.8522679,63.5384615 13.9662969,63.4565435 13.9948041,63.3216783 C14.0645977,63.000999 14.0990029,62.0689311 14.0990029,60.5224775 C14.0990029,59.7502498 14.0704957,58.8761239 14.0075832,57.9000999 C14.0036512,57.7292707 13.978093,57.6123876 13.9368066,57.5444555 C13.8935543,57.4805195 13.8070496,57.4385614 13.6802415,57.4245754 L13,57.3476523 L13,57 L16.189861,57 C16.6538408,57 17.0735852,57.0569431 17.4520433,57.1768232 C17.8295183,57.2957043 18.1283528,57.4765235 18.3475635,57.7192807 C18.5667743,57.961039 18.6749052,58.2527473 18.6749052,58.5904096 C18.6749052,59.0719281 18.5156579,59.4725275 18.1922483,59.7922078 C17.8708047,60.1118881 17.4520433,60.3286713 16.9369471,60.4415584 L19.0749895,63.2407592 C19.1673922,63.3606394 19.2430838,63.4375624 19.3069794,63.4835165 C19.3738239,63.5254745 19.4534475,63.5534466 19.5487993,63.5704296 L20,63.6413586 L20,64 L18.1666901,64 C17.91504,63.5894106 17.6447128,63.1798202 17.3557085,62.7592408 C17.0676871,62.3426573 16.7590226,61.9160839 16.4247999,61.4845155 C16.0945092,61.0509491 15.8123859,60.7032967 15.573515,60.4345654 C16.2596545,60.3506494 16.7393624,60.1608392 17.0165707,59.8601399 C17.292796,59.5564436 17.4294341,59.1718282 17.4294341,58.7012987 C17.4294341,58.3456543 17.2800169,58.0549451 16.9811824,57.8291708 C16.679399,57.6023976 16.2911108,57.4905095 15.821233,57.4905095 L15.2943407,57.4905095 L15.2943407,62.0979021" id="Fill-28" fill="#FFFFFF"></path>
        <path d="M24.1678909,57.5424575 L24.1678909,62.0979021 C24.1678909,62.5694306 24.1741868,62.8921079 24.1920252,63.0629371 C24.2056663,63.2347652 24.2392445,63.3576424 24.2906611,63.4275724 C24.3410283,63.4995005 24.4260231,63.5384615 24.5487933,63.5474525 L25.5655824,63.6413586 L25.5655824,64 L21.4816369,64 L21.4816369,63.6413586 L22.4113326,63.5414585 C22.5299056,63.5254745 22.6117524,63.4995005 22.6589717,63.4635365 C22.706191,63.4275724 22.7439664,63.3706294 22.7712487,63.2927073 C22.7838405,63.2507493 22.8006296,63.1338661 22.818468,62.9440559 C22.838405,62.7532468 22.8551941,62.4825175 22.8688353,62.1228771 C22.8856243,61.7682318 22.8929696,61.2967033 22.8929696,60.7092907 C22.8929696,59.3396603 22.8625393,58.2847153 22.8006296,57.5424575 L21.0682057,57.5934066 C20.8950682,57.5964036 20.7838405,57.6353646 20.7355719,57.7102897 C20.6883526,57.7812188 20.636936,57.9390609 20.5802728,58.1808192 L20.4344176,58.8721279 L20,58.8421578 L20.1458552,57 L26.8782791,57 L27,58.8421578 L26.5729276,58.8721279 L26.4407135,58.1808192 C26.3966422,57.9490509 26.3494229,57.7942058 26.3011542,57.7152847 C26.250787,57.6383616 26.135362,57.5964036 25.9517314,57.5934066 L24.1678909,57.5424575" id="Fill-29" fill="#FFFFFF"></path>
        <path d="M30.2942692,60.2027972 L33.7214382,60.2027972 C33.7116211,59.5984016 33.6929685,59.001998 33.6644987,58.4075924 C33.6448644,58.0679321 33.629157,57.8411588 33.6134495,57.7352647 C33.6016689,57.6283716 33.5761443,57.5544456 33.5378574,57.5154845 C33.4995705,57.4765235 33.4269235,57.4515485 33.3189348,57.4345654 L32.6199534,57.3576424 L32.6199534,57 L35.9646582,57 L35.9646582,57.3546454 L35.3206528,57.4065934 C35.2156093,57.4155844 35.137072,57.4345654 35.0860228,57.4645355 C35.0320285,57.4935065 34.9937416,57.5544456 34.9711621,57.6513487 C34.9466192,57.7452547 34.9299301,57.8741259 34.9240398,58.042957 C34.9181495,58.2107892 34.9142226,58.4945055 34.9142226,58.8981019 L34.9142226,62.1008991 C34.9142226,62.4685315 34.9181495,62.7302697 34.9210946,62.8851149 C34.9279666,63.03996 34.9397472,63.1698302 34.9691987,63.2767233 C34.9937416,63.3796204 35.0261382,63.4475524 35.0673702,63.4765235 C35.1086023,63.5054945 35.1753589,63.5284715 35.2637133,63.5474525 L36,63.6413586 L36,64 L32.6199534,64 L32.6199534,63.6443556 L33.2678856,63.5634366 C33.4524482,63.5444555 33.5663272,63.4665335 33.6075592,63.3306693 C33.684133,63.1248751 33.7214382,62.2687313 33.7214382,60.7702298 L30.2942692,60.7702298 L30.2942692,62.1038961 C30.2942692,62.4725275 30.2981961,62.7342657 30.3011412,62.8891109 C30.3080133,63.043956 30.3197938,63.1728272 30.3492453,63.2767233 C30.3737882,63.3826174 30.4061848,63.4475524 30.4474169,63.4765235 C30.4847221,63.5054945 30.5514787,63.5284715 30.6408148,63.5474525 L31.3800466,63.6443556 L31.3800466,64 L28,64 L28,63.6413586 L28.6449871,63.5634366 C28.8285679,63.5444555 28.9424469,63.4665335 28.9876058,63.3286713 C28.997423,63.2957043 29.0131304,63.1858142 29.031783,62.998002 C29.0543625,62.8111888 29.0700699,62.5304695 29.0818505,62.1598402 C29.0955946,61.7852148 29.1014848,61.3036963 29.1014848,60.7152847 C29.1014848,60.0869131 29.0818505,59.3146853 29.0445453,58.4035964 C29.0190207,57.961039 28.9934961,57.6933067 28.9620812,57.5994006 C28.9306663,57.5064935 28.8383851,57.4515485 28.6862192,57.4345654 L28,57.3546454 L28,57 L31.3348877,57 L31.3348877,57.3576424 L30.6977543,57.4065934 C30.5927108,57.4155844 30.5161369,57.4345654 30.4631243,57.4645355 C30.4120751,57.4935065 30.3737882,57.5574426 30.3512087,57.6513487 C30.3266658,57.7452547 30.3099767,57.8781219 30.3040864,58.044955 C30.2981961,58.2137862 30.2942692,58.5014985 30.2942692,58.9040959 L30.2942692,60.2027972" id="Fill-30" fill="#FFFFFF"></path>
        <path d="M40.9962919,63.5277016 C41.3766389,63.5277016 41.7262614,63.4566648 42.0441001,63.3145913 C42.3629983,63.1715579 42.6342206,62.9690071 42.8630645,62.7059792 C43.08873,62.445831 43.2635413,62.1280856 43.3906767,61.7565826 C43.5135744,61.3869995 43.5750232,60.9655787 43.5750232,60.5 C43.5750232,60.0219419 43.5135744,59.5966813 43.3906767,59.2242183 C43.2635413,58.8488755 43.08873,58.53209 42.8598861,58.2748217 C42.6268044,58.0137137 42.355582,57.8159627 42.0409217,57.6767691 C41.7262614,57.5394953 41.3766389,57.4713385 40.9962919,57.4713385 C40.4898689,57.4713385 40.0406569,57.5922929 39.6539531,57.8342019 C39.2672494,58.0799506 38.9663621,58.4303346 38.7502318,58.8872737 C38.5309231,59.3451728 38.4249768,59.8827482 38.4249768,60.5 C38.4249768,61.1076522 38.5309231,61.6423478 38.7502318,62.1002468 C38.9663621,62.5600658 39.2672494,62.9142896 39.6539531,63.1590784 C40.0406569,63.4048272 40.4898689,63.5277016 40.9962919,63.5277016 Z M40.9962919,57 C41.612899,57 42.1712356,57.0806363 42.6713018,57.2390291 C43.1671302,57.4003017 43.5887962,57.6297312 43.9352404,57.9282776 C44.2774467,58.225864 44.5412528,58.5916072 44.7255993,59.0255074 C44.9078268,59.4632474 45,59.953785 45,60.5028799 C45,61.0519748 44.9078268,61.5425123 44.7255993,61.9764125 C44.5412528,62.4074328 44.2774467,62.774136 43.9352404,63.0717224 C43.5887962,63.3702688 43.1671302,63.5968184 42.6713018,63.7580911 C42.1712356,63.9193637 41.612899,64 40.9962919,64 C40.178387,64 39.4653688,63.8598464 38.8635942,63.584339 C38.2575818,63.3078716 37.7988346,62.9046901 37.4756986,62.3738343 C37.1578599,61.8439386 37,61.2190071 37,60.5028799 C37,59.9720241 37.0932327,59.4882063 37.2775791,59.0485464 C37.462985,58.6079265 37.7267912,58.2383434 38.0721759,57.9330773 C38.4143822,57.6326111 38.8392266,57.4003017 39.3361144,57.2390291 C39.8351212,57.0806363 40.387101,57 40.9962919,57 Z" id="Fill-31" fill="#FFFFFF"></path>
        <path d="M48.7625453,60.3256743 C50.0465598,60.2277722 50.6890843,59.7022977 50.6890843,58.7492507 C50.6890843,58.4845155 50.6114847,58.2557443 50.4614589,58.0579421 C50.3072944,57.8611389 50.1034661,57.7122877 49.8520435,57.6123876 C49.6016555,57.5124875 49.3378169,57.4645355 49.059493,57.4645355 L48.4148991,57.4645355 L48.4148991,62.0979021 C48.4148991,62.5344655 48.4211071,62.8371628 48.4345577,63.007992 C48.4480083,63.1798202 48.4780135,63.3016983 48.5318158,63.3796204 C48.5825142,63.4565435 48.6652871,63.5024975 48.7790998,63.5184815 L49.7485773,63.6413586 L49.7485773,64 L46,64 L46,63.6413586 L46.6921883,63.5534466 C46.882566,63.5354645 46.9963787,63.4545455 47.0367305,63.3156843 C47.1163994,63.0669331 47.1577858,62.2017982 47.1577858,60.7122877 C47.1577858,59.957043 47.1370926,59.1818182 47.0967408,58.3906094 C47.0770823,57.952048 47.0501811,57.6873127 47.0098293,57.5904096 C46.9736161,57.4965035 46.879462,57.4415584 46.7284014,57.4285714 L46.006208,57.3476523 L46.006208,57 L49.4681842,57 C50.1603725,57 50.7553026,57.1478521 51.2540093,57.4485514 C51.752716,57.7452547 52,58.1618382 52,58.6943057 C52,59.0589411 51.8696327,59.3946054 51.6120021,59.7082917 C51.3512675,60.017982 50.9829281,60.2667333 50.5080186,60.4575425 C50.0331092,60.6483516 49.5075013,60.7522478 48.9332644,60.7702298 L48.7625453,60.3256743" id="Fill-32" fill="#FFFFFF"></path>
        <path d="M55.403841,58.1284885 L54.2900774,60.9477263 L56.3476927,60.9477263 C56.0638837,60.0671483 55.7473993,59.1250885 55.403841,58.1284885 Z M56.1787143,57 C56.2393972,57.2112197 56.4270472,57.7814138 56.7435316,58.7135572 L58.0617498,62.6503754 C58.188717,63.0321575 58.2820752,63.2790764 58.3427581,63.3941068 C58.4062417,63.5091373 58.4902641,63.573594 58.5994932,63.5894603 L59,63.6370591 L59,64 L56.1245666,64 L56.1245666,63.6370591 L56.6949853,63.5636776 C56.8368898,63.5418615 56.9274473,63.5091373 56.9666578,63.4674883 C57.008669,63.4258394 57.0301414,63.3554328 57.0301414,63.252302 C57.0301414,63.0866978 56.8518272,62.5065873 56.498933,61.5129622 L54.0725527,61.5129622 L53.4871966,63.0033999 C53.423713,63.147188 53.3938384,63.2651934 53.3938384,63.3554328 C53.3938384,63.4417056 53.4059749,63.4972376 53.4358496,63.5190537 C53.4666578,63.5418615 53.5385436,63.5567361 53.656175,63.573594 L54.2415311,63.6440006 L54.2415311,64 L52,64 L52,63.6469755 L52.3584956,63.5954101 C52.4462523,63.5805355 52.516271,63.5418615 52.5704188,63.4774047 C52.6245666,63.4139397 52.6880501,63.2919677 52.759936,63.1114889 L55.3375567,57 L56.1787143,57 Z" id="Fill-33" fill="#FFFFFF"></path>
        <path d="M62.3647714,60.6933067 L62.3647714,63.5354645 L64.7052472,63.4245754 C64.8712671,63.4095904 64.9856588,63.3676324 65.0443732,63.2957043 C65.1040999,63.2247752 65.1820483,63.0729271 65.280243,62.8431568 L65.5981103,62.0719281 L66,62.1628372 L65.6639109,64 L60,64 L60,63.6543457 L60.6701535,63.5774226 C60.8564198,63.5574426 60.9718239,63.4765235 61.0173781,63.3336663 C61.0598954,63.1958042 61.0922895,62.7952048 61.1084866,62.1358641 C61.1246837,61.4775225 61.1348068,60.9190809 61.1348068,60.4635365 C61.1348068,59.957043 61.1155728,59.2727273 61.0760925,58.4075924 C61.0497722,57.965035 61.020415,57.6963037 60.9839717,57.6023976 C60.9455036,57.5064935 60.8503459,57.4515485 60.6934368,57.4385614 L60,57.3576424 L60,57 L65.2934031,57 L65.2934031,58.9110889 L64.8915134,58.9110889 L64.7508014,58.1298701 C64.7052472,57.8931069 64.6455205,57.7422577 64.573646,57.6733267 C64.4987346,57.6093906 64.3610596,57.5704296 64.1616332,57.5604396 L62.3647714,57.4905095 L62.3647714,60.2277722 L63.4904674,60.1998002 C63.7425342,60.1928072 63.9004555,60.1508492 63.9682807,60.0669331 C64.0371183,59.986014 64.0897587,59.8281718 64.1251898,59.5954046 L64.2142737,59.042957 L64.5969293,59.042957 L64.5969293,61.8271728 L64.2142737,61.8271728 L64.132276,61.3096903 C64.0958326,61.0779221 64.0472414,60.9220779 63.9784039,60.8451548 C63.9095664,60.7672328 63.7455711,60.7252747 63.4904674,60.7222777 L62.3647714,60.6933067" id="Fill-34" fill="#FFFFFF"></path>
        <path d="M70.209183,63.3476523 C70.4899392,63.4545455 70.8321404,63.5084915 71.2291695,63.5084915 C71.7178933,63.5084915 72.1489534,63.3796204 72.5242404,63.1218781 C72.9033086,62.8631369 73.1972991,62.4925075 73.4109386,62.000999 C73.6217421,61.5094905 73.7285618,60.9350649 73.7285618,60.2797203 C73.7285618,59.8181818 73.6519919,59.4145854 73.5054693,59.0659341 C73.3561107,58.7202797 73.153815,58.4255744 72.8919649,58.1908092 C72.6320054,57.952048 72.3389602,57.7742258 72.0109386,57.6613387 C71.6876435,57.5474525 71.3426063,57.4905095 70.981499,57.4905095 L70.209183,57.4905095 L70.209183,63.3476523 Z M71.1771776,64 L68,64 L68,63.6383616 L68.6201215,63.5674326 C68.796894,63.5474525 68.9074949,63.4665335 68.9500338,63.3246753 C68.9623228,63.2867133 68.9802836,63.1758242 68.9982444,62.996004 C69.0171506,62.8111888 69.0294396,62.5344655 69.0417286,62.1598402 C69.0540176,61.7882118 69.0596894,61.3066933 69.0596894,60.7182817 C69.0596894,60.0869131 69.0417286,59.3146853 69.0048616,58.4005994 C68.9802836,57.959041 68.9566509,57.6903097 68.9254558,57.5964036 C68.8952059,57.5004995 68.8063471,57.4445554 68.6598244,57.4315684 L68,57.3506494 L68,57 L71.0675219,57 C71.7944632,57 72.4542876,57.1158841 73.0441594,57.3506494 C73.6340311,57.5864136 74.10763,57.952048 74.4649561,58.4495504 C74.8194463,58.9460539 75,59.5664336 75,60.3016983 C75,60.7842158 74.9177583,61.2487512 74.7523295,61.7012987 C74.587846,62.1498501 74.3430115,62.5494505 74.0187711,62.8921079 C73.6916948,63.2377622 73.2918298,63.5084915 72.8182309,63.7052947 C72.3417961,63.9000999 71.7944632,64 71.1771776,64 Z" id="Fill-35" fill="#FFFFFF"></path>
        <path d="M76,57 L78.9607786,57 L78.9607786,57.3546454 L78.3977339,57.4345654 C78.2783266,57.4515485 78.1946543,57.4935065 78.146717,57.5674326 C78.0987798,57.6383616 78.0674027,57.7642358 78.0560721,57.9390609 C78.0421267,58.1128871 78.0368972,58.4325674 78.0368972,58.8981019 L78.0368972,62.1008991 C78.0368972,62.4685315 78.0395119,62.7302697 78.0421267,62.8851149 C78.0482278,63.03996 78.0586868,63.1698302 78.0848344,63.2767233 C78.1074956,63.3796204 78.1353864,63.4475524 78.171993,63.4765235 C78.2085997,63.5054945 78.2678675,63.5284715 78.3463103,63.5474525 L79,63.6413586 L79,64 L76,64 L76,63.6413586 L76.5717606,63.5634366 C76.7347472,63.5444555 76.8367228,63.4665335 76.8759442,63.3286713 C76.8846601,63.2957043 76.8986055,63.1858142 76.9151656,62.998002 C76.9352121,62.8111888 76.9491575,62.5304695 76.9604881,62.1598402 C76.9718187,61.7852148 76.9770482,61.3036963 76.9770482,60.7152847 C76.9770482,60.0869131 76.9604881,59.3146853 76.9264962,58.4035964 C76.903835,57.961039 76.8811737,57.6933067 76.853283,57.5994006 C76.8253922,57.5064935 76.7434631,57.4515485 76.6083672,57.4345654 L76,57.3546454 L76,57" id="Fill-36" fill="#FFFFFF"></path>
        <path d="M86.6278422,57.2572682 L86.6278422,59.1157433 L86.250116,59.1157433 L86.0607889,58.2383434 C86.0208817,58.0300329 85.92529,57.8687603 85.7786543,57.7574054 C85.562413,57.5990126 85.1679814,57.5212562 84.5962877,57.5212562 C84.0561485,57.5212562 83.6106729,57.6537301 83.2589327,57.9244377 C82.9081206,58.1941854 82.6538283,58.5512891 82.4914153,58.9986286 C82.3290023,59.4450082 82.2482599,59.9441854 82.2482599,60.4961602 C82.2482599,60.9003017 82.2928074,61.2756445 82.3837587,61.616429 C82.4728538,61.9620132 82.6167053,62.2778387 82.8143852,62.5667855 C83.012993,62.8509325 83.262645,63.0784421 83.5651972,63.2368349 C83.8649652,63.3981075 84.2222738,63.4787438 84.6361949,63.4787438 C85.0677494,63.4787438 85.4194896,63.4259462 85.6821346,63.3241909 C85.94942,63.2205156 86.1303944,63.0534833 86.2287703,62.8144542 L86.6547564,61.7719419 L87,61.8621777 L86.7150812,63.6208173 C86.4329466,63.7484915 86.1211137,63.8454471 85.7823666,63.9068843 C85.4399072,63.9683214 85.0584687,64 84.6361949,64 C83.9067285,64 83.3006961,63.8857652 82.8143852,63.6553758 C82.3290023,63.4221064 81.9540603,63.12548 81.687703,62.7587767 C81.4204176,62.3891936 81.2403712,62.0138508 81.1447796,61.6289084 C81.0482599,61.2478058 81,60.8686231 81,60.5028799 C81,60.0152222 81.1085847,59.5035656 81.3276102,58.96791 C81.5466357,58.4332145 81.9299304,57.9714756 82.4756381,57.5826934 C83.0222738,57.1919912 83.7415313,57 84.6361949,57 C84.9777262,57 85.337819,57.021119 85.712761,57.0681569 C86.0886311,57.1151947 86.3939675,57.1766319 86.6278422,57.2572682" id="Fill-37" fill="#FFFFFF"></path>
        <path d="M97.2665406,54.2775092 L97.2608696,56.4337652 L96.8383743,56.4337652 L96.694707,55.51228 C96.6427221,55.1680526 96.4659735,54.9185844 96.1625709,54.7590408 C95.8582231,54.602398 95.4763705,54.5250435 95.0151229,54.5250435 C94.5595463,54.5250435 94.18431,54.7019919 93.8809074,55.0549217 C93.5784499,55.4126861 93.4291115,55.8274995 93.4291115,56.3090311 C93.4291115,56.6658287 93.5302457,56.9655773 93.731569,57.2092439 C93.9300567,57.4500097 94.147448,57.6337266 94.3799622,57.7623284 C94.6086957,57.8870625 95.0274102,58.0872172 95.63138,58.3618256 C96.1181474,58.5871205 96.520794,58.8056469 96.842155,59.0183717 C97.1625709,59.2349642 97.4376181,59.5066718 97.6597353,59.8344614 C97.8875236,60.1632179 98,60.5499903 98,60.9967124 C98,61.3970219 97.9168242,61.7789596 97.758034,62.1463933 C97.5964083,62.5128602 97.3705104,62.8338813 97.0765595,63.1123574 C96.7807183,63.3879327 96.4328922,63.6064591 96.0226843,63.7631019 C95.6134216,63.9216786 95.168242,64 94.68431,64 C94.0680529,64 93.5236295,63.9535873 93.0557656,63.859795 C92.5926276,63.7660027 92.2381853,63.663508 92,63.5445755 L92,61.1185457 L92.4357278,61.1185457 L92.5680529,62.0632373 C92.6408318,62.5815123 92.8506616,62.9479791 93.205104,63.1558693 C93.5595463,63.3685941 94.0822306,63.4749565 94.7816635,63.4749565 C95.1975425,63.4749565 95.5586011,63.3782634 95.8610586,63.1848772 C96.1625709,62.9943918 96.3931947,62.7381551 96.5453686,62.4258364 C96.7013233,62.10965 96.7778828,61.7750919 96.7778828,61.4211951 C96.7778828,60.919358 96.5784499,60.5064784 96.1880907,60.1844904 C95.7939509,59.8625024 95.1880907,59.5279443 94.3761815,59.1779153 C93.936673,58.9903307 93.5727788,58.8027461 93.2769376,58.6190292 C92.9829868,58.4343454 92.7296786,58.1752079 92.5217391,57.8396828 C92.3109641,57.5060917 92.2069943,57.0970799 92.2069943,56.6126475 C92.2069943,56.0740669 92.3449905,55.6060723 92.6219282,55.2096306 C92.9007561,54.812222 93.2674858,54.5086057 93.7183365,54.3055502 C94.1710775,54.1024947 94.6483932,54 95.1521739,54 C95.3903592,54 95.6493384,54.0116032 95.9281664,54.0406111 C96.2060491,54.0676852 96.463138,54.1053955 96.7013233,54.1527751 C96.942344,54.1991878 97.1285444,54.2436666 97.2665406,54.2775092" id="Fill-38" fill="#FFFFFF"></path>
        <path d="M105.230875,61.9279531 C105.250842,61.5760961 105.260826,61.0746998 105.260826,60.4208322 C105.260826,59.7669645 105.240859,59.0837755 105.201922,58.3702876 C105.182953,58.0448199 105.166979,57.826864 105.151005,57.7222843 C105.138026,57.6177046 105.112068,57.5483105 105.073131,57.5072605 C105.034194,57.4662106 104.960314,57.4388439 104.847498,57.4251606 L104.141645,57.3469701 L104.141645,57 L107,57 L107,57.3469701 L106.425933,57.4192963 C106.28017,57.4320022 106.182329,57.4730522 106.13241,57.5356046 C106.080494,57.6030438 106.048546,57.7134879 106.034569,57.867914 C106.018595,58.0252723 106.003619,58.3536722 105.983652,58.8599553 L105.899788,61.7979615 C105.886809,62.4234851 105.67715,62.9483385 105.269812,63.3676347 C104.863472,63.7879084 104.191564,64 103.254087,64 C101.149507,64 100.097217,63.3744764 100.097217,62.1234292 C100.101211,61.8927674 100.104206,61.6650377 100.107201,61.4470818 C100.110196,61.2291259 100.110196,60.8499023 100.110196,60.3133203 C100.110196,59.7816252 100.091227,59.1345993 100.0463,58.3732198 C100.026332,58.0418877 100.010358,57.8229545 99.9933857,57.7193521 C99.9814052,57.6147724 99.954449,57.5424462 99.9165107,57.5043284 C99.8785723,57.4662106 99.8006989,57.441776 99.6918757,57.4251606 L99,57.3469701 L99,57 L102.339573,57 L102.339573,57.3469701 L101.720579,57.4104999 C101.581805,57.4251606 101.484962,57.4632784 101.433046,57.523876 C101.378136,57.5864284 101.346187,57.703714 101.329215,57.8776878 C101.317234,58.0516615 101.311244,58.3771293 101.311244,58.8531137 L101.311244,61.9211114 C101.311244,62.2368054 101.388119,62.505585 101.545863,62.7235409 C101.70161,62.9414968 101.927243,63.1096063 102.22476,63.2229824 C102.521278,63.3363586 102.875702,63.394024 103.295021,63.394024 C104.537002,63.394024 105.182953,62.9043563 105.230875,61.9279531" id="Fill-39" fill="#FFFFFF"></path>
        <path d="M110.29729,62.0979021 C110.29729,62.4725275 110.300239,62.7402597 110.310069,62.9090909 C110.319899,63.0769231 110.335627,63.2057942 110.358236,63.2927073 C110.376913,63.3796204 110.415251,63.4445554 110.469316,63.4865135 C110.527314,63.5254745 110.600056,63.5534466 110.694425,63.5704296 L111.304873,63.6413586 L111.304873,64 L108,64 L108,63.6413586 L108.650751,63.5604396 C108.851285,63.5384615 108.966297,63.4565435 108.994804,63.3216783 C109.067547,63.000999 109.101952,62.0689311 109.101952,60.5224775 C109.101952,59.7502498 109.071479,58.8761239 109.010532,57.9000999 C109.004634,57.7292707 108.982025,57.6123876 108.936807,57.5444555 C108.896503,57.4805195 108.809999,57.4385614 108.680242,57.4245754 L108,57.3476523 L108,57 L111.19281,57 C111.653841,57 112.074568,57.0569431 112.453026,57.1768232 C112.829518,57.2957043 113.128353,57.4765235 113.347564,57.7192807 C113.566774,57.961039 113.678837,58.2527473 113.678837,58.5904096 C113.678837,59.0719281 113.516641,59.4725275 113.195197,59.7922078 C112.870805,60.1118881 112.454992,60.3286713 111.939896,60.4415584 L114.078921,63.2407592 C114.167392,63.3606394 114.247999,63.4375624 114.310911,63.4835165 C114.374807,63.5254745 114.453448,63.5534466 114.548799,63.5704296 L115,63.6413586 L115,64 L113.170622,64 C112.918972,63.5894106 112.648645,63.1798202 112.360624,62.7592408 C112.070636,62.3426573 111.759023,61.9160839 111.429715,61.4845155 C111.099424,61.0509491 110.813369,60.7032967 110.576464,60.4345654 C111.260638,60.3506494 111.740345,60.1608392 112.016571,59.8601399 C112.292796,59.5564436 112.433366,59.1718282 112.433366,58.7012987 C112.433366,58.3456543 112.283949,58.0549451 111.982165,57.8291708 C111.682348,57.6023976 111.295043,57.4905095 110.822216,57.4905095 L110.29729,57.4905095 L110.29729,62.0979021" id="Fill-40" fill="#FFFFFF"></path>
        <path d="M121.059798,63.3318705 C121.055932,63.2243555 121.055932,63.081322 121.059798,62.9008502 C121.065599,62.7213385 121.059798,62.5543061 121.046264,62.3987932 C121.02693,62.0829676 121.012429,61.8804169 121.002762,61.7969007 C120.993095,61.7133845 120.968927,61.6452276 120.927358,61.5924301 C120.883856,61.5425123 120.819086,61.5079539 120.725314,61.4954745 L119.924872,61.417718 L119.924872,61.0740538 L123,61.0740538 L123,61.417718 L122.553377,61.4810752 C122.396768,61.4983544 122.309764,61.5453922 122.286563,61.6193088 C122.262395,61.6941854 122.246927,61.8957762 122.23726,62.2250411 L122.186991,63.6918541 C121.531556,63.8972847 120.744649,64 119.821434,64 C119.05096,64 118.407126,63.8857652 117.893799,63.6553758 C117.381439,63.4221064 116.990885,63.1312397 116.722138,62.7712562 C116.45339,62.4141525 116.265847,62.0359298 116.159508,61.6423478 C116.054136,61.2449259 116,60.8657433 116,60.5028799 C116,60.149616 116.062837,59.7733132 116.184643,59.3758914 C116.307416,58.9755897 116.513327,58.5983269 116.799475,58.2345036 C117.087557,57.8716402 117.483911,57.5730938 117.991438,57.3446242 C118.493164,57.1151947 119.106063,57 119.824334,57 C120.659577,57 121.399116,57.0748766 122.046817,57.2294295 L122.046817,59.0696654 L121.633062,59.0696654 L121.436818,58.2287438 C121.387516,57.9801152 121.27441,57.809243 121.107168,57.7170872 C120.809419,57.5519748 120.365695,57.4713385 119.775998,57.4713385 C119.224969,57.4713385 118.756111,57.613412 118.374258,57.9023587 C117.993371,58.1884257 117.710123,58.5637685 117.52838,59.0226275 C117.343737,59.4853264 117.249965,59.974904 117.249965,60.5 C117.249965,61.0270159 117.343737,61.5213933 117.53418,61.9831322 C117.721724,62.4429512 118.008839,62.8144542 118.397459,63.0995612 C118.784146,63.3856281 119.258804,63.5277016 119.821434,63.5277016 C120.424665,63.5277016 120.836487,63.4633845 121.059798,63.3318705" id="Fill-41" fill="#FFFFFF"></path>
        <path d="M126.365998,60.6933067 L126.365998,63.5354645 L128.704672,63.4245754 C128.871648,63.4095904 128.984989,63.3676324 129.044696,63.2957043 C129.10339,63.2247752 129.182324,63.0729271 129.279474,62.8431568 L129.598246,62.0719281 L130,62.1628372 L129.663012,64 L124,64 L124,63.6543457 L124.670939,63.5774226 C124.858155,63.5574426 124.972508,63.4765235 125.018047,63.3336663 C125.06055,63.1958042 125.092933,62.7952048 125.109125,62.1358641 C125.126328,61.4775225 125.135436,60.9190809 125.135436,60.4635365 C125.135436,59.957043 125.116208,59.2727273 125.077753,58.4075924 C125.05043,57.965035 125.021083,57.6963037 124.985664,57.6023976 C124.946197,57.5064935 124.851071,57.4515485 124.694215,57.4385614 L124,57.3576424 L124,57 L129.293641,57 L129.293641,58.9110889 L128.890875,58.9110889 L128.750211,58.1298701 C128.704672,57.8931069 128.644965,57.7422577 128.574127,57.6733267 C128.499241,57.6093906 128.3606,57.5704296 128.161241,57.5604396 L126.365998,57.4905095 L126.365998,60.2277722 L127.491314,60.1998002 C127.743296,60.1928072 127.900152,60.1508492 127.968966,60.0669331 C128.03778,59.986014 128.089391,59.8281718 128.125822,59.5954046 L128.213864,59.042957 L128.596391,59.042957 L128.596391,61.8271728 L128.213864,61.8271728 L128.131894,61.3096903 C128.095463,61.0779221 128.046888,60.9220779 127.979086,60.8451548 C127.910272,60.7672328 127.746332,60.7252747 127.491314,60.7222777 L126.365998,60.6933067" id="Fill-42" fill="#FFFFFF"></path>
        <path d="M134.996292,63.5277016 C135.380877,63.5277016 135.730499,63.4566648 136.048338,63.3145913 C136.362998,63.1715579 136.63634,62.9690071 136.863064,62.7059792 C137.091908,62.445831 137.267779,62.1280856 137.389617,61.7565826 C137.513574,61.3869995 137.576083,60.9655787 137.576083,60.5 C137.576083,60.0219419 137.513574,59.5966813 137.389617,59.2242183 C137.267779,58.8488755 137.089789,58.53209 136.859886,58.2748217 C136.629983,58.0137137 136.356642,57.8159627 136.040922,57.6767691 C135.726261,57.5394953 135.380877,57.4713385 134.996292,57.4713385 C134.489869,57.4713385 134.044895,57.5922929 133.658191,57.8342019 C133.270428,58.0799506 132.96954,58.4303346 132.750232,58.8872737 C132.535161,59.3451728 132.426036,59.8827482 132.426036,60.5 C132.426036,61.1076522 132.535161,61.6423478 132.750232,62.1002468 C132.96954,62.5600658 133.270428,62.9142896 133.658191,63.1590784 C134.044895,63.4048272 134.489869,63.5277016 134.996292,63.5277016 Z M134.996292,57 C135.612899,57 136.171236,57.0806363 136.671302,57.2390291 C137.171368,57.4003017 137.593034,57.6297312 137.93524,57.9282776 C138.280625,58.225864 138.544431,58.5916072 138.726659,59.0255074 C138.911005,59.4632474 139,59.953785 139,60.5028799 C139,61.0519748 138.911005,61.5425123 138.726659,61.9764125 C138.544431,62.4074328 138.280625,62.774136 137.93524,63.0717224 C137.593034,63.3702688 137.171368,63.5968184 136.671302,63.7580911 C136.171236,63.9193637 135.612899,64 134.996292,64 C134.178387,64 133.469607,63.8598464 132.863594,63.584339 C132.259701,63.3078716 131.798835,62.9046901 131.479936,62.3738343 C131.161038,61.8439386 131,61.2190071 131,60.5028799 C131,59.9720241 131.093233,59.4882063 131.277579,59.0485464 C131.462985,58.6079265 131.72997,58.2383434 132.072176,57.9330773 C132.417561,57.6326111 132.839227,57.4003017 133.339293,57.2390291 C133.836181,57.0806363 134.390279,57 134.996292,57 Z" id="Fill-43" fill="#FFFFFF"></path>
        <path d="M140.087229,57.5980448 C139.99759,57.5216775 139.884819,57.4701048 139.750843,57.4482856 L139.156145,57.3451403 L139.156145,57 L141.405783,57 L145.421205,62.3080193 C145.401928,61.9936243 145.389398,61.5869935 145.379759,61.0901105 C145.373976,60.5932275 145.364337,60.0646075 145.351807,59.4992916 C145.343133,58.9389345 145.330602,58.5670162 145.320964,58.3904789 C145.302651,58.05724 145.287229,57.8390479 145.273735,57.7329272 C145.259277,57.6307736 145.233253,57.5563899 145.192771,57.5117597 C145.152289,57.4701048 145.080964,57.4413432 144.981687,57.4314253 L144.255904,57.3451403 L144.255904,57 L147,57 L147,57.3451403 L146.367711,57.4314253 C146.25494,57.4453103 146.177831,57.4800227 146.134458,57.5385378 C146.091084,57.5920941 146.059277,57.720034 146.043855,57.9223576 C146.025542,58.1236894 146.018795,58.4420516 146.018795,58.8744687 L145.98506,64 L145.212048,64 C143.803855,61.9073392 142.296386,59.9069141 140.684819,57.9987249 L140.719518,62.0640408 C140.719518,62.5638991 140.72241,62.8842448 140.729157,63.0290451 C140.737831,63.1698782 140.766747,63.2789742 140.813012,63.3533579 C140.863133,63.4267498 140.963373,63.4743553 141.111807,63.494191 L141.773012,63.5933692 L141.773012,63.9494191 L139,63.9494191 L139,63.5933692 L139.660241,63.5060924 C139.766265,63.494191 139.841446,63.4644375 139.879036,63.4227827 C139.918554,63.3850949 139.946506,63.311703 139.96,63.2085577 C139.974458,63.1064041 139.98988,62.888212 140.009157,62.5539813 C140.046747,61.8339473 140.06506,61.1436668 140.06506,60.4970247 C140.06506,59.0252196 140.070843,58.0602154 140.087229,57.5980448" id="Fill-44" fill="#FFFFFF"></path>
        <path d="M153.402207,57.2015613 L153.402207,58.9791397 L152.943389,58.9791397 L152.802371,58.1076272 C152.739015,57.6824289 152.312896,57.4712695 151.529123,57.4712695 C151.185776,57.4712695 150.916002,57.5797286 150.711629,57.7976068 C150.509299,58.0135653 150.407112,58.2880725 150.407112,58.6124902 C150.407112,58.7967748 150.443899,58.9445864 150.519518,59.0655231 C150.591048,59.1835805 150.697323,59.2920396 150.833231,59.3918604 C150.972205,59.4916813 151.097895,59.5627076 151.212344,59.6087788 C151.327815,59.6548499 151.573064,59.7546707 151.939914,59.9034422 C152.237278,60.0147808 152.501942,60.1213203 152.731862,60.2230607 C152.96076,60.325761 153.165134,60.4438183 153.350092,60.5714738 C153.53505,60.6972096 153.690374,60.8680568 153.812998,61.0763368 C153.938688,61.2874962 154,61.5264903 154,61.7961985 C154,62.1964416 153.87431,62.5746089 153.623953,62.9259014 C153.373595,63.2762341 153.032291,63.5488218 152.600041,63.735026 C152.169834,63.9250695 151.704885,64.0104931 151.203147,63.9989753 C150.741263,63.9836182 150.31821,63.9490649 149.938075,63.8905161 C149.554874,63.8310075 149.241161,63.7599812 149,63.6764772 L149,61.6752617 L149.458819,61.6752617 L149.608011,62.4872657 C149.673411,62.8567947 149.842019,63.1245833 150.116902,63.2858323 C150.387697,63.4470813 150.777028,63.526746 151.2757,63.526746 C151.765175,63.526746 152.131003,63.4038896 152.381361,63.1524179 C152.632741,62.8999864 152.759452,62.5842071 152.759452,62.1964416 C152.759452,61.9948803 152.718578,61.8269126 152.638872,61.6934982 C152.560188,61.5610437 152.441651,61.4429864 152.283262,61.3402861 C152.12385,61.2375858 151.929695,61.1416043 151.698753,61.0513816 C151.467811,60.9649982 151.216432,60.8718961 150.948702,60.7720753 C150.611486,60.6453796 150.324341,60.5177241 150.090333,60.3814303 C149.852238,60.2480159 149.652974,60.0522136 149.488453,59.7988223 C149.326998,59.5463908 149.244226,59.2181338 149.244226,58.8207702 C149.244226,58.243921 149.4813,57.7976068 149.954425,57.4779882 C150.429593,57.1583696 151.008992,57 151.689557,57 C152.180053,57 152.752299,57.0681469 153.402207,57.2015613" id="Fill-45" fill="#FFFFFF"></path>
    </g>
</svg>