<?xml version="1.0" encoding="utf-8"?>
<!-- Generator: Adobe Illustrator 21.0.0, SVG Export Plug-In . SVG Version: 6.00 Build 0)  -->
<svg version="1.1" id="Layer_1" xmlns="http://www.w3.org/2000/svg" xmlns:xlink="http://www.w3.org/1999/xlink" x="0px" y="0px"
	 viewBox="0 0 89.4 26.6" style="enable-background:new 0 0 89.4 26.6;" xml:space="preserve">
<style type="text/css">
	.st0{fill:#FFFFFF;}
</style>
<g>
	<path class="st0" d="M87.4,1.2v5.6h-1.1l-0.4-2.4c-0.1-0.9-0.6-1.5-1.4-2c-0.8-0.4-1.8-0.6-3.1-0.6c-1.2,0-2.2,0.5-3,1.4
		s-1.2,2-1.2,3.3c0,0.9,0.3,1.7,0.8,2.3c0.5,0.6,1.1,1.1,1.7,1.4c0.6,0.3,1.7,0.9,3.4,1.6c1.3,0.6,2.4,1.2,3.2,1.7
		c0.9,0.6,1.6,1.3,2.2,2.1c0.6,0.9,0.9,1.9,0.9,3c0,1-0.2,2-0.6,3c-0.4,1-1,1.8-1.8,2.5s-1.7,1.3-2.8,1.7s-2.3,0.6-3.6,0.6
		c-1.6,0-3.1-0.1-4.3-0.4c-1.2-0.2-2.2-0.5-2.8-0.8v-6.3h1.2l0.3,2.5c0.2,1.3,0.8,2.3,1.7,2.8S79,25,80.9,25c1.1,0,2.1-0.2,2.9-0.8
		c0.8-0.5,1.4-1.2,1.8-2c0.4-0.8,0.6-1.7,0.6-2.6c0-1.3-0.5-2.4-1.6-3.2s-2.7-1.7-4.9-2.6c-1.2-0.5-2.1-1-2.9-1.5
		c-0.8-0.5-1.5-1.2-2-2C74.2,9.4,74,8.4,74,7.1c0-1.4,0.4-2.6,1.1-3.7c0.7-1,1.7-1.8,2.9-2.3s2.5-0.8,3.8-0.8c0.6,0,1.3,0,2.1,0.1
		c0.7,0.1,1.4,0.2,2.1,0.3C86.6,1,87.1,1.1,87.4,1.2z"/>
	<path class="st0" d="M45.7,24.8c-0.4-0.1-0.7-0.2-0.8-0.5c-0.2-0.3-0.5-1.3-1.1-2.9L38.9,7c-0.2-0.7-0.5-1.5-0.8-2.3
		s-0.5-1.5-0.7-1.9c-0.2-0.5-0.4-1.1-0.6-1.9h-2.3l-9.6,22.3c-0.3,0.7-0.6,1.2-0.7,1.4c-0.1,0.2-0.3,0.4-0.7,0.4
		c-0.5,0-0.7-0.4-0.8-0.6c-0.2-0.3-0.5-1.3-1.1-2.9L16.7,7.1c-0.2-0.7-0.5-1.5-0.8-2.3s-0.5-1.5-0.7-1.9C15,2.4,14.8,1.8,14.6,1
		h-2.3L2.7,23.3C2.4,24,2.1,24.5,2,24.7c-0.2,0.2-0.4,0.4-0.7,0.4L0,25.3v1h7.5v-1l-1.8-0.2C5.4,25.1,5.2,25,5,25
		c-0.1,0-0.3-0.1-0.3-0.2c-0.1-0.1-0.1-0.3-0.1-0.5s0.1-0.6,0.3-1.2l2.5-5.9h9.3c0.7,2.1,1.2,3.7,1.6,4.7c0.3,1.1,0.5,1.7,0.5,2
		c0,0.4-0.1,0.7-0.3,0.8c-0.2,0.2-0.5,0.3-1,0.4l-1.8,0.3v1h6.5H25h4.7v-1l-1.8-0.2c-0.3,0-0.5-0.1-0.7-0.1c-0.1,0-0.3-0.1-0.3-0.2
		c-0.1-0.1-0.1-0.3-0.1-0.5s0.1-0.6,0.3-1.2l2.5-5.9h9.3c0.7,2.1,1.3,3.7,1.6,4.7c0.3,1.1,0.5,1.7,0.5,2c0,0.4-0.1,0.7-0.3,0.8
		c-0.2,0.2-0.5,0.3-1,0.4l-1.8,0.3v1h9.3v-1L45.7,24.8z M8,15l4.4-11c1.3,3.7,2.6,7.4,3.8,11H8z M30.2,15l4.4-11
		c1.3,3.7,2.6,7.4,3.8,11H30.2z"/>
	<g>
		<g>
			<path class="st0" d="M46.8,7.6c3.9-3.5,9.6-4.2,14.3-1.8c3,1.6,5.2,4.2,6.2,7.4c0,0,0,0.1,0.1,0.1h0.1c1.3-2.8,1.5-6,0.5-9l0,0
				c-0.1-0.4-0.3-0.6-0.4-0.7l-0.2-0.2C63-0.5,56.5-1.1,51.6,2.1c-2.1,1.3-3.8,3.3-4.9,5.5v0.1C46.7,7.6,46.7,7.6,46.8,7.6z"/>
			<path class="st0" d="M59.5,26.4c-5-1.6-8.5-6.2-8.7-11.5c-0.1-3.3,1-6.5,3.3-9V5.8c0,0,0,0-0.1,0c-3.1,0.2-6,1.7-8,4l0,0
				c-0.3,0.3-0.4,0.6-0.4,0.7l-0.1,0.2c-1.2,5.7,1.6,11.7,6.8,14.4c2.2,1.2,4.7,1.7,7.2,1.5C59.5,26.6,59.5,26.6,59.5,26.4
				C59.5,26.5,59.5,26.4,59.5,26.4z"/>
			<path class="st0" d="M71.9,12.9c-0.1-2.5-0.9-4.9-2.4-7h-0.1c0,0-0.1,0.1,0,0.1c1.1,5.1-1.1,10.5-5.6,13.3
				c-2.8,1.8-6.2,2.4-9.5,1.7h-0.1v0.1c1.8,2.6,4.4,4.3,7.5,5l0,0c0.4,0.1,0.7,0.1,0.8,0l0.2-0.1C68.4,24.2,72.2,18.8,71.9,12.9z"/>
		</g>
	</g>
</g>
</svg>
