<?xml version="1.0" encoding="UTF-8"?>
<svg width="887px" height="801px" viewBox="0 0 887 801" version="1.1" xmlns="http://www.w3.org/2000/svg" xmlns:xlink="http://www.w3.org/1999/xlink">
    <!-- Generator: Sketch 50.2 (55047) - http://www.bohemiancoding.com/sketch -->
    <title>coverImage</title>
    <desc>Created with Sketch.</desc>
    <defs></defs>
    <g id="Page-1" stroke="none" stroke-width="1" fill="none" fill-rule="evenodd">
        <g id="coverImage" transform="translate(-1074.000000, -324.000000)">
            <g id="character_x5F_R" transform="translate(1095.000000, 403.000000)">
                <g id="Group" transform="translate(507.000000, 0.000000)">
                    <polygon id="Shape" fill="#0E1230" fill-rule="nonzero" points="172.76 97.64 187.75 111.77 183.04 180.29 131.65 175.58 89.69 185.43 75.98 155.88 93.11 109.63"></polygon>
                    <path d="M47.12,282.43 L51.06,295.94 L39.8,307.2 L33.61,356.19 C33.61,356.19 31.36,375.34 45.44,378.71 C59.52,382.08 65.15,367.45 65.15,367.45 C65.15,367.45 80.92,342.67 81.48,337.04 C82.04,331.41 77.54,299.88 77.54,299.88 L47.12,282.43 Z" id="Shape" fill="#EBB088" fill-rule="nonzero"></path>
                    <path d="M47.12,359.01 L33.61,353.38 L17.84,359.57 C17.84,359.57 3.76,375.9 1.51,377.03 C-0.74,378.16 0.95,389.42 0.95,389.42 L11.09,409.13 C11.09,409.13 42.62,420.39 47.69,420.96 C52.76,421.53 60.64,403.5 60.64,401.81 C60.64,400.12 60.64,396.18 60.64,396.18 L65.71,391.68 L64.58,364.09 C64.58,364.08 61.76,352.25 47.12,359.01 Z" id="Shape" fill="#EBB088" fill-rule="nonzero"></path>
                    <path d="M36.44,362.59 C36.44,362.59 43.37,364.9 44.36,368.53 C45.35,372.16 47.99,379.1 47.99,379.1 L59.55,384.71 C59.55,384.71 58.89,396.27 53.94,397.26 C48.99,398.25 36.77,390.99 36.77,390.99 L25.21,378.11" id="Shape" stroke="#A66B42" stroke-width="0.8781" stroke-linecap="round"></path>
                    <path d="M30.17,383.07 L18.61,398.92" id="Shape" stroke="#A66B42" stroke-width="0.8781" stroke-linecap="round"></path>
                    <path d="M38.75,392.31 L32.15,401.23" id="Shape" stroke="#A66B42" stroke-width="0.8781" stroke-linecap="round"></path>
                    <path d="M50.31,396.94 C50.31,396.94 43.38,405.53 41.72,406.52" id="Shape" stroke="#A66B42" stroke-width="0.8781" stroke-linecap="round"></path>
                    <polyline id="Shape" stroke="#A66B42" stroke-width="0.8781" stroke-linecap="round" points="53.61 374.15 46.02 358.3 33.61 353.38"></polyline>
                    <path d="M97.24,183.89 L57.26,190.65 L51.63,253.72 L39.8,279.62 C39.8,279.62 54.44,297.08 76.4,295.95 L97.24,183.89" id="Shape" fill="#E8DFDF" fill-rule="nonzero"></path>
                    <path d="M188.68,319.11 C188.03,322.36 185.43,380.12 176.35,385.96 C167.26,391.8 114.04,398.29 95.22,391.8 C76.4,385.31 69.91,382.06 69.91,382.06 L74.45,327.54 L102.36,337.28 L163.37,316.51 L188.68,319.11 Z" id="Shape" fill="#505AA3" fill-rule="nonzero"></path>
                    <polygon id="Shape" fill="#992407" fill-rule="nonzero" points="103.6 323.94 163.36 300.24 176.57 320.38 100.29 341.51 70.24 325.33 73.54 306.51"></polygon>
                    <path d="M120.24,380.8 C120.24,380.8 113.28,444.19 112.18,446.02 C111.08,447.85 109.25,450.78 109.62,454.08 C109.99,457.38 111.45,462.14 111.45,462.14 C111.45,462.14 99.36,495.85 79.94,491.82 C60.52,487.79 63.45,469.47 63.45,469.47 L70.78,380.44 C70.78,380.44 79.94,352.59 93.86,358.46 C107.78,364.31 120.24,380.8 120.24,380.8 Z" id="Shape" fill="#505AA3" fill-rule="nonzero"></path>
                    <path d="M81.43,564.48 L63.35,484.24 L79.93,491.81 L114.77,468.98 C114.77,468.98 124.94,503.45 124.38,505.71 C123.82,507.97 111.38,532.83 111.38,532.83 L110.25,568.99 L114.77,575.77 L114.2,579.73 C114.2,579.74 78.61,591.6 81.43,564.48 Z" id="Shape" fill="#992407" fill-rule="nonzero"></path>
                    <polygon id="Shape" fill="#E8DFDF" fill-rule="nonzero" points="111.44 462.14 83.13 485.94 62.79 471.81 63.35 484.24 80.87 501.19 114.77 468.99"></polygon>
                    <polygon id="Shape" fill="#300909" fill-rule="nonzero" points="114.77 575.78 112.51 592.73 107.99 593.86 88.78 615.9 50.35 624.38 28.32 617.03 20.41 607.99 23.23 598.38"></polygon>
                    <path d="M81.43,560.53 L67.3,576.35 L47.52,586.52 L35.65,588.78 L23.22,598.39 L32.26,608 L50.34,614.22 L87.07,606.31 L114.19,579.75 C114.2,579.74 101.77,553.18 81.43,560.53 Z" id="Shape" fill="#992407" fill-rule="nonzero"></path>
                    <path d="M117.31,376.4 L117.31,398.75 C117.31,398.75 140.66,456.71 143.25,460.6 C145.85,464.49 165.97,482.02 184.14,479.42 C202.31,476.82 204.26,450.86 204.26,450.86 L187.38,423.6 C187.38,423.6 180.24,361.29 173.1,358.04 C165.97,354.81 123.8,341.35 117.31,376.4 Z" id="Shape" fill="#505AA3" fill-rule="nonzero"></path>
                    <path d="M209.45,460.61 L212.05,469.7 C212.05,469.7 217.89,519.68 207.51,553.43 C207.51,553.43 203.62,571.6 192.58,570.95 C181.55,570.3 172.46,556.02 172.46,556.02 C172.46,556.02 162.07,519.67 152.34,506.69 L149.74,477.48 L183.49,483.97 L209.45,460.61 Z" id="Shape" fill="#992407" fill-rule="nonzero"></path>
                    <path d="M204.26,450.87 L196.47,465.15 L181.54,474.89 L143.24,460.61 L149.08,474.24 L149.73,477.49 L184.78,491.12 L198.41,476.84 C198.41,476.84 207.5,467.75 209.44,460.61 L204.26,450.87 Z" id="Shape" fill="#E8DFDF" fill-rule="nonzero"></path>
                    <path d="M265.28,597.56 C265.28,597.56 267.16,606.86 265.7,607.96 C264.24,609.06 244.45,620.78 244.45,620.78 C244.45,620.78 205.61,620.41 197.19,614.18 C188.76,607.95 176.31,593.66 172.64,591.1 C168.98,588.54 173.12,578.73 173.12,578.73 L265.28,597.56 Z" id="Shape" fill="#300909" fill-rule="nonzero"></path>
                    <path d="M207.51,553.42 L212.05,568.35 C212.05,568.35 221.14,580.41 234.5,584.99 C245.51,588.76 264.94,596.2 265.28,597.56 C265.93,600.16 243.86,610.54 243.86,610.54 L203.62,609.24 L173.11,578.73 C173.11,578.73 180.25,574.84 178.3,569.64 C176.35,564.45 172.46,556.01 172.46,556.01 C172.46,556.01 194.53,524.22 207.51,553.42 Z" id="Shape" fill="#992407" fill-rule="nonzero"></path>
                    <path d="M205.47,187.24 L165.78,180.84 L110.54,179.74 L75.42,187.6 C75.42,187.6 59.24,244.91 60.63,254.61 C62.02,264.32 71.72,310.99 71.72,310.99 L103.61,323.93 L176.63,295.28 L205.47,187.24" id="Shape" fill="#E8DFDF" fill-rule="nonzero"></path>
                    <path d="M104.09,138.81 C104.92,140.05 115.26,157.84 115.26,157.84 L109.47,187.21 L119.4,206.24 L150.84,178.11 L136.78,145.85 L104.09,138.81 Z" id="Shape" fill="#B07751" fill-rule="nonzero"></path>
                    <polygon id="Shape" fill="#CF310A" fill-rule="nonzero" points="144.74 183.44 120.24 204.24 109.47 187.21 97.13 203.32 116.08 226.42 154.44 191.76"></polygon>
                    <path d="M165.78,180.84 L152.13,193.15 L125.79,227.81 L122.09,319.78 C122.09,319.78 173.39,349.36 202.51,348.43 L213.6,295.28 L190.95,256 L205.28,185.75 L165.78,180.84" id="Shape" fill="#9E7267" fill-rule="nonzero"></path>
                    <polygon id="Shape" fill="#9E7267" fill-rule="nonzero" points="110.54 179.75 109.47 187.21 83.27 225.5 98.06 318.39 74.03 339.19 67.09 339.19 69.87 331.79 51.84 241.21 66.63 212.1 91.59 182.06"></polygon>
                    <path d="M153.28,295.31 C153.28,295.31 162.06,290.39 162.71,295.31 C163.36,300.23 151.83,312.35 151.83,312.35 C151.83,312.35 136.93,294.79 140.59,292.41 C148.93,286.97 153.28,295.31 153.28,295.31 Z" id="Shape" fill="#CF0A2C" fill-rule="nonzero"></path>
                    <g transform="translate(55.000000, 227.000000)" stroke="#E8DFDF">
                        <path d="M12.57,2.92 L6.4,19.6" id="Shape" stroke-width="0.8781"></path>
                        <polyline id="Shape" stroke-width="0.8781" points="2.86 14.54 9.11 12.62 12.48 19.25"></polyline>
                        <ellipse id="Oval" stroke-width="0.832275031" transform="translate(9.779020, 11.501760) rotate(-72.181111) translate(-9.779020, -11.501760) " cx="9.77902" cy="11.50176" rx="9.3897183" ry="7.199784"></ellipse>
                    </g>
                    <ellipse id="Oval" fill="#CF310A" fill-rule="nonzero" cx="66.33" cy="293.45" rx="8.76" ry="10.95"></ellipse>
                    <ellipse id="Oval" fill="#1D2561" fill-rule="nonzero" cx="65.82" cy="293.85" rx="4.05" ry="4.64"></ellipse>
                    <ellipse id="Oval" fill="#FFEF85" fill-rule="nonzero" cx="75.76" cy="259.12" rx="8.1" ry="8.03"></ellipse>
                    <g transform="translate(129.000000, 220.000000)" fill="#4356E0" fill-rule="nonzero" id="Shape">
                        <path d="M26.46,9.43 C26.46,9.43 40.17,27.64 18.37,38.21 C18.37,38.21 43.41,38.08 38.38,15.95 C38.37,15.95 34.32,10.78 26.46,9.43 Z"></path>
                        <path d="M6.76,17.92 C6.76,17.92 18.9,-1.41 38.24,13.19 C38.24,13.19 23.74,-10.25 5.53,5.54 C5.54,5.54 4.38,10.3 6.76,17.92 Z"></path>
                        <path d="M25.93,30.07 C25.93,30.07 3.45,32.46 3.66,8.23 C3.66,8.23 -7.56,29.9 14.8,37.86 C14.8,37.85 21.23,36.52 25.93,30.07 Z"></path>
                    </g>
                    <path d="M202.04,308.69 L196.96,313.77 L171.08,359.52 C171.08,359.52 171.54,378.93 194.65,377.08 C217.76,375.23 230.24,340.11 230.24,340.11 L245.95,302.21 C245.95,302.22 220.07,274.95 202.04,308.69 Z" id="Shape" fill="#EBB088" fill-rule="nonzero"></path>
                    <path d="M171.08,359.52 L153.98,362.76 L141.5,371.54 L137.34,392.34 L140.11,395.11 L136.87,399.27 L139.18,406.66 L144.73,409.43 L154.9,417.75 L161.37,424.22 L176.62,428.38 L196.03,413.13 C196.03,413.13 195.11,380.78 194.64,377.08 C194.19,373.39 197.42,348.89 171.08,359.52 Z" id="Shape" fill="#EBB088" fill-rule="nonzero"></path>
                    <polyline id="Shape" stroke="#A66B42" stroke-width="0.8781" stroke-linecap="round" points="158.54 372.42 144.28 383.2 140.11 395.11"></polyline>
                    <path d="M151.93,404.42 L144.74,409.44" id="Shape" stroke="#A66B42" stroke-width="0.8781" stroke-linecap="round"></path>
                    <path d="M164.1,411.38 L154.9,417.76" id="Shape" stroke="#A66B42" stroke-width="0.8781" stroke-linecap="round"></path>
                    <path d="M177.67,416.6 L161.37,424.23" id="Shape" stroke="#A66B42" stroke-width="0.8781" stroke-linecap="round"></path>
                    <polygon id="Shape" fill="#E8DFDF" fill-rule="nonzero" points="188.64 183.44 174.31 200.54 181.25 253.69 202.97 296.67 202.04 308.69 245.95 302.22 240.86 254.15 223.3 217.64 225.15 191.3"></polygon>
                    <path d="M274.98,248.69 L277.36,223.14 C277.36,223.14 270.89,209.17 254.88,208.83 C238.87,208.49 232.4,222.8 232.4,222.8 L232.4,248.35 L274.98,248.69 Z" id="Shape" fill="#505AA3" fill-rule="nonzero"></path>
                    <path d="M327.22,422.63 C327.22,422.63 259.12,434.77 235.52,428.7 C211.92,422.63 154.6,401.05 154.6,401.05 L236.19,383.52 L327.22,422.63 Z" id="Shape" fill="#300909" fill-rule="nonzero"></path>
                    <path d="M230.79,246.64 C230.79,246.64 227.42,250.01 226.07,256.75 C224.72,263.49 211.91,325.53 211.91,325.53 L154.59,401.05 L237.53,399.03 L308.33,414.54 L327.21,422.63 L285.4,335.65 L291.47,258.11 C291.48,258.1 254.39,231.13 230.79,246.64 Z" id="Shape" fill="#CF310A" fill-rule="nonzero"></path>
                    <polygon id="Shape" fill="#505AA3" fill-rule="nonzero" points="259.11 404.43 249 439.49 220.68 438.14 213.26 400.38 237.53 399.03"></polygon>
                    <path d="M334.26,279.01 C334.26,279.01 333.92,281.05 330.17,278.67 C326.42,276.29 322.33,273.56 322.33,273.56 C322.33,273.56 321.99,277.65 319.26,276.63 C316.53,275.61 309.72,269.82 309.72,269.82 C309.72,269.82 309.72,278 306.99,276.97 C304.26,275.95 295.07,271.52 295.07,271.52 C295.07,271.52 295.41,281.74 292.69,281.06 C289.96,280.38 268.54,269.57 268.54,269.57 L274.97,245.29 L300.18,238.82 L323.35,260.28 L334.26,279.01 Z" id="Shape" fill="#E8DFDF" fill-rule="nonzero"></path>
                    <path d="M269.23,245.29 L268.56,269.56 C268.56,269.56 273.7,265.36 276.11,258.32 C278.52,251.29 279.26,260.36 279.26,260.36 C279.26,260.36 281.3,267.58 286.85,261.29 C292.4,255 294.07,249.81 294.81,251.48 C295.55,253.15 291.85,259.62 295.92,260.37 C299.99,261.11 301.1,260.56 303.51,258.89 C305.92,257.22 305.92,257.22 305.92,257.22 C305.92,257.22 307.96,256.11 309.07,258.7 C310.18,261.29 310.37,265.92 311.11,265.73 C311.85,265.54 311.85,265.54 311.85,265.54 L319.07,235.18 C319.07,235.18 312.41,228.7 310,228.15 C307.59,227.59 298.52,227.59 295.93,228.52 C293.32,229.45 269.23,245.29 269.23,245.29 Z" id="Shape" fill="#9FA2B5" fill-rule="nonzero"></path>
                    <polygon id="Shape" fill="#5F658C" fill-rule="nonzero" points="319.05 235.19 337.67 249.03 334.26 279.01 311.83 265.55"></polygon>
                    <polyline id="Shape" stroke="#E8DFDF" stroke-width="0.8781" stroke-linecap="round" points="253.39 273.59 243.52 329.64 238.79 394.37"></polyline>
                    <path d="M248.9,260.46 C248.16,260.46 228.96,268.02 228.96,268.02" id="Shape" stroke="#E8DFDF" stroke-width="0.8781" stroke-linecap="round"></path>
                    <path d="M246.92,269.39 L229.23,274.88" id="Shape" stroke="#E8DFDF" stroke-width="0.8781" stroke-linecap="round"></path>
                    <path d="M245.68,276.84 L230.57,281.32" id="Shape" stroke="#E8DFDF" stroke-width="0.8781" stroke-linecap="round"></path>
                    <path d="M242.7,286.02 L231.29,288.5" id="Shape" stroke="#E8DFDF" stroke-width="0.8781" stroke-linecap="round"></path>
                    <path d="M128.86,37.1 L122.52,45.5 L98.99,47.28 C98.99,47.28 87.15,60.54 87.63,62.91 C88.1,65.28 88.99,84.01 88.99,84.01 L97.58,136.78 C97.58,136.78 142.25,157.23 154.87,152.88 C162.07,150.4 180.91,125.42 180.91,125.42 L181.38,81.38 L145.26,43.23 L128.86,37.1 Z" id="Shape" fill="#EBB088" fill-rule="nonzero"></path>
                    <path d="M133.19,65.7 L148.62,97.12 C148.62,97.12 142.45,100.77 136.56,100.77" id="Shape" stroke="#A66B42" stroke-width="0.8781" stroke-linecap="round"></path>
                    <path d="M123.1,46.41 C123.1,46.41 109.02,23.79 106.03,22.94 C103.04,22.09 74.88,16.97 71.89,19.1 C68.9,21.23 53.54,75.86 53.54,75.86 C53.54,75.86 68.48,97.2 68.48,99.33 C68.48,101.46 61.65,158.22 57.81,162.92 L74.88,185.54 L66.35,206.45 L65.07,225.23 L72.75,226.08 L103.9,182.55 L89.82,159.51 L97.57,136.79 L95.36,88.25 L87.62,62.93 L98.98,47.3 L123.1,46.41 Z" id="Shape" fill="#1D2561" fill-rule="nonzero"></path>
                    <path d="M97.93,21.66 L97.08,13.13 L119.7,0.33 L165.36,23.37 L164.93,37.45 C164.93,37.45 192.67,54.52 193.95,56.65 C195.23,58.78 201.63,97.62 199.5,110.42 L215.29,130.9 C215.29,130.9 216.57,166.32 205.47,187.23 L165.78,180.83 L128.65,228.2 L133.34,211.13 L130.35,203.45 L140.59,189.79 L137.18,170.59 C137.18,170.59 147.42,159.07 149.98,159.07 C152.54,159.07 170.89,162.06 170.89,162.06 L171.74,140.72 L182.41,129.2 L180.9,125.41 L181.37,81.37 L145.28,45.12 L129.28,38.75 L123.09,46.4 L97.93,21.66 Z" id="Shape" fill="#1D2561" fill-rule="nonzero"></path>
                    <polyline id="Shape" stroke="#99A2DE" stroke-width="0.8781" stroke-linecap="round" points="121.93 42.5 107.17 22.48 99.66 20.48"></polyline>
                    <circle id="Oval" fill="#0B131F" fill-rule="nonzero" cx="160.03" cy="68.65" r="21.09"></circle>
                    <path d="M153.72,48.51 C160.12,53.84 175.06,66.28 180.97,71.18 C180.31,76.65 177.57,81.48 173.55,84.83 L142.48,56.93 C145.13,52.98 149.08,49.97 153.72,48.51 Z" id="Shape" fill="#E8DFDF" fill-rule="nonzero"></path>
                    <circle id="Oval" fill="#0B131F" fill-rule="nonzero" cx="108.74" cy="80.52" r="21.09"></circle>
                    <path d="M120.11,98.29 L88.68,73.98 C89.83,70.44 91.9,67.31 94.6,64.87 C100.81,69.57 122.17,85.74 127.61,89.95 C125.91,93.36 123.3,96.24 120.11,98.29 Z" id="Shape" fill="#E8DFDF" fill-rule="nonzero"></path>
                    <path d="M142.64,63.23 C142.64,63.23 137.13,53.59 129.56,54.62 C121.99,55.65 120.44,64.77 120.44,64.77" id="Shape" stroke="#0B131F" stroke-width="0.8781"></path>
                    <path d="M167.98,107.23 C167.98,107.23 158.72,112 156.76,112 C154.8,112 142.45,108.91 138.24,109.76 C134.03,110.6 114.67,115.37 109.06,113.97 C103.45,112.57 103.73,110.04 103.73,110.04 L101.77,112.85 L108.22,121.55 L117.76,124.92 C117.76,124.92 155.36,122.39 157.04,122.39 L167.98,107.23 Z" id="Shape" fill="#300909" fill-rule="nonzero"></path>
                    <path d="M156.07,122.42 C149.87,122.75 117.76,124.9 117.76,124.9 L108.22,121.53 L101.77,112.83 L103.73,110.02 C103.73,110.02 103.45,112.55 109.06,113.95 C114.67,115.35 134.03,110.58 138.24,109.74 C141.95,109 151.96,111.3 155.64,111.86 L156.07,122.42 Z" id="Shape" fill="#FFFFFF" fill-rule="nonzero"></path>
                    <path d="M106.89,108.02 C106.89,108.02 101.95,112.45 100.08,112.45" id="Shape" stroke="#300909" stroke-width="0.8781" stroke-linecap="round"></path>
                </g>
                <g id="Group" transform="translate(287.000000, 69.000000)">
                    <path d="M40.12,90.68 L22.37,110.9 C18.11,115.76 18.58,123.14 23.42,127.42 L25.61,129.36 L59.78,138.38 L91.37,134.51 L201.6,95.51 L235.12,83.91 L263.65,56.9 C268.21,52.58 269.01,45.6 265.54,40.36 L254.46,23.64 L230.29,13.33 L149.39,62.65 L40.12,90.68 Z" id="Shape" fill="#591504" fill-rule="nonzero"></path>
                    <path d="M98.22,127.86 L86.74,138.63 C85.25,140.03 84.77,142.19 85.52,144.09 L89.11,153.13 C89.97,155.29 88.52,157.67 86.2,157.9 L75.85,158.92 C74.41,159.06 73.21,160.07 72.82,161.46 L71.11,167.59 C70.47,169.87 71.35,172.29 73.29,173.65 L79.34,177.87 C79.41,177.92 79.47,177.96 79.54,178 C82.39,179.7 142.86,215.14 177.03,188.75 C208.38,164.54 204.57,139.86 203.43,134.99 C203.29,134.4 203.3,133.78 203.48,133.2 L205.88,125.21 C206.32,123.74 205.75,122.16 204.48,121.3 L189.61,111.31 C188.84,110.8 187.9,110.6 187,110.78 L98.22,127.86" id="Shape" fill="#0B131F" fill-rule="nonzero"></path>
                    <path d="M144.78,462.11 C144.4,460.6 251.48,458.21 251.48,458.21 L245.11,351.44 L219.64,318.63 L126.77,368.63 L144.78,462.11" id="Shape" fill="#541404" fill-rule="nonzero"></path>
                    <polygon id="Shape" fill="#751C05" fill-rule="nonzero" points="172.33 459.76 172.33 470.88 182.24 474.48 190.35 458.26"></polygon>
                    <path d="M71.06,537.43 C66.46,536.92 61.62,546.48 60.24,558.8 C58.87,571.11 61.48,581.51 66.08,582.03 C70.68,582.54 75.52,572.98 76.9,560.66 C78.28,548.34 75.66,537.94 71.06,537.43 Z M73.24,560.05 C72.44,567.23 69.61,572.81 66.93,572.51 C64.25,572.21 62.72,566.15 63.52,558.97 C64.32,551.79 67.15,546.21 69.83,546.51 C72.51,546.8 74.04,552.86 73.24,560.05 Z" id="Shape" fill="#4356E0" fill-rule="nonzero"></path>
                    <path d="M184.94,523.83 C176.53,523.83 169.7,532.14 169.7,542.38 C169.7,552.63 176.52,560.93 184.94,560.93 C193.35,560.93 200.18,552.62 200.18,542.38 C200.18,532.13 193.36,523.83 184.94,523.83 Z M185.31,552.71 C180.77,552.71 177.08,548.17 177.08,542.57 C177.08,536.97 180.76,532.43 185.31,532.43 C189.86,532.43 193.54,536.97 193.54,542.57 C193.54,548.17 189.86,552.71 185.31,552.71 Z" id="Shape" fill="#4356E0" fill-rule="nonzero"></path>
                    <path d="M218.69,311.86 C218.69,311.86 229.7,345.96 229.7,362.3 C229.7,378.1 204.4,385.96 179.71,385.11 C121.25,383.09 99.74,395.19 97.05,375.03 C94.36,354.87 84.72,314.45 84.72,314.45 L218.69,311.86 Z" id="Shape" fill="#1D2561" fill-rule="nonzero"></path>
                    <path d="M226.7,285.22 C226.7,285.22 226.06,307.7 223.49,312.2 C220.92,316.7 194.9,323.76 187.19,323.76 C179.48,323.76 84.73,314.45 84.73,314.45 L92.44,283.29 C92.43,283.29 171.13,298.39 226.7,285.22 Z" id="Shape" fill="#FFE74C" fill-rule="nonzero"></path>
                    <path d="M185.09,377.72 L159.66,467.68 C159.66,467.68 148.13,498.01 119.9,489.95 C91.68,481.89 80.92,467.77 80.92,467.77 L84.95,364.28 C84.96,364.28 163.59,327.99 185.09,377.72 Z" id="Shape" fill="#1D2561" fill-rule="nonzero"></path>
                    <path d="M154.64,485.91 L142.54,494.98 L79.41,477.97 L88.48,550.55 C88.48,550.55 88.86,570.96 110.41,569.45 C131.96,567.94 131.96,551.68 131.96,551.68 L154.64,485.91 Z" id="Shape" fill="#0B131F" fill-rule="nonzero"></path>
                    <polygon id="Shape" fill="#E8DFDF" fill-rule="nonzero" points="142.55 494.98 154.64 485.91 157.58 468 143.89 475.74 85.55 463.83 92.7 485.06"></polygon>
                    <path d="M73.71,572.7 C73.71,572.7 72.11,587.15 73.33,589.29 C74.55,591.42 117.5,620.36 120.24,620.97 C122.98,621.58 165.93,610 166.54,608.48 C167.15,606.96 166.54,599.34 166.54,599.34 L73.71,572.7 Z" id="Shape" fill="#2D4D80" fill-rule="nonzero"></path>
                    <path d="M131,548.54 L143.77,579.25 L165.86,597.54 C165.86,597.54 167.59,599.96 166.55,602.37 C165.51,604.78 124.79,615.83 121,614.1 C117.21,612.37 89.25,596.16 89.25,596.16 L87.18,584.08 L73.72,572.69 C73.72,572.69 79.93,551.64 89.25,552.67 C98.56,553.72 103.05,523 131,548.54 Z" id="Shape" fill="#0B131F" fill-rule="nonzero"></path>
                    <polygon id="Shape" fill="#FFE74C" fill-rule="nonzero" points="66.7 561.42 74.35 580.97 82.56 558.31"></polygon>
                    <path d="M219.11,316.33 C219.11,316.33 245.14,391.96 243.29,414.89 C241.43,437.83 242.05,448.36 242.05,448.36 C242.05,448.36 204.86,462 185.64,440.92 L176.96,395.05 C176.96,395.05 171.38,350.42 185.02,341.74 C198.66,333.06 219.11,316.33 219.11,316.33 Z" id="Shape" fill="#1D2561" fill-rule="nonzero"></path>
                    <path d="M186.24,447.81 C186.24,447.81 183.79,462.07 186.24,469.41 C188.69,476.75 198.06,508.13 211.51,521.98 C224.96,535.84 255.12,540.32 257.56,519.13 L241.67,455.96 L186.24,447.81 Z" id="Shape" fill="#0B131F" fill-rule="nonzero"></path>
                    <polygon id="Shape" fill="#E8DFDF" fill-rule="nonzero" points="185.64 440.92 241.26 447 243.3 459.63 185.02 450.67"></polygon>
                    <path d="M204.17,549.3 L209.19,562.78 L236.61,562.48 L253.67,567.05 C253.67,567.05 292.97,569.49 301.8,567.35 C310.63,565.21 318.86,561.56 318.86,561.56 L319.11,555.41 L247.58,555.47 L231.13,544.81 L204.17,549.3 Z" id="Shape" fill="#2D4D80" fill-rule="nonzero"></path>
                    <path d="M211.51,521.99 C211.51,521.99 202.14,536.25 202.54,540.74 C202.95,545.22 204.17,549.3 204.17,549.3 L231.88,550.12 L235.96,555.42 L252.67,561.53 L300.76,561.94 C300.76,561.94 319.51,558.27 319.1,555.42 C318.69,552.57 299.54,547.68 299.54,547.68 L255.52,517.52 C255.53,517.51 234.74,500.8 211.51,521.99 Z" id="Shape" fill="#0B131F" fill-rule="nonzero"></path>
                    <polygon id="Shape" fill="#FFE74C" fill-rule="nonzero" points="216.82 536.5 184.24 543.86 216.25 552.08"></polygon>
                    <path d="M184.67,146.71 L203.48,133.21 L233.88,132.13 L261.01,113.44 C261.01,113.44 312.26,100.18 312.26,121.28 C312.26,142.38 307.44,142.38 307.44,142.38 L225.41,202.84 L180.22,148.41 L184.67,146.71 Z" id="Shape" fill="#E8DFDF" fill-rule="nonzero"></path>
                    <path d="M250.16,105.59 C250.16,105.59 276.69,134.53 289.95,136.94 C303.21,139.35 321.91,117.65 321.91,117.65 L305.03,64.59 L304.95,63.77 C304.86,63.63 304.81,63.55 304.81,63.55 C304.81,63.55 295.08,51.45 290.09,52.39 C285.11,53.34 279.8,66.24 279.8,66.24 C279.8,66.24 251.72,104.99 250.16,105.59 Z" id="Shape" fill="#2B3BAD" fill-rule="nonzero"></path>
                    <path d="M293.41,72.33 C301.72,71.86 304.8,63.55 304.8,63.55 C304.8,63.55 304.85,63.63 304.94,63.77 L302.01,33.85 C302.01,33.85 271.86,3.7 269.45,1.29 C267.04,-1.12 247.14,4.91 247.14,4.91 C247.14,4.91 236.89,14.56 238.1,16.97 C239.31,19.38 247.73,20.6 247.73,20.6 C247.73,20.6 244.01,23.62 247.5,27.57 C247.5,27.57 247.04,31.29 249.59,32.22 C249.59,32.22 240.99,28.73 238.9,30.59 C236.81,32.45 233.79,35.7 236.11,37.8 C238.43,39.89 245.87,38.5 247.97,40.59 L249.43,44.37 L259.28,47.65 L266.12,47.1 L268.04,57.77 L279.8,66.25 C279.79,66.25 288.34,72.62 293.41,72.33 Z" id="Shape" fill="#2B3BAD" fill-rule="nonzero"></path>
                    <path d="M247.73,20.59 L260.83,10.31" id="Shape" stroke="#181E4F" stroke-width="0.988" stroke-linecap="round"></path>
                    <path d="M247.5,27.56 L260.23,18.32" id="Shape" stroke="#181E4F" stroke-width="0.988" stroke-linecap="round"></path>
                    <path d="M249.59,32.21 L257.43,26.73" id="Shape" stroke="#181E4F" stroke-width="0.988" stroke-linecap="round"></path>
                    <polyline id="Shape" stroke="#181E4F" stroke-width="0.988" stroke-linecap="round" points="255.43 37.35 264.04 37.95 266.11 47.1"></polyline>
                    <path d="M248.42,32.34 L247.96,40.58" id="Shape" stroke="#181E4F" stroke-width="0.988" stroke-linecap="round"></path>
                    <path d="M115.91,165.97 L139.04,286.67 C139.04,286.67 198.31,302.21 224.69,281.25 L225.41,202.83 L177.35,151.15 L115.91,165.97 Z" id="Shape" fill="#E8DFDF" fill-rule="nonzero"></path>
                    <polygon id="Shape" fill="#964B33" fill-rule="nonzero" points="131.84 141.85 132.63 161.16 173.22 176.13 175.98 156.43 173.62 141.45"></polygon>
                    <polygon id="Shape" fill="#4356E0" fill-rule="nonzero" points="133.86 158.75 125.13 162.39 169.52 195.74 173.64 175 186.86 188.35 191.84 177.55 175.46 150.99 173.28 173.91"></polygon>
                    <polygon id="Shape" fill="#CF310A" fill-rule="nonzero" points="84.84 174.64 115.91 165.97 165.58 216.71 166.07 304.7 76.62 297.45 91.13 226.38 84.36 193.98"></polygon>
                    <path d="M175.46,150.99 L219.61,205.21 L215.79,297.83 L238.35,288.36 C238.35,288.36 239.7,215.28 232.94,191.37 L184.67,146.71 L175.46,150.99 Z" id="Shape" fill="#CF310A" fill-rule="nonzero"></path>
                    <path d="M144.21,200.39 C143.63,201.26 130.62,240.01 130.62,240.01 L146.53,242.61 L148.55,235.96 L151.73,243.48 L163.59,234.51 L144.21,200.39 Z M144.21,228.44 L146.81,219.76 L150.86,228.44 L144.21,228.44 Z" id="Shape" fill="#FFE74C" fill-rule="nonzero"></path>
                    <ellipse id="Oval" fill="#FFF5F5" fill-rule="nonzero" transform="translate(194.525912, 303.277802) rotate(-78.988960) translate(-194.525912, -303.277802) " cx="194.525912" cy="303.277802" rx="26.2302565" ry="22.7902229"></ellipse>
                    <g transform="translate(174.000000, 281.000000)" fill="#4356E0" fill-rule="nonzero" id="Shape">
                        <path d="M14.58,10.71 C14.58,10.71 -1.22,31.19 19.94,44.66 C19.94,44.66 -5.56,43.18 1.79,17.68 C1.79,17.68 6.43,11.87 14.58,10.71 Z"></path>
                        <path d="M33.79,21.65 C33.79,21.65 23.36,-1.51 2.19,14.47 C2.19,14.47 19.32,-12.06 36.28,7.29 C36.28,7.29 36.98,12.9 33.79,21.65 Z"></path>
                        <path d="M13.04,34.78 C13.04,34.78 35.7,38.75 37.92,10.52 C37.92,10.52 47.18,36.36 23.59,44.44 C23.6,44.44 17.18,42.54 13.04,34.78 Z"></path>
                    </g>
                    <path d="M81.63,315.69 L35.08,450.09 C35.08,450.09 58.53,496.26 89.31,493.33 C120.09,490.4 128.88,472.81 128.88,472.81 L145.47,461.85 L160.15,438.24 L164.72,321.86 L81.63,315.69 Z" id="Shape" fill="#CF310A" fill-rule="nonzero"></path>
                    <path d="M219.11,316.33 L223.48,312.2 L265.9,366.48 C265.9,366.48 271.43,414.28 258.39,454.58 L246.93,465.64 C246.94,465.64 258.84,410.37 219.11,316.33 Z" id="Shape" fill="#CF310A" fill-rule="nonzero"></path>
                    <polygon id="Shape" fill="#751C05" fill-rule="nonzero" points="41.87 460.66 36.48 470.46 41.38 478.29 49.71 471.43"></polygon>
                    <path d="M63.28,484.38 L62.75,497.46 L70.88,501 L78.48,492.16 C78.48,492.15 65.75,487.38 63.28,484.38 Z" id="Shape" fill="#751C05" fill-rule="nonzero"></path>
                    <path d="M97.4,492.33 L102.88,500.99 L113.66,496.39 L113.13,486.49 C113.13,486.5 101.82,491.98 97.4,492.33 Z" id="Shape" fill="#751C05" fill-rule="nonzero"></path>
                    <polyline id="Shape" fill="#751C05" fill-rule="nonzero" points="126.22 476.42 126.22 476.42 132.94 482.25 140.36 475.54 140.01 465.46 126.22 476.42"></polyline>
                    <polygon id="Shape" fill="#751C05" fill-rule="nonzero" points="41.71 430.63 33.93 433.99 32.69 443.71 36.94 444.6"></polygon>
                    <polygon id="Shape" fill="#751C05" fill-rule="nonzero" points="249.84 462.47 254.35 470.88 259.15 466.97 258.4 454.58"></polygon>
                    <polygon id="Shape" fill="#751C05" fill-rule="nonzero" points="260.35 446.24 270.87 451.65 274.77 444.44 264.56 429.12"></polygon>
                    <path d="M83.17,176.03 L7.83,259.03 C7.83,259.03 12.34,284.29 64.22,259.93 C116.1,235.57 106.62,237.37 106.62,237.37 C106.62,237.37 113.85,191.82 83.17,176.03 Z" id="Shape" fill="#E8DFDF" fill-rule="nonzero"></path>
                    <path d="M0.87,303.38 C0.87,303.38 19.51,277.94 41.56,269.52 C63.61,261.1 39.16,299.95 0.87,303.38 Z" id="Shape" fill="#1D2561" fill-rule="nonzero"></path>
                    <path d="M10.99,258.13 C10.99,258.13 27.23,302.34 42.12,313.17 C57.01,324 88.58,283.4 88.58,283.4 L50.69,245.06 C50.69,245.05 23.62,235.12 10.99,258.13 Z" id="Shape" fill="#E8DFDF" fill-rule="nonzero"></path>
                    <path d="M0.87,303.38 C0.87,303.38 27.96,303.38 66.56,262.91 L117,308.05 C117,308.05 117.62,337 85.24,332.65 C85.24,332.65 20.79,331.09 0.87,303.38 Z" id="Shape" fill="#2B3BAD" fill-rule="nonzero"></path>
                    <path d="M92.37,368.88 C92.37,368.88 55.37,439.05 88.12,458.19 L104.28,465.42 L132.35,449.68 L166.37,381.63 L171.9,405.02 C171.9,405.02 158.93,448.84 146.14,460.84 C129.18,476.74 119.49,483.25 93.64,480.3 C61.4,476.62 58.77,453.51 58.34,446.7 C57.91,439.9 72.95,371.95 88.69,362.17 L92.37,368.88 Z" id="Shape" fill="#FF9F45" fill-rule="nonzero"></path>
                    <g transform="translate(58.000000, 362.000000)" id="Shape">
                        <path d="M108.38,19.64 L74.36,87.69 L46.29,103.43 L30.13,96.2 C16.99,88.52 15.08,72.62 17.51,56.33 C17.13,56.39 16.73,56.42 16.32,56.42 C13.72,56.42 10.81,55.39 10.37,55.23 L11.05,53.37 C12.94,54.06 16.31,54.83 17.85,54.2 C21.89,30.59 34.39,6.88 34.39,6.88 L30.71,0.18 C14.97,9.96 -0.06,77.9 0.36,84.71 C0.79,91.51 3.42,114.63 35.66,118.31 C61.51,121.26 71.2,114.75 88.16,98.85 C100.95,86.86 113.92,43.03 113.92,43.03 L108.38,19.64 Z"></path>
                        <path d="M11.04,53.37 L10.36,55.23 C10.8,55.39 13.71,56.42 16.31,56.42 C16.72,56.42 17.11,56.38 17.5,56.33 C17.61,55.62 17.72,54.92 17.84,54.21 C16.3,54.83 12.93,54.06 11.04,53.37 Z" fill="#B04423" fill-rule="nonzero"></path>
                    </g>
                    <path d="M89.4,364.62 C89.4,364.62 49.85,423.31 81.32,459.04 C81.32,459.04 56.23,458.19 56.23,425.02 C56.23,391.85 88.13,354.85 88.13,354.85 L89.4,364.62 Z" id="Shape" fill="#FFBE45" fill-rule="nonzero"></path>
                    <g transform="translate(56.000000, 354.000000)" id="Shape">
                        <path d="M14.14,84.16 C12.76,80.72 7.63,82.24 7.58,82.25 L7,80.36 C8.73,79.83 11.79,79.54 13.97,80.96 C11.89,68.69 14,55.87 17.5,44.59 C12.73,44.11 10.77,38.6 10.68,38.35 L12.55,37.71 C12.57,37.76 14.3,42.62 18.11,42.66 C24.1,24.39 33.39,10.62 33.39,10.62 L32.11,0.84 C32.11,0.84 0.21,37.84 0.21,71.01 C0.21,104.18 25.3,105.03 25.3,105.03 C19.63,98.6 16.28,91.42 14.57,83.97 L14.14,84.16 Z"></path>
                        <path d="M12.56,37.72 L10.69,38.36 C10.77,38.61 12.73,44.12 17.51,44.6 C17.71,43.95 17.92,43.31 18.12,42.67 C14.31,42.62 12.57,37.77 12.56,37.72 Z" fill="#B04423" fill-rule="nonzero"></path>
                        <path d="M7.01,80.37 L7.59,82.26 C7.64,82.25 12.77,80.72 14.15,84.17 L14.6,83.99 C14.37,82.99 14.16,81.98 13.99,80.97 C11.8,79.55 8.73,79.84 7.01,80.37 Z" fill="#B04423" fill-rule="nonzero"></path>
                    </g>
                    <path d="M133.8,324.8 C133.8,324.8 157.87,323.79 167.65,347.18 C177.43,370.57 182.54,388.01 169.35,443.3 C156.16,498.59 169.35,496.46 169.35,496.46 C169.35,496.46 164.25,501.99 158.72,500.71 C153.19,499.43 149.36,468.39 155.74,446.7 C162.12,425.01 165.97,409.18 165.54,386.64 C165.11,364.1 133.8,324.8 133.8,324.8 Z" id="Shape" fill="#FFBE45" fill-rule="nonzero"></path>
                    <g transform="translate(58.000000, 362.000000)" id="Shape">
                        <path d="M108.38,19.64 L74.36,87.69 L46.29,103.43 L30.13,96.2 C-2.62,77.06 34.38,6.89 34.38,6.89 L30.7,0.19 C14.96,9.97 -0.07,77.91 0.35,84.72 C0.77,91.52 3.41,114.58 35.53,118.3 C33.31,115.82 31.96,112 31.77,111.43 L33.64,110.8 C34.26,112.63 36.4,117.55 38.85,118.37 L38.76,118.63 C61.33,120.62 71.08,114.63 86.17,100.69 C85.14,100.9 84.18,101 83.32,101 C76.25,101 74.47,94.71 74.45,94.63 L75.4,94.37 L76.35,94.11 C76.35,94.11 76.35,94.11 76.35,94.11 C76.43,94.4 78.28,100.63 86.41,98.6 L86.79,100.11 C87.24,99.69 87.69,99.27 88.15,98.84 C100.94,86.85 113.91,43.02 113.91,43.02 L108.38,19.64 Z"></path>
                        <path d="M33.64,110.79 L31.77,111.42 C31.96,111.99 33.31,115.81 35.53,118.29 C35.57,118.29 35.61,118.3 35.65,118.31 C36.72,118.43 37.75,118.53 38.76,118.62 L38.85,118.36 C36.4,117.54 34.25,112.61 33.64,110.79 Z" fill="#B04423" fill-rule="nonzero"></path>
                        <path d="" stroke="#B04423" stroke-linecap="round" stroke-linejoin="round"></path>
                        <path d="M76.28,93.56 C76.28,93.56 76.26,93.26 76.22,93.17 L75.13,94.01 L74.14,94.76 C74.16,94.83 76.26,101 83.32,101 C84.19,101 85.14,100.9 86.17,100.69 C86.37,100.5 86.58,100.31 86.79,100.12 L87.98,99.05 C79.85,101.07 76.36,93.85 76.28,93.56 Z" fill="#B04423" fill-rule="nonzero"></path>
                    </g>
                    <g transform="translate(133.000000, 324.000000)" id="Shape">
                        <path d="M38.78,108.58 C41.13,97.59 42.66,88.25 43.49,80.13 C43.2,79.47 42.75,78.98 42.11,78.63 C39.51,77.23 34.55,78.55 32.85,79.18 L32.17,77.35 C31.43,87.52 29.71,96.74 27.22,106.59 C29.82,106.29 35.99,105.92 38.78,108.58 Z"></path>
                        <path d="M23.89,153.47 C21.93,153.03 20.44,151.88 19.45,150.86 C19.72,164.55 22.42,175.96 25.72,176.72 C31.25,178 36.35,172.47 36.35,172.47 C36.35,172.47 29.19,173.62 30.7,152.07 C28.96,152.97 26.93,153.66 25.55,153.66 C25,153.65 24.44,153.59 23.89,153.47 Z"></path>
                        <path d="M43.05,76.9 C43.31,77.04 43.53,77.21 43.76,77.38 C45.91,52.59 41.39,39.3 34.66,23.19 C24.88,-0.2 0.81,0.81 0.81,0.81 C0.81,0.81 32.13,40.11 32.56,62.66 C32.66,67.86 32.52,72.69 32.18,77.33 C32.51,77.2 39.15,74.79 43.05,76.9 Z"></path>
                        <path d="M38.19,111.26 L38.12,111.28 C37.36,107.87 29.65,108.23 26.68,108.65 C25.51,113.13 24.19,117.76 22.74,122.71 C20.45,130.49 19.48,139.47 19.43,147.85 C20.19,148.84 22.08,151.05 24.33,151.55 C26.04,151.93 28.87,150.98 30.9,149.68 C31.59,142.24 33.23,132.38 36.35,119.31 C37.02,116.52 37.62,113.86 38.19,111.26 Z"></path>
                        <path d="M42.11,78.63 C42.75,78.98 43.21,79.47 43.49,80.13 C43.59,79.2 43.68,78.28 43.75,77.38 C43.53,77.21 43.3,77.04 43.04,76.9 C39.15,74.79 32.51,77.2 32.16,77.33 C32.16,77.34 32.16,77.35 32.16,77.36 L32.84,79.19 C34.54,78.55 39.51,77.23 42.11,78.63 Z" fill="#B04423" fill-rule="nonzero"></path>
                        <path d="M38.13,111.28 L38.2,111.26 C38.4,110.36 38.6,109.46 38.78,108.58 C36,105.91 29.82,106.29 27.21,106.58 C27.04,107.26 26.86,107.95 26.68,108.64 C29.65,108.22 37.37,107.87 38.13,111.28 Z" fill="#B04423" fill-rule="nonzero"></path>
                        <path d="M24.34,151.54 C22.09,151.04 20.19,148.84 19.44,147.84 C19.43,148.85 19.44,149.86 19.46,150.85 C20.45,151.87 21.94,153.02 23.9,153.46 C24.45,153.58 25.01,153.65 25.57,153.65 C26.95,153.65 28.98,152.97 30.72,152.06 C30.77,151.29 30.84,150.49 30.92,149.66 C28.87,150.97 26.04,151.93 24.34,151.54 Z" fill="#B04423" fill-rule="nonzero"></path>
                    </g>
                    <path d="M168.56,359.46 C167.47,335.53 133.8,324.81 133.8,324.81 C133.8,324.81 121.23,318.12 84.24,349.13 C47.25,380.14 51.6,428.55 51.6,428.55 C51.6,428.55 53.23,492.74 112.52,467.71 C171.81,442.68 169.64,383.39 168.56,359.46 Z M121.21,446.34 C115.89,452.25 108.78,456.29 100.96,457.75 C86.1,460.53 63.4,459.42 63.03,426.91 C62.49,378.5 87.51,360.55 87.51,360.55 L135.08,347.93 C149.46,355.68 150.11,361.67 151.15,368.17 C156.55,401.83 133.66,432.5 121.21,446.34 Z" id="Shape" fill="#FFE74C" fill-rule="nonzero"></path>
                    <g transform="translate(51.000000, 324.000000)" id="Shape">
                        <path d="M100.51,62.2 C100.58,61.55 100.65,60.9 100.7,60.25 C101.15,55 101.03,49.62 100.15,44.16 C99.38,39.35 98.82,34.82 92.76,29.65 C92.64,29.55 92.51,29.44 92.39,29.33 C90.31,27.61 87.61,25.81 84.08,23.91 L36.51,36.53 C36.51,36.53 31.5,40.14 26.01,48.45 C25.68,48.94 25.36,49.45 25.03,49.97 C19.64,58.62 14.06,71.81 12.47,90.58 C12.41,91.23 12.37,91.91 12.33,92.57 C12.11,95.85 11.99,99.27 12.03,102.89 C12.17,115.05 15.43,122.82 20.24,127.64 C20.99,128.39 21.78,129.06 22.6,129.68 C30.57,135.64 41.52,135.32 49.96,133.74 C51.46,133.46 52.93,133.08 54.37,132.62 C54.99,132.42 55.59,132.2 56.2,131.97 C61.54,129.92 66.35,126.63 70.21,122.33 C74.75,117.29 80.67,110 86.1,101.16 C86.47,100.56 86.84,99.95 87.2,99.33 C93.5,88.69 98.95,75.96 100.51,62.2 Z"></path>
                        <path d="M20.24,127.65 C15.43,122.84 12.17,115.07 12.03,102.9 C11.99,99.29 12.11,95.86 12.33,92.58 C12.04,92.59 11.76,92.6 11.48,92.6 C6.28,92.6 3.1,90.02 1.2,87.38 C-0.02,97.63 0.6,104.52 0.6,104.52 C0.6,104.52 1.02,120.97 9.13,133.97 C10.58,132.22 14.78,127.74 20.24,127.65 Z"></path>
                        <path d="M12.47,90.6 C14.06,71.83 19.64,58.64 25.03,49.99 L24.78,50.18 C21.3,45.61 21.77,39.38 22.36,36.04 C8.9,52.21 3.62,70.66 1.61,84.33 C3,87.18 6.09,91.02 12.47,90.6 Z"></path>
                        <path d="M101.24,107.16 C96.75,107.16 90.06,106.2 86.1,101.17 C80.66,110.01 74.74,117.3 70.21,122.34 C66.35,126.64 61.53,129.93 56.2,131.98 L56.52,132.08 C54.48,138.97 62.83,142.98 62.92,143.02 L62.87,143.12 C83.24,134.21 96.19,121.19 104.35,107.01 C103.55,107.09 102.48,107.16 101.24,107.16 Z"></path>
                        <path d="M54.36,132.63 C52.92,133.09 51.45,133.47 49.95,133.75 C41.51,135.33 30.56,135.65 22.59,129.69 L22.53,129.91 C16.19,128.2 10.92,134.88 10.28,135.73 C18.4,147.37 33.31,155.3 60.67,144.04 C57.46,142.07 53.42,138.03 54.36,132.63 Z"></path>
                        <path d="M111.59,57.56 C106.38,57.24 101.05,62.62 100.99,62.68 L100.51,62.21 C98.95,75.97 93.51,88.7 87.21,99.35 C92.49,107.04 105.38,104.91 105.52,104.88 L105.53,104.92 C113.52,90.11 116.53,74.22 117.5,60.55 L117.1,60.85 C115.56,58.8 113.71,57.69 111.59,57.56 Z"></path>
                        <path d="M26.01,48.46 C31.5,40.15 36.51,36.54 36.51,36.54 L84.08,23.92 C87.61,25.82 90.3,27.61 92.39,29.34 C92.49,27.5 93.22,18.03 98.17,14.43 C100.14,13 102.5,12.66 105.18,13.44 L104.63,15.34 C102.54,14.73 100.8,14.96 99.33,16.03 C94.73,19.37 94.35,29.61 94.35,29.71 L92.76,29.66 C98.82,34.83 99.38,39.36 100.15,44.17 C101.03,49.63 101.15,55.02 100.7,60.26 C102.7,58.53 107.1,55.3 111.71,55.59 C113.96,55.73 115.94,56.71 117.63,58.45 C118.16,49.34 117.83,41.33 117.56,35.46 C116.47,11.53 82.8,0.81 82.8,0.81 C82.8,0.81 70.23,-5.88 33.24,25.13 C29.84,27.98 26.79,30.98 24.05,34.07 L24.77,34.29 C24.75,34.37 22.28,42.86 26.01,48.46 Z"></path>
                        <path d="M24.78,50.17 L25.03,49.98 C25.36,49.45 25.68,48.95 26.01,48.46 C22.28,42.86 24.75,34.37 24.78,34.28 L24.06,34.06 C23.48,34.71 22.92,35.37 22.37,36.03 C21.77,39.38 21.3,45.61 24.78,50.17 Z" fill="#B04423" fill-rule="nonzero"></path>
                        <path d="M11.48,92.61 C11.76,92.61 12.04,92.6 12.33,92.59 C12.38,91.92 12.42,91.25 12.47,90.6 C6.08,91.02 3,87.18 1.61,84.33 C1.46,85.38 1.32,86.41 1.2,87.4 C3.1,90.04 6.28,92.61 11.48,92.61 Z" fill="#B04423" fill-rule="nonzero"></path>
                        <path d="M22.54,129.91 L22.6,129.69 C21.78,129.08 20.99,128.4 20.24,127.65 C14.78,127.73 10.59,132.22 9.14,133.99 C9.51,134.58 9.89,135.16 10.29,135.73 C10.93,134.88 16.19,128.2 22.54,129.91 Z" fill="#B04423" fill-rule="nonzero"></path>
                        <path d="M56.51,132.07 L56.19,131.97 C55.59,132.2 54.98,132.42 54.36,132.62 C53.41,138.02 57.45,142.06 60.67,144.04 C60.96,143.92 61.23,143.82 61.52,143.7 C61.97,143.51 62.41,143.31 62.85,143.12 L62.9,143.02 C62.83,142.98 54.47,138.97 56.51,132.07 Z" fill="#B04423" fill-rule="nonzero"></path>
                        <path d="M87.2,99.34 C86.83,99.96 86.47,100.57 86.1,101.17 C90.06,106.2 96.76,107.16 101.24,107.16 C102.48,107.16 103.54,107.09 104.34,107.01 C104.74,106.31 105.13,105.61 105.51,104.91 L105.5,104.87 C105.38,104.89 92.48,107.03 87.2,99.34 Z" fill="#B04423" fill-rule="nonzero"></path>
                        <path d="M111.71,55.58 C107.1,55.29 102.7,58.52 100.7,60.25 C100.64,60.9 100.58,61.55 100.51,62.2 L100.99,62.67 C101.04,62.62 106.37,57.24 111.59,57.55 C113.71,57.69 115.56,58.79 117.09,60.84 L117.49,60.54 C117.54,59.84 117.58,59.14 117.62,58.45 C115.94,56.7 113.95,55.73 111.71,55.58 Z" fill="#B04423" fill-rule="nonzero"></path>
                        <path d="M94.19,30.72 C94.19,30.62 94.73,19.36 99.32,16.02 C100.79,14.95 105.33,14.59 107.43,15.19 L105.47,13.48 C102.79,12.71 100.13,12.99 98.16,14.42 C93.21,18.02 92.48,27.49 92.38,29.33 C92.51,29.44 92.63,29.54 92.75,29.65 L94.19,30.72 Z" fill="#B04423" fill-rule="nonzero"></path>
                    </g>
                    <path d="M86.94,331.35 C86.94,331.35 81.44,337.63 82.49,343.39 C83.54,349.15 94.79,380.04 94.79,380.04 C94.79,380.04 122.02,382.92 133.28,367.21 L139.56,369.04 C139.56,369.04 145.32,363.02 145.06,354.64 L136.16,346.52 L133.8,324.79 L141.13,325.84 C141.13,325.84 136.42,308.04 130.66,307.25 C124.9,306.46 115.48,307.77 115.48,307.77 C115.48,307.77 80.39,300.46 86.94,331.35 Z" id="Shape" fill="#2B3BAD" fill-rule="nonzero"></path>
                    <path d="M109.86,359.81 C109.86,359.81 120.09,370.87 122.3,370.04 C124.51,369.21 128.93,363.96 128.93,363.96 L133.27,367.22" id="Shape" stroke="#181E4F" stroke-width="0.988" stroke-linecap="round"></path>
                    <path d="M107.97,102.05 C107.97,102.05 96.02,102.58 96.02,103.01 C96.02,103.44 95.17,116.03 95.49,116.03 C95.81,116.03 97.62,128.94 100.4,130.65 C103.17,132.36 115.23,137.91 118.22,135.66 C121.21,133.42 121.53,122.86 121.53,122.54 C121.53,122.22 107.97,102.05 107.97,102.05 Z" id="Shape" fill="#A65338" fill-rule="nonzero"></path>
                    <path d="M190.24,79.22 L186.4,103.87 L193.34,114.97 C193.34,114.97 203.05,114.54 204.01,113.69 C204.97,112.84 211.8,98.75 210.41,93.84 C209.02,88.93 202.19,75.27 201.13,75.49 C200.05,75.7 190.24,79.22 190.24,79.22 Z" id="Shape" fill="#A65338" fill-rule="nonzero"></path>
                    <path d="M98.76,74.54 C98.76,74.54 100.51,92.81 106.73,100.39 L117.61,121.96 C117.61,121.96 117.03,127.6 118,129.34 C118.97,131.08 127.33,148 152.2,149.55 C177.07,151.1 195.92,126.42 196.12,120.79 C196.31,115.15 192.04,106.21 189.32,104.08 C186.6,101.95 200.2,61.91 180.19,44.03 L98.76,74.54 Z" id="Shape" fill="#C26E53" fill-rule="nonzero"></path>
                    <path d="M105,97.75 L137.48,78.07 L144.02,67.54 L159.38,71.24 L191.28,71.21 C191.28,71.21 193.01,51.09 178.5,43.13 C163.99,35.16 99.35,73.52 99.35,73.52 C99.35,73.52 98.42,88.4 105,97.75" id="Shape" fill="#0B131F" fill-rule="nonzero"></path>
                    <path d="M156.34,112.56 C156.34,112.56 161.5,112.19 163.71,108.14" id="Shape" stroke="#3B0E03" stroke-width="0.988" stroke-linecap="round"></path>
                    <path d="M134.22,121.04 C134.77,121.59 141.59,123.8 143.99,122.88 C146.39,121.96 161.87,116.61 161.87,116.61 L172.56,116.61 L179.75,112.19 L180.49,113.3 C180.49,113.3 171.99,129.57 152.66,130.44 C140.3,130.99 134.22,121.04 134.22,121.04 Z" id="Shape" fill="#3B0E03" fill-rule="nonzero"></path>
                    <path d="M144.09,123.07 L138.82,122.91 L152,130.32 C152,130.32 159.47,130.71 166.66,126.7 L167.77,116.72 L161.85,116.63 L144.09,123.07 Z" id="Shape" fill="#FFFFFF" fill-rule="nonzero"></path>
                    <path d="M105,97.75 L114.21,79.76 L150.18,72.91 L167.31,57.28 L191.28,71.22 C191.28,71.22 190.97,97.35 189.31,104.08 L156.39,102.67 L117.6,121.96 L105,97.75 Z" id="Shape" fill="#FFE74C" fill-rule="nonzero"></path>
                    <path d="M157.68,76.28 C157.68,76.28 158.2,92.62 159.57,93.48 C160.95,94.34 170.92,95.89 170.92,95.89 L182.1,88.84 C182.1,88.84 182.96,74.91 182.1,74.05 C181.24,73.19 169.03,69.41 168.52,69.58 C168,69.75 157.68,76.28 157.68,76.28 Z" id="Shape" fill="#FFFFFF" fill-rule="nonzero"></path>
                    <path d="M115.38,102.07 C115.38,102.07 123.46,94.16 125.7,93.99 C127.94,93.82 141.52,93.3 141.52,93.3 C141.52,93.3 143.76,96.91 142.38,97.6 C141,98.29 135.85,98.8 135.16,99.15 C134.47,99.49 125.7,104.65 123.64,105 C121.58,105.35 118.99,105.17 115.38,102.07 Z" id="Shape" fill="#FFFFFF" fill-rule="nonzero"></path>
                    <path d="M170.32,74.94 C166.06,74.94 162.57,78.43 162.57,82.69 L162.57,88.95 C162.57,91.35 163.67,93.5 165.4,94.93 C168.2,95.46 170.93,95.88 170.93,95.88 L177.57,91.69 C177.9,90.84 178.08,89.91 178.08,88.95 L178.08,82.69 C178.07,78.43 174.58,74.94 170.32,74.94 Z" id="Shape" fill="#151B47" fill-rule="nonzero"></path>
                    <path d="M125.7,93.99 C124.94,94.05 123.51,95 121.95,96.23 C121.68,97.7 121.13,103 126.58,103.81 C129.94,102.17 134.66,99.4 135.16,99.16 C135.65,98.92 138.39,98.58 140.43,98.17 C140.42,97.11 140.26,94.84 139.18,93.41 C135.19,93.55 127.35,93.86 125.7,93.99 Z" id="Shape" fill="#151B47" fill-rule="nonzero"></path>
                    <polygon id="Shape" fill="#151B47" fill-rule="nonzero" points="155.26 75.92 168.33 66.81 185.7 73.35 181.74 78.16 168.5 71.45 158.87 76.96"></polygon>
                    <polygon id="Shape" fill="#151B47" fill-rule="nonzero" points="111.93 101.72 122.42 92.26 142.02 90.89 141.52 93.3 124.31 95.36 116.57 103.61 112.79 105.67"></polygon>
                    <path d="M130.72,84 L139.38,85.84" id="Shape" stroke="#151B47" stroke-width="1.976" stroke-linecap="round"></path>
                    <path d="M90.08,42.01 L96.2,68.76 L136.49,63.28 L176.46,37.49 C176.46,37.49 172.59,9.77 168.08,6.22 L135.53,8.8 C135.53,8.81 106.84,37.5 90.08,42.01 Z" id="Shape" fill="#AD2909" fill-rule="nonzero"></path>
                    <polygon id="Shape" fill="#DE350B" fill-rule="nonzero" points="40.12 90.68 148.1 64.25 203.54 29.44 132.3 35.24 151.32 44.91 134.56 59.74 117.15 59.74 120.7 35.24 81.7 73.6"></polygon>
                </g>
                <g id="Group" transform="translate(0.000000, 74.000000)">
                    <path d="M184.59,43.06 L189.36,27.07 L232.27,0.99 L289.48,30.44 C289.48,30.44 292.28,47.55 291.16,60.17 C290.04,72.79 286.95,116.26 335.75,111.78 C335.75,111.78 312.48,142.87 266.49,133.89 C266.49,133.89 250.02,145.17 197.77,135.9 C197.77,135.9 216.28,130.57 219.37,115.15 L184.59,43.06 Z" id="Shape" fill="#781B1B" fill-rule="nonzero"></path>
                    <path d="M280.48,89.04 C280.48,89.04 285.29,116.3 306.67,117.9 C306.67,117.9 288.5,129.92 261.78,125.65 C261.78,125.65 244.68,136.07 226.24,133.4 L256.44,95.19 L280.48,89.04 Z" id="Shape" fill="#570B0B" fill-rule="nonzero"></path>
                    <path d="M203.78,142.99 L193,139.46 L167.7,147.19 C167.7,147.19 9.65,145.09 0.82,206.92 C-5.86,253.65 72.84,293.35 121.33,301.43 C121.33,301.43 155.76,296.16 129.76,271.92 C129.76,271.92 39.12,256.11 28.93,217.82 C15.65,167.91 184.92,171.44 184.92,171.44 L188.43,178.82 C188.43,178.82 216.89,172.14 215.48,159.15 C214.08,146.14 203.78,142.99 203.78,142.99 Z" id="Shape" fill="#4356E0" fill-rule="nonzero"></path>
                    <path d="M111.03,150.37 L115.92,157.31 L203.11,155.77 L219.57,144.97 C219.57,144.97 200.62,142.97 192.99,139.47 L169.41,146.77 L111.03,150.37 Z" id="Shape" fill="#CF0A2C" fill-rule="nonzero"></path>
                    <path d="M220.58,144.57 L296.21,151.92 C296.21,151.92 304.61,175.03 292.53,190.78 C280.45,206.54 262.59,228.59 262.59,228.59 L250.51,263.25 L257.34,277.43 L187.49,292.14 L173.84,273.76 C173.84,273.76 181.19,256.43 185.39,251.7 L185.39,208.11 C185.39,208.11 181.71,191.83 181.71,182.9 L203.77,142.99 L220.58,144.57 Z" id="Shape" fill="#4356E0" fill-rule="nonzero"></path>
                    <path d="M251.11,120.5 C249.96,121.94 232.37,147.89 232.37,147.89 L232.37,161.15 L270.06,149.47 C270.06,149.47 266.68,138.08 266.68,136.64 C266.68,135.2 285.13,89.64 285.13,89.64 C285.13,89.64 287.44,78.11 273.88,83.01 C260.32,87.91 251.11,120.5 251.11,120.5 Z" id="Shape" fill="#DB8A72" fill-rule="nonzero"></path>
                    <polyline id="Shape" fill="#4356E0" fill-rule="nonzero" points="257.35 277.44 183.29 303.99 173.84 273.76"></polyline>
                    <path d="M173.84,273.76 C173.84,273.76 159.15,288.37 157.02,322.81" id="Shape" fill="#FFE74C" fill-rule="nonzero"></path>
                    <path d="M198.84,196.34 C198.84,196.34 193.39,233.57 199.75,258.09 C199.75,258.09 186.1,279.37 186.1,292.54 L200.66,289.42 C200.66,289.42 197.03,277.61 210.65,259.45 C210.65,259.45 202.02,217.68 208.38,195.43" id="Shape" fill="#CF0A2C" fill-rule="nonzero"></path>
                    <polygon id="Shape" fill="#CF0A2C" fill-rule="nonzero" points="205.82 172.46 204.5 154.46 213.88 147.55 215.64 167.73"></polygon>
                    <polygon id="Shape" fill="#CF0A2C" fill-rule="nonzero" points="196.48 155.82 204.36 155 219.52 144.42 203.42 142.66"></polygon>
                    <polygon id="Shape" fill="#CF0A2C" fill-rule="nonzero" points="235.43 169.49 273.59 159.19 273.32 169.77 236.83 182.31"></polygon>
                    <path d="M275.5,150.37 L276.03,169.06 L285.02,173.29 C285.02,173.29 302.65,165 295.42,152.14 L275.5,150.37 Z" id="Shape" fill="#CF0A2C" fill-rule="nonzero"></path>
                    <ellipse id="Oval" fill="#FAFAFF" fill-rule="nonzero" transform="translate(217.439801, 182.648775) rotate(-26.008998) translate(-217.439801, -182.648775) " cx="217.439801" cy="182.648775" rx="25.1192959" ry="15.2395728"></ellipse>
                    <g transform="translate(196.000000, 167.000000)" fill="#4356E0" fill-rule="nonzero" id="Shape">
                        <path d="M19.27,7.9 C19.27,7.9 -1.83,21.73 14.36,30.73 C14.36,30.73 -9.49,29.8 5.03,12.62 C5.02,12.62 11.16,8.7 19.27,7.9 Z"></path>
                        <path d="M34.34,15.2 C34.34,15.2 31.24,-0.36 6.35,10.45 C6.35,10.45 30.5,-7.45 40.95,5.52 C40.95,5.53 39.97,9.31 34.34,15.2 Z"></path>
                        <path d="M10.7,24.1 C10.7,24.1 31.12,26.71 41.57,7.7 C41.57,7.7 42.77,25.06 17.91,30.57 C17.91,30.57 12.35,29.31 10.7,24.1 Z"></path>
                    </g>
                    <path d="M310.91,445.96 C310.91,445.96 273.44,442.57 272.12,461.4 C270.8,480.23 272.12,461.4 272.12,461.4 L313.73,565.34 L312.98,571.18 C312.98,571.18 326.91,585.3 339.53,571.74 C339.53,571.74 330.49,479.48 329.74,478.72 C328.99,477.97 310.91,445.96 310.91,445.96 Z" id="Shape" fill="#4356E0" fill-rule="nonzero"></path>
                    <polygon id="Shape" fill="#CF0A2C" fill-rule="nonzero" points="297.47 480.79 320.41 565.74 322.83 562.88 331.63 567.94 305.61 479.03"></polygon>
                    <polyline id="Shape" fill="#CF0A2C" fill-rule="nonzero" points="279.65 463.48 285.49 475.84 297.73 481.45 305.58 479.61 307.72 463.71 304.25 455.75 279.65 463.48"></polyline>
                    <path d="M309.16,588.15 C309.16,588.15 299.54,611.78 299.82,613.7 C300.09,615.62 316.85,641.17 316.85,641.17 L329.49,641.44 C329.49,641.44 355.59,622.48 354.77,608.74 C353.95,595 346.8,588.96 346.8,588.96 L325.64,573.85 L316.85,576.32 L309.16,588.15 Z" id="Shape" fill="#CF0A2C" fill-rule="nonzero"></path>
                    <polygon id="Shape" fill="#4356E0" fill-rule="nonzero" points="309.16 588.15 312.98 571.18 322.83 562.88 339.53 571.74 340.76 577.98 348.73 590.89 322.08 577.71"></polygon>
                    <path d="M270.84,461.25 C270.84,461.25 307.01,474.43 311.04,446.27 L299,429.88 C299,429.88 290.15,354.27 281.3,330.13 C272.45,306 200.86,313.24 217.75,359.09 C234.64,404.94 256.36,444.36 256.36,444.36 L270.84,461.25 Z" id="Shape" fill="#4356E0" fill-rule="nonzero"></path>
                    <polygon id="Shape" fill="#CF0A2C" fill-rule="nonzero" points="268.79 327.21 242.11 367.41 277.13 440.69 286.83 436.19 258.39 371.91 276.76 340.38"></polygon>
                    <path d="M276.26,439.75 L285.86,435.04 L297.35,440.31 L305.37,458.5 C305.37,458.5 299.66,468.49 279.65,463.47 L276.07,456.88 L276.26,439.75 Z" id="Shape" fill="#CF0A2C" fill-rule="nonzero"></path>
                    <path d="M222.41,433.58 L240.43,468.48 L231.95,536.79 L240.92,552.25 C240.92,552.25 238.93,565.71 225.46,563.22 C212,560.73 207.01,540.78 207.01,540.78 L186.18,445.65 L222.41,433.58 Z" id="Shape" fill="#4356E0" fill-rule="nonzero"></path>
                    <path d="M198.68,454.42 C198.68,454.42 202.79,468.94 191.72,470.39 L185.79,444.96 L193.3,448.65 L198.68,454.42" id="Shape" fill="#CF0A2C" fill-rule="nonzero"></path>
                    <polygon id="Shape" fill="#CF0A2C" fill-rule="nonzero" points="195.64 465.25 214.93 541.39 213.08 540.61 207.51 542.5 190.94 467.73"></polygon>
                    <path d="M191.04,558.05 L141.42,585.84 C141.42,585.84 146.08,594.66 148.04,595.64 C150,596.62 181.12,597.11 181.12,597.11 L236.01,575.3 L242.63,575.06 L244.34,564.63 L210.53,547.86 L191.04,558.05 Z" id="Shape" fill="#CF0A2C" fill-rule="nonzero"></path>
                    <polygon id="Shape" fill="#4356E0" fill-rule="nonzero" points="191.04 558.05 205.18 551.8 244.33 564.63 245.64 560.68 240.93 552.24 213.08 540.61 207.51 542.5"></polygon>
                    <path d="M158.61,307.71 C158.61,307.71 145.97,372.66 186.2,445.65 C186.2,445.65 199.42,461.17 214.36,453.7 C229.3,446.23 222.41,433.58 222.41,433.58 L215.51,331.27 L158.61,307.71 Z" id="Shape" fill="#4356E0" fill-rule="nonzero"></path>
                    <path d="M157.02,322.81 C157.02,322.81 157.49,334.52 164.43,339.01 C164.43,339.01 172.99,409.16 184.82,429.55 C184.82,429.55 192.16,433.63 192.57,436.89 C192.98,440.15 195.02,449.13 196.65,449.94 C198.28,450.76 198.69,454.43 198.69,454.43 C198.69,454.43 194.89,453.17 191.56,450.85 C189.07,449.11 187.04,446.89 186.2,445.66 C184.91,443.78 177.48,428.74 177.48,428.74 C177.48,428.74 153.28,372.68 157.02,322.81 Z" id="Shape" fill="#CF0A2C" fill-rule="nonzero"></path>
                    <path d="M157.02,322.81 C154.89,357.25 273.07,347.72 273.82,318.55 C274.17,304.7 257.35,277.44 257.35,277.44 L185.07,301.86 L169.45,281.98 C169.44,281.98 159.86,300.09 157.02,322.81" id="Shape" fill="#4356E0" fill-rule="nonzero"></path>
                    <path d="M173.84,273.76 L187.49,292.14 L257.34,277.43 C257.34,277.43 259.91,282.06 261.65,284.89 C263.39,287.72 265.36,292.15 265.36,292.15 L182.57,308.95 L165.92,286.01 C165.92,286.01 168.19,281.47 169.23,279.85 C170.28,278.24 173.84,273.76 173.84,273.76 Z" id="Shape" fill="#FFE74C" fill-rule="nonzero"></path>
                    <path d="M105.53,325.76 C105.53,325.76 110.45,319.32 117.11,319.78 C123.77,320.24 132.09,330.83 125.28,330.98 C118.47,331.13 106.36,329.01 106.06,327.8 C105.76,326.58 105.53,325.76 105.53,325.76 Z" id="Shape" fill="#C28729" fill-rule="nonzero"></path>
                    <path d="M100.39,335.36 C100.39,335.36 99.02,328.84 105.53,325.76 C105.53,325.76 115.41,326.96 120.89,327.64 C126.38,328.33 137.42,332.61 127.13,335.7 C116.85,338.79 100.39,335.36 100.39,335.36 Z" id="Shape" fill="#FFB236" fill-rule="nonzero"></path>
                    <path d="M119.25,269.87 C119.25,269.87 98.31,274.75 105.86,298.07 L121.37,301.7 C121.37,301.7 114.8,316.16 115.14,319.59 C115.48,323.02 112.05,330.56 119.25,332.28 L113.76,336.05 C113.76,336.05 106.56,331.25 102.79,332.96 C99.02,334.67 94.56,343.25 95.93,344.96 C97.3,346.67 110.67,345.3 110.67,345.3 C110.67,345.3 125.07,352.16 131.59,348.73 C138.11,345.3 148.39,340.84 148.39,340.84 C148.39,340.84 154.56,341.18 155.59,334.67 C156.62,328.15 159.7,307.58 165.53,292.15 C171.37,276.72 119.25,269.87 119.25,269.87 Z" id="Shape" fill="#FFE74C" fill-rule="nonzero"></path>
                    <path d="M293.7,151.69 L307.87,169.26 C307.87,169.26 488.68,215.17 479.04,283.75 C469.4,352.33 320.9,342.13 314.1,339.86 C307.3,337.59 309.57,306.99 318.07,305.85 C333.72,303.76 414.43,324.55 443.9,279.78 C463.26,250.37 296.53,192.49 296.53,192.49 L277.83,197.02 C277.83,197.03 257.99,161.89 293.7,151.69 Z" id="Shape" fill="#4356E0" fill-rule="nonzero"></path>
                    <path d="M296.41,151.56 L307.87,169.26 C307.87,169.26 359.23,184.04 371.57,190.21 L347.24,198.5 L272.61,169.37 L272.38,149.5 L296.41,151.56 Z" id="Shape" fill="#CF0A2C" fill-rule="nonzero"></path>
                    <path d="M290.83,345.73 C291.34,345.73 302.71,348.95 301.69,354.04 C300.67,359.13 298.47,363.71 291.17,363.03 C283.87,362.35 275.39,348.78 275.9,348.78 C276.41,348.78 290.83,345.73 290.83,345.73 Z" id="Shape" fill="#C28729" fill-rule="nonzero"></path>
                    <path d="M268.09,362.7 C268.77,362.7 288.04,376.23 293.71,363.38 C296.26,357.61 277.42,349.81 277.42,349.81 L259.94,343.7 C259.94,343.7 259.6,359.14 260.28,359.14 C260.97,359.14 268.09,362.7 268.09,362.7 Z" id="Shape" fill="#FFB236" fill-rule="nonzero"></path>
                    <path d="M318.07,305.86 C318.07,305.86 286.33,299.06 275.56,299.06 C264.79,299.06 256.86,298.49 254.02,300.76 C251.19,303.03 235.88,335.9 238.15,341 C240.42,346.1 252.89,364.81 256.29,365.94 C259.69,367.07 272.16,373.31 273.86,372.74 C274.97,372.37 275.64,369.53 275.97,367.59 C276.21,366.22 276.13,364.81 275.77,363.47 C275.25,361.51 274.19,358.8 272.15,357.44 C268.75,355.17 264.21,356.31 264.21,356.31 L264.21,348.94 C264.21,348.94 291.42,361.41 306.72,339.87 L314.09,339.87 C314.1,339.87 304.4,315.36 318.07,305.86 Z" id="Shape" fill="#FFE74C" fill-rule="nonzero"></path>
                    <path d="M188.31,48.47 C188.31,48.47 179.69,60.94 180.84,65.81 C181.99,70.68 196.02,96.45 196.02,96.45 L196.02,116.78 C196.02,116.78 220.07,134.82 227.23,134.53 C234.39,134.24 270.76,109.33 270.76,109.33 L273.34,95.58 L285.08,92.72 C285.08,92.72 298.54,77.83 298.83,68.95 C299.12,60.07 285.08,48.05 281.36,48.9 C277.64,49.75 274.2,52.91 274.2,52.91 C274.2,52.91 261.13,22.93 215.78,35.44 C190.86,42.33 188.31,48.47 188.31,48.47 Z" id="Shape" fill="#E6B8AA" fill-rule="nonzero"></path>
                    <path d="M187.69,49.45 L183.61,54.85 L203.69,53.81 L212.95,35.43 L211.65,52.25 L228.34,47.56 L261.46,48.6 L266.02,62.42 L274.19,52.94 C274.19,52.94 277.62,48.47 271.49,43.78 C265.36,39.09 246.19,25 222.07,29.57 C197.95,34.11 187.69,49.45 187.69,49.45 Z" id="Shape" fill="#781B1B" fill-rule="nonzero"></path>
                    <path d="M184.59,43.06 C184.59,43.06 235.08,-2.77 279.36,49.58 L274.19,52.93 C274.19,52.93 258.18,24.02 215.77,35.46 C193.08,41.59 187.69,49.45 187.69,49.45 L184.59,43.06 Z" id="Shape" fill="#4356E0" fill-rule="nonzero"></path>
                    <circle id="Oval" fill="#FAFAFF" fill-rule="nonzero" cx="216.05" cy="31.84" r="12.84"></circle>
                    <g transform="translate(204.000000, 20.000000)" fill="#4356E0" fill-rule="nonzero" id="Shape">
                        <path d="M8.18,6.33 C8.18,6.33 0.32,16.77 12.82,22.83 C12.82,22.83 -1.54,22.75 1.35,10.07 C1.35,10.07 3.67,7.11 8.18,6.33 Z"></path>
                        <path d="M19.47,11.2 C19.47,11.2 12.51,0.12 1.42,8.49 C1.42,8.49 9.74,-4.95 20.18,4.1 C20.18,4.1 20.84,6.83 19.47,11.2 Z"></path>
                        <path d="M8.48,18.17 C8.48,18.17 21.37,19.54 21.25,5.65 C21.25,5.65 27.69,18.08 14.86,22.64 C14.86,22.63 11.18,21.87 8.48,18.17 Z"></path>
                    </g>
                    <path d="M281.82,67.87 L279.34,71.89 L277.92,70.98 C275.13,69.2 274.85,65.24 277.35,63.08 L278.75,61.88 C280.35,60.5 282.71,60.48 284.33,61.84 L286.01,63.24 C288.02,64.92 289.09,67.47 288.86,70.08 L288.37,75.76" id="Shape" stroke="#8A4028" stroke-width="1.6379" stroke-linecap="round" stroke-linejoin="round"></path>
                    <path d="M216.49,100.5 C216.49,100.5 217.86,102.84 221.44,102.84" id="Shape" stroke="#8A4028" stroke-width="1.6379" stroke-linecap="round" stroke-linejoin="round"></path>
                    <path d="M238.22,104.85 C238.22,104.85 239.75,104.3 240.5,102.67" id="Shape" stroke="#852C2C" stroke-width="0.6142" stroke-linecap="round"></path>
                    <path d="M209.45,109.97 C209.45,109.97 209.95,111.79 211.95,111.93" id="Shape" stroke="#852C2C" stroke-width="0.6142" stroke-linecap="round"></path>
                    <path d="M210.59,111.86 L222.55,110.84 C222.55,110.84 237.31,105.49 239.6,104.22 C239.6,104.22 233.49,119.24 222.8,118.73 C212.12,118.23 210.59,111.86 210.59,111.86 Z" id="Shape" fill="#E66767" fill-rule="nonzero"></path>
                    <polygon id="Shape" fill="#852C2C" fill-rule="nonzero" points="210.59 111.86 222.62 111.5 238.08 104.96 239.61 104.23 239.61 104.23 222.3 109.33"></polygon>
                    <path d="M212.58,63.63 C212.58,63.63 197.53,55.54 183.72,54.43 L181.13,60.9 C180.34,63.06 180.42,65.43 181.35,67.54 C183.03,71.34 186.03,77.61 187.83,81.28 C190.56,86.83 200.9,105.64 200.9,105.64 L220,90.59 L253.7,90.14 L268.53,71.72 C268.53,71.72 262.91,48.8 262.24,44.76 C262.24,44.76 246.96,37.12 233.48,39.37 L212.58,63.63 Z" id="Shape" fill="#CF0A2C" fill-rule="nonzero"></path>
                    <path d="M250.18,63.31 C249.57,59.79 247.05,56.9 243.63,55.88 C240.57,54.97 236.67,54.66 232.88,56.75 C224.91,61.17 231.16,86.14 240.91,83.69 C250.66,81.24 252.34,77.15 251.76,73.02 C251.45,70.74 250.75,66.57 250.18,63.31 Z" id="Shape" fill="#F5F5F5" fill-rule="nonzero"></path>
                    <path d="M248.01,78.07 C251.84,77.42 254.44,73.74 253.79,69.91 L252.83,64.29 C252.18,60.46 248.5,57.86 244.67,58.51 C240.84,59.16 238.24,62.84 238.89,66.67 L239.85,72.29 C240.51,76.13 244.18,78.73 248.01,78.07 Z" id="Shape" fill="#151B47" fill-rule="nonzero"></path>
                    <g transform="translate(191.000000, 68.000000)" fill-rule="nonzero" id="Shape">
                        <path d="M2.3,2.93 C5.06,0.55 8.44,0.47 11.23,1.05 C13.23,1.47 15.08,2.67 16.49,4.35 C15.41,4.12 14.25,4.15 13.13,4.53 C9.78,5.65 7.95,9.31 9.07,12.66 L10.95,18.29 C12.07,21.64 15.73,23.47 19.08,22.35 C20.51,21.87 21.66,20.93 22.42,19.75 C22.46,22.69 20.69,25.58 14.92,28.04 C7.18,31.33 -3.51,7.94 2.3,2.93 Z" fill="#F5F5F5"></path>
                        <path d="M10.94,18.29 L9.06,12.66 C7.94,9.31 9.77,5.65 13.12,4.53 C14.24,4.16 15.4,4.12 16.48,4.35 C17.27,5.29 17.92,6.37 18.38,7.56 C19.56,10.64 21.06,14.58 21.82,16.74 C22.17,17.74 22.4,18.74 22.41,19.75 C21.65,20.93 20.5,21.87 19.07,22.35 C15.72,23.47 12.06,21.64 10.94,18.29 Z" fill="#151B47"></path>
                    </g>
                    <path d="M187.45,73.01 L190.12,68.95 C191.91,66.22 195.08,64.72 198.33,65.06 L205.63,65.83 L209.19,75.08 L208.38,75.67 L202.97,69.72 L193.36,70.4 L187.36,76.46 L187.45,73.01 Z" id="Shape" fill="#151B47" fill-rule="nonzero"></path>
                    <path d="M229.64,61.02 L231.55,57.05 C232.56,54.95 234.66,53.6 236.99,53.55 L246.79,53.34 C247.92,53.32 248.94,54.01 249.33,55.06 L252.38,63.23 L251.64,63.54 L245.63,57.75 L235.42,57.02 L229.18,64.74 L229.64,61.02 Z" id="Shape" fill="#151B47" fill-rule="nonzero"></path>
                </g>
            </g>
        </g>
    </g>
</svg>