<?xml version="1.0" encoding="UTF-8"?>
<svg width="845px" height="801px" viewBox="0 0 845 801" version="1.1" xmlns="http://www.w3.org/2000/svg" xmlns:xlink="http://www.w3.org/1999/xlink">
    <!-- Generator: Sketch 50.2 (55047) - http://www.bohemiancoding.com/sketch -->
    <title>coverImage</title>
    <desc>Created with Sketch.</desc>
    <defs></defs>
    <g id="Page-1" stroke="none" stroke-width="1" fill="none" fill-rule="evenodd">
        <g id="coverImage" transform="translate(-63.000000, -339.000000)">
            <g id="character_x5F_L" transform="translate(88.000000, 357.000000)">
                <g id="Group" transform="translate(0.000000, 124.000000)" fill-rule="nonzero">
                    <path d="M233.22,409.8 C233.22,409.8 235.05,403.78 227.15,400.86 C219.25,397.94 211.27,400.23 211.27,400.23 L139.39,545.65 L180.85,546.58 L203.29,545.37 L233.22,409.8 Z" id="Shape" fill="#4356E0"></path>
                    <polygon id="Shape" fill="#1D2561" points="217.32 415.34 191.96 481.43 179.64 477.69 207.97 413.29"></polygon>
                    <path d="M233.22,409.8 C233.22,409.8 234.1,405.09 231.93,405.15 C229.75,405.22 225.47,406.29 223.64,412.31 C221.81,418.33 180.85,546.58 180.85,546.58 L203.29,545.37 L233.22,409.8 Z" id="Shape" fill="#1D2561"></path>
                    <polygon id="Shape" fill="#E8DFDF" points="160.34 502.67 191.22 509.43 180.85 546.58 139.38 545.66"></polygon>
                    <polygon id="Shape" fill="#BAB3B3" points="191.22 509.43 211.04 510.18 203.29 545.38 180.85 546.58"></polygon>
                    <path d="M196.6,349.86 L172.07,419.65 C172.07,419.65 163.61,436.99 174.18,453.06 L192.79,454.75 C192.79,454.75 181.37,449.25 183.06,433.6 C183.8,426.78 189.3,411.2 194.52,395.81 C201.28,375.86 208.02,356.2 208.02,356.2 L196.6,349.86 Z" id="Shape" fill="#E8DFDF"></path>
                    <path d="M192.79,454.75 L229.17,357.04 L208.02,356.19 L184.33,426.83 C184.33,426.84 177.99,445.87 192.79,454.75 Z" id="Shape" fill="#A6A0A0"></path>
                    <path d="M189.48,302.08 C189.48,302.08 174.59,313.64 184.86,338.29 C189.94,350.49 204.63,358.32 209.77,358.58 C214.91,358.84 232.37,361.66 236.22,352.42 C240.07,343.18 189.48,302.08 189.48,302.08 Z" id="Shape" fill="#1D2561"></path>
                    <path d="M196.16,306.7 C195.65,307.47 191.02,319.03 194.62,328.78 C198.21,338.54 205.15,357.8 221.84,350.35 C238.53,342.9 196.16,306.7 196.16,306.7 Z" id="Shape" fill="#555FA3"></path>
                    <path d="M185.33,291.05 C185.33,291.05 193.95,334.3 213.84,350.62 C213.84,350.62 234.24,355.21 242.4,354.7 C242.4,354.7 220.98,322.06 218.94,290.95 L185.79,289.42" id="Shape" fill="#E8DFDF"></path>
                    <path d="M242.4,354.71 L270.11,340.86 L274.22,270.5 L216.96,291.04 C216.96,291.04 227.79,342.11 242.4,354.71 Z" id="Shape" fill="#A6A0A0"></path>
                    <path d="M251.37,295.92 C251.37,295.92 241.61,302.6 247.52,327.5 C253.43,352.41 255.48,359.08 267.55,361.14 L269.6,350.61 L294.25,294.63 C294.25,294.63 289.11,282.56 272.17,280.25 C255.22,277.94 251.37,295.92 251.37,295.92" id="Shape" fill="#1D2561"></path>
                    <path d="M294.25,294.63 C294.25,294.63 287.06,278.2 269.34,291.81 C251.62,305.42 255.73,353.44 270.62,351.64 C285.52,349.84 298.62,311.07 294.25,294.63 Z" id="Shape" fill="#555FA3"></path>
                    <path d="M317.79,401.95 C317.79,401.95 318.09,395.67 309.71,394.77 C301.34,393.87 294.16,398.06 294.16,398.06 L258.87,562.86 L296.55,565.55 L319.28,552.69 L317.79,401.95 Z" id="Shape" fill="#4356E0"></path>
                    <polygon id="Shape" fill="#1D2561" points="303.74 411.22 295.36 481.51 282.5 480.91 294.17 411.52"></polygon>
                    <path d="M317.79,401.95 C317.79,401.95 317.49,397.16 315.4,397.76 C313.31,398.36 309.42,400.45 309.12,406.73 C308.82,413.01 296.56,565.54 296.56,565.54 L319.29,552.68 L317.79,401.95 Z" id="Shape" fill="#1D2561"></path>
                    <polygon id="Shape" fill="#E8DFDF" points="267.25 522.78 300.15 525.47 296.56 565.55 258.87 562.86"></polygon>
                    <polygon id="Shape" fill="#BAB3B3" points="300.15 525.47 318.99 516.5 319.29 552.69 296.56 565.55"></polygon>
                    <path d="M311.98,310.23 C311.98,310.23 304.23,292.94 289.92,295.33 C275.61,297.71 273.23,322.75 273.23,322.75 L254.15,420.51 C254.15,420.51 249.38,450.91 261.9,458.06 L292.9,461.04 L311.98,310.23 Z" id="Shape" fill="#E8DFDF"></path>
                    <path d="M311.98,310.23 C311.98,310.23 308.66,300.05 301.49,303.34 C294.31,306.63 282.65,406.82 282.65,406.82 C282.65,406.82 279.55,447.06 292.91,461.04 L311.98,310.23 Z" id="Shape" fill="#A6A0A0"></path>
                    <path d="M138.65,171.79 L110.73,198.44 C110.73,198.44 117.07,274.57 144.14,266.12 C171.21,257.66 188.13,234.4 188.13,234.4 L164.87,172.22 L138.65,171.79 Z" id="Shape" fill="#555FA3"></path>
                    <path d="M199.39,122.33 L169.1,130.75 C169.1,130.75 143.3,149.36 142.03,151.9 C140.76,154.44 131.46,171.78 131.46,171.78 L136.11,174.32 L149.65,177.28 L160.65,196.74 L190.68,168.4 L199.39,122.33" id="Shape" fill="#1D2561"></path>
                    <path d="M161.38,232.21 L161.9,243.67 L162.94,251.48 L185.33,291.06 C185.33,291.06 199.51,298.33 214.69,300.66 C221.8,301.75 227.42,299.14 235.03,298.96 C248.81,298.64 262.35,292.66 268.73,287.16 C278.12,279.06 274.37,248.88 274.37,248.88 C274.37,248.88 214.49,198.37 194.7,207.74 C174.92,217.11 161.38,232.21 161.38,232.21 Z" id="Shape" fill="#E8DFDF"></path>
                    <path d="M320.72,150.45 C320.72,150.45 255.11,114.52 251.98,115.04 C248.86,115.56 201.47,120.77 199.39,122.33 C197.31,123.89 168.67,155.14 165.02,163.47 C161.37,171.8 156.69,180.65 156.69,180.65 C156.69,180.65 153.04,199.92 154.09,204.6 C155.14,209.28 160.86,234.28 160.86,234.28 L170.75,223.87 L184.29,219.7 L197.83,220.22 L223.87,242.09 C223.87,242.09 247.82,257.19 258.24,256.15 C268.65,255.11 276.47,252.5 276.47,252.5 L320.72,150.45 Z" id="Shape" fill="#AFB8F7"></path>
                    <g transform="translate(205.000000, 146.000000)" fill="#4356E0" id="Shape">
                        <path d="M19.48,10.92 C19.48,10.92 -1.66,30.89 18.71,42.48 C18.71,42.48 -8.7,42.34 4.23,18.07 C4.23,18.07 10.4,12.4 19.48,10.92 Z"></path>
                        <path d="M38.23,20.23 C38.23,20.23 31.4,-0.97 5.29,15.04 C5.29,15.04 29.05,-10.66 43.73,6.65 C43.73,6.65 43.4,11.87 38.23,20.23 Z"></path>
                        <path d="M13.14,33.55 C13.14,33.55 36.99,36.17 44.89,9.6 C44.89,9.6 49.93,33.37 22.74,42.09 C22.73,42.09 16.13,40.62 13.14,33.55 Z"></path>
                    </g>
                    <path d="M116.24,105.19 L123.85,91.63 C123.85,91.63 116.57,84.35 110.95,87 C105.33,89.65 101.69,95.27 101.69,95.27 L116.24,105.19 Z" id="Shape" fill="#8F071F"></path>
                    <path d="M116.57,109.49 L146.33,96.92 C146.33,96.92 157.9,96.59 154.6,112.13 L120.21,135.61 L116.57,109.49 Z" id="Shape" fill="#8F071F"></path>
                    <polygon id="Shape" fill="#E8DFDF" points="114.8 305.49 148.27 284.51 126.79 281.02 107.31 288.01"></polygon>
                    <path d="M66.35,291.51 C66.35,291.51 70.85,298 72.34,299.5 C73.83,301 83.33,306.49 83.33,306.49 L114.8,305.49 L116.8,293.5 L107.31,288.01 L66.35,291.51 Z" id="Shape" fill="#1D2561"></path>
                    <path d="M35.88,274.02 L37.88,282.01 L48.37,291.5 C48.37,291.5 90.33,295.5 95.33,294.5 C100.33,293.5 125.8,284.51 125.8,284.51 L112.81,272.02 L35.88,274.02 Z" id="Shape" fill="#8F071F"></path>
                    <path d="M44.87,260.04 L35.88,274.03 L50.87,281.52 L91.83,282.02 C91.83,282.02 117.81,281.02 123.8,274.03 C129.79,267.04 99.82,244.56 99.82,244.56 L44.87,260.04 Z" id="Shape" fill="#CF0A2C"></path>
                    <path d="M109.31,148.14 L108.31,258.53 C108.31,258.53 79.84,263.03 71.84,262.03 C63.85,261.03 43.37,261.03 40.87,240.55 C38.37,220.07 55.86,145.64 55.86,145.64 L109.31,148.14 Z" id="Shape" fill="#E8DFDF"></path>
                    <path d="M44.33,143.45 C44.33,143.45 39.25,124.84 44.33,110.46 C49.41,96.08 57.44,82.97 58.71,81.7 C59.98,80.43 66.32,79.16 66.32,79.16 L102.27,77.89 C102.27,77.89 109.46,77.47 109.04,80.85 C108.62,84.23 117.92,102.42 119.61,104.96 C121.3,107.5 124.26,114.27 124.26,122.72 C124.26,131.18 123.84,145.98 120.88,148.52 C117.92,151.06 86.2,165.86 52.36,155.71 L44.33,143.45 Z" id="Shape" fill="#CF0A2C"></path>
                    <path d="M80.7,129.07 L46.02,129.49 C46.02,129.49 -1.78,160.79 0.34,201.82 C2.46,242.85 12.61,253.42 24.45,261.46 C24.45,261.46 59.13,274.57 78.59,262.31 C78.59,262.31 60.83,269.5 55.33,248.77 C49.83,228.04 47.29,201.4 51.52,188.71 C55.75,176.02 61.67,161.22 64.21,155.72 C66.74,150.21 80.7,129.07 80.7,129.07 Z" id="Shape" fill="#8F071F"></path>
                    <path d="M80.7,129.07 L81.55,145.14 C81.55,145.14 53.63,178.55 56.59,211.12 C59.55,243.69 57.44,251.73 78.16,253.84 L78.58,262.3 C78.58,262.3 43.47,277.95 43.47,221.27 C43.48,164.59 80.7,129.07 80.7,129.07 Z" id="Shape" fill="#CF0A2C"></path>
                    <path d="M102.7,11.48 L102.28,77.89 L98.47,85.93 C98.47,85.93 73.94,97.77 66.32,79.16 L68.01,11.91 C68.01,11.91 74.36,3.71 84.93,3.45 C101.85,3.02 102.7,11.48 102.7,11.48 Z" id="Shape" fill="#8F071F"></path>
                    <path d="M68.01,11.9 C68.01,11.9 84.75,26.33 102.69,11.48 C102.69,11.48 101.22,2.61 86.04,3.34 C70.87,4.07 68.01,11.9 68.01,11.9 Z" id="Shape" fill="#300909"></path>
                    <path d="M75.21,16.1 C75.21,16.1 86.3,6.62 96.27,15.63 C96.27,15.63 87.16,21.14 75.21,16.1 Z" id="Shape" fill="#E8DFDF"></path>
                    <path d="M262.92,194.2 L215.53,243.67 C215.53,243.67 206.68,283.77 241.57,287.41 C241.57,287.41 281.15,265.54 301.45,238.46 L262.92,194.2 Z" id="Shape" fill="#555FA3"></path>
                    <path d="M251.46,188.99 C251.46,188.99 286.87,238.98 306.66,242.11 C306.66,242.11 336.86,217.64 339.47,210.87 C342.07,204.1 341.55,198.89 341.55,198.89 C341.55,198.89 331.14,155.15 325.93,152.02 C320.72,148.9 313.95,148.9 313.95,148.9 C313.95,148.9 290.52,148.38 287.39,149.42 C284.27,150.46 263.96,160.88 263.96,160.88 C263.96,160.88 251.98,179.09 251.46,188.99 Z" id="Shape" fill="#1D2561"></path>
                    <path d="M216.1,242.62 L149.84,255.49 C149.84,255.49 116.71,261.92 120.89,283.8 L122.18,286.37 C122.18,286.37 201.95,299.88 228.33,291.84 L216.1,242.62 Z" id="Shape" fill="#555FA3"></path>
                    <ellipse id="Oval" fill="#9BA3E0" cx="225.59" cy="268.95" rx="25.57" ry="24.72"></ellipse>
                    <path d="M149.84,255.49 L139.08,203.09 L113.7,184.06 L92.97,189.14 L92.97,193.79 L85.78,192.94 L68.02,207.74 L80.29,232.7 L87.06,271.19 L122.19,286.38 C122.17,286.37 112.8,265.6 149.84,255.49 Z" id="Shape" fill="#D9D0D0"></path>
                    <polygon id="Shape" fill="#1D2561" points="80.28 232.69 114.54 213.24 139.92 209.43 139.07 203.09 113.69 184.05 92.97 189.13 92.97 193.78 85.78 192.93 68.01 207.74"></polygon>
                    <polygon id="Shape" fill="#555FA3" points="229.76 90.71 204.01 141.33 210.56 147.44 248.08 130.42 259.28 103.5"></polygon>
                    <polyline id="Shape" fill="#1D2561" points="284.92 52.23 320.52 36.6 322.7 47.51 286.05 79.37 284.92 52.23"></polyline>
                    <path d="M304.38,61.91 C304.38,61.91 329.25,90.27 292.6,138.27 L266.42,123.43 C266.42,123.43 289.55,114.7 279.07,95.07 L281.25,78.05 L304.38,61.91 Z" id="Shape" fill="#555FA3"></path>
                    <polygon id="Shape" fill="#9BA3E0" points="232.72 20.54 284.92 52.23 288.18 74.6 283.98 94.65 259.28 103.5 209.41 84.39 233.65 60.62"></polygon>
                    <polygon id="Shape" fill="#E8DFDF" points="232.72 20.54 211.74 8.42 212.67 55.5 193.57 78.8 209.41 84.39 233.65 60.62"></polygon>
                    <polygon id="Shape" fill="#1D2561" points="211.89 8.52 187.97 0.5 161.41 26.6 162.8 59.22 180.98 73.67 193.57 78.8 212.67 55.5"></polygon>
                    <polygon id="Shape" fill="#FFFFFF" points="212.11 27.48 194.96 18.21 180.52 33.59 180.52 60.62 189.84 71.34 201.03 69.76 212.67 55.5"></polygon>
                    <path d="M203.17,22.63 L196.48,33.54 L197.48,44.32 C197.48,44.32 207.25,50.59 208.01,50.34 C208.76,50.09 212.6,48.9 212.6,48.9 L212.11,27.48 L203.17,22.63 Z" id="Shape" fill="#4356E0"></path>
                    <path d="M197.61,52.09 C196.3,52.09 195.23,51.02 195.23,49.71 L195.23,42.44 C195.23,41.13 196.3,40.06 197.61,40.06 C198.92,40.06 199.99,41.13 199.99,42.44 L199.99,49.71 C199.99,51.02 198.92,52.09 197.61,52.09 Z" id="Shape" fill="#1D2561"></path>
                </g>
                <g id="Group" transform="translate(230.000000, 0.000000)">
                    <path d="M132.36,153.08 L73.74,176.9 L70.99,184.23 L70.07,199.8 L19.7,306.96 C19.7,306.96 29.78,383.9 84.73,370.16 C139.68,356.42 136.02,341.77 136.02,341.77 L168.09,143 L132.36,153.08" id="Shape" fill="#1D2561" fill-rule="nonzero"></path>
                    <polygon id="Shape" fill="#FFE74C" fill-rule="nonzero" points="47.95 245.63 87.7 229.73 87.7 171.28 73.74 176.89 70.99 184.22 70.08 199.79"></polygon>
                    <g transform="translate(47.000000, 171.000000)" id="Shape">
                        <path d="M29.66,41.52 C33.14,33.32 34.15,24.67 32.52,17.17 C31.5,12.51 29.54,8.66 26.81,5.86 L26.75,5.89 L24,13.22 L23.08,28.79 L6.18,63.79 C15.31,61.83 24.57,53.51 29.66,41.52 Z"></path>
                        <path d="M29.47,4.79 C32.16,7.85 34.1,11.86 35.14,16.6 C36.9,24.64 35.83,33.87 32.13,42.57 C26.35,56.19 15.39,65.36 4.76,66.73 L0.95,74.63 L40.7,58.73 L40.7,0.28 L29.47,4.79 Z"></path>
                        <path d="M32.13,42.57 C35.82,33.86 36.89,24.64 35.14,16.6 C34.11,11.86 32.16,7.86 29.47,4.79 L26.8,5.86 C29.53,8.66 31.49,12.51 32.51,17.17 C34.15,24.67 33.13,33.32 29.65,41.52 C24.56,53.5 15.31,61.83 6.17,63.79 L4.75,66.73 C15.39,65.36 26.35,56.19 32.13,42.57 Z" fill="#4356E0" fill-rule="nonzero"></path>
                    </g>
                    <path d="M19.7,306.96 C19.7,306.96 0.76,337.75 0.76,340.83 C0.76,343.91 1.27,350.07 1.27,350.07 L19.76,402.96 L35.16,429.15 L67,470.23 L90.11,453.29 L115.27,456.37 L124,452.26 L121.43,394.24 L129.13,326.46 L93.19,366 L70.08,367.54 L29.52,310.03 L19.7,306.96 Z" id="Shape" fill="#1D2561" fill-rule="nonzero"></path>
                    <polygon id="Shape" fill="#FFE74C" fill-rule="nonzero" points="20.04 305.77 27.73 308.33 70.07 367.53 92.11 367.3 123.73 329.7 121.46 327.7 92.11 360.75 70.75 362.17 31.72 305.77 21.75 301.78"></polygon>
                    <path d="M23.47,318.95 L27.19,330.8 C27.47,331.7 27.53,332.65 27.37,333.58 L20.62,371.81 C20.4,373.03 19.8,374.16 18.91,375.02 C15.84,377.98 10.74,376.77 9.31,372.75 L1.54,350.86 C1.35,350.33 1.24,349.78 1.21,349.22 L0.82,342.28 C0.77,341.31 0.95,340.35 1.36,339.48 C2.91,336.16 7.23,327.16 12.8,317.73 C15.4,313.35 21.95,314.11 23.47,318.95 Z" id="Shape" fill="#FFE74C" fill-rule="nonzero"></path>
                    <path d="M16.68,349.9 C18.22,343.26 17.85,336.61 15.63,331.17 C14.22,327.71 12.16,325.02 9.66,323.27 C8.72,324.96 7.84,326.6 7.02,328.16 C12.62,331.56 15.39,340.14 13.31,349.11 C12.02,354.66 9.12,359.25 5.55,362.09 L7.13,366.54 C7.25,366.44 7.37,366.34 7.48,366.24 C11.86,362.34 15.13,356.54 16.68,349.9 Z" id="Shape"></path>
                    <path d="M27.19,330.8 L23.47,318.95 C21.95,314.1 15.4,313.35 12.81,317.72 C12.07,318.98 11.35,320.23 10.65,321.46 C13.55,323.43 15.92,326.47 17.52,330.38 C19.9,336.21 20.31,343.31 18.67,350.36 C17.03,357.41 13.53,363.6 8.82,367.78 C8.49,368.07 8.16,368.33 7.83,368.6 L9.3,372.76 C10.73,376.78 15.83,377.98 18.9,375.03 C19.8,374.17 20.4,373.04 20.61,371.82 L27.36,333.59 C27.54,332.65 27.48,331.7 27.19,330.8 Z" id="Shape"></path>
                    <path d="M11.29,348.65 C13.16,340.6 10.84,332.95 6.06,329.98 C3.85,334.25 2.21,337.69 1.37,339.48 C0.96,340.36 0.78,341.32 0.83,342.28 L1.22,349.22 C1.25,349.78 1.36,350.33 1.55,350.86 L4.81,360.06 C7.77,357.48 10.17,353.46 11.29,348.65 Z" id="Shape"></path>
                    <path d="M18.68,350.36 C20.32,343.31 19.91,336.22 17.53,330.38 C15.93,326.46 13.57,323.43 10.66,321.46 C10.32,322.07 9.98,322.67 9.65,323.26 C12.15,325.01 14.21,327.7 15.62,331.16 C17.84,336.6 18.22,343.25 16.67,349.89 C15.13,356.53 11.86,362.33 7.46,366.24 C7.34,366.34 7.22,366.44 7.11,366.54 L7.84,368.59 C8.17,368.32 8.5,368.06 8.83,367.77 C13.54,363.6 17.04,357.41 18.68,350.36 Z" id="Shape" fill="#4356E0" fill-rule="nonzero"></path>
                    <polygon id="Shape" fill="#F70C35" fill-rule="nonzero" points="67.05 468.96 67.41 497.91 76.82 525.77 106.85 553.26 121.32 552.54 153.89 529.75 152.44 487.77 123.99 452.25 113.72 455.21 87.67 454.12"></polygon>
                    <polygon id="Shape" fill="#FFE74C" fill-rule="nonzero" points="68.33 472 65.5 467.65 87.64 451.94 116.03 453.26 123.6 449.86 125.3 454.21 117.16 457.8 88.21 455.91"></polygon>
                    <path d="M100.57,469.4 L84.46,485.25 L98.96,515.06 L131.19,523.65 L145.16,520.43 L141.67,499.21 C141.67,499.21 129.05,502.16 129.05,501.36 C129.05,500.56 127.71,483.9 127.71,483.9 L100.57,469.4 Z" id="Shape" fill="#CF0A2C" fill-rule="nonzero"></path>
                    <polygon id="Shape" fill="#CF0A2C" fill-rule="nonzero" points="93.94 541.45 99.49 534.67 91.97 525.27 102.72 512.11 143.27 510.49 148.64 532.79 121.32 552.54 106.85 553.26"></polygon>
                    <path d="M98.96,515.06 C98.96,515.06 130.2,524.08 131.19,523.65 C132.18,523.22 147.45,520.68 147.45,520.68" id="Shape" stroke="#960720" stroke-width="1.7911"></path>
                    <path d="M118.03,520.4 C117.75,521.25 117.18,532.28 117.18,532.28 L121.42,542.75" id="Shape" stroke="#960720" stroke-width="1.7911"></path>
                    <polyline id="Shape" stroke="#960720" stroke-width="1.7911" points="131.18 523.65 131.89 529.74 135.57 535.11"></polyline>
                    <path d="M213.76,490.47 L267.98,562.21 C267.98,562.21 298.84,580.56 313.86,540.52 L289.67,467.95 C289.67,467.95 291.95,447.33 284.55,435.95 C277.15,424.57 250.46,433.75 250.46,433.75 L213.76,490.47" id="Shape" fill="#1D2561" fill-rule="nonzero"></path>
                    <path d="M273.47,571.89 L326.27,654.81 C326.27,654.81 333.36,668.28 347.18,664.02 C361,659.77 358.52,653.39 358.52,653.39 L354.27,646.3 L356.75,639.92 C356.75,639.92 347.54,572.23 345.76,568.34 C343.99,564.44 325.56,544.24 318.47,541.41 C311.38,538.58 273.47,571.89 273.47,571.89 Z" id="Shape" fill="#1D2561" fill-rule="nonzero"></path>
                    <path d="M267.34,532.97 C264.03,538.32 263.25,544.86 265.2,550.84 L267.09,556.65 L265.67,559.13 L273.47,571.89 L277.72,569.41 L278.88,571.39 C281.97,576.67 287.18,580.37 293.19,581.56 L293.4,581.6 C304.21,583.73 314.87,577.31 318.03,566.76 L318.59,564.88 C320.11,559.81 319.7,554.36 317.43,549.58 L314.57,543.54 L318.47,541.41 L315.99,538.57 L311.38,538.57 L308.24,533.41 C304.65,527.53 298.45,523.73 291.58,523.22 L287.14,522.89 C279.17,522.29 271.54,526.18 267.34,532.97 Z" id="Shape" fill="#FFE74C" fill-rule="nonzero"></path>
                    <ellipse id="Oval" stroke="#4356E0" stroke-width="1.98411489" transform="translate(292.771676, 551.998100) rotate(-34.401997) translate(-292.771676, -551.998100) " cx="292.771676" cy="551.9981" rx="12.8400964" ry="17.6001321"></ellipse>
                    <polygon id="Shape" fill="#FFE74C" fill-rule="nonzero" points="315.99 705.49 315.06 712.48 322.86 721.68 359.87 720.88 378.47 715.48 384.07 706.28 384.39 698.04"></polygon>
                    <polygon id="Shape" fill="#1D2561" fill-rule="nonzero" points="341.15 650.2 325.92 657.29 323.79 668.28 320.6 673.24 321.66 688.48 314.93 701.23 315.99 705.49 327.33 712.22 356.04 710.45 384.39 698.04 375.88 684.22 361.71 658.35 359.35 654.82"></polygon>
                    <polygon id="Shape" fill="#FFE74C" fill-rule="nonzero" points="326.27 654.81 341.86 647.72 358.52 653.39 361.71 658.35 341.15 650.2 325.92 657.29"></polygon>
                    <polygon id="Shape" fill="#FFE74C" fill-rule="nonzero" points="344.25 664.58 332 660.13 325.09 693.98 349.82 697.77 368.08 685.3 354.27 659.68"></polygon>
                    <ellipse id="Oval" stroke="#4356E0" stroke-width="1.34331038" transform="translate(344.955988, 680.176290) rotate(-6.540132) translate(-344.955988, -680.176290) " cx="344.955988" cy="680.17629" rx="8.64006679" ry="9.09007027"></ellipse>
                    <path d="M131.96,413.35 L145.9,524.43 C145.9,524.43 164.76,560.09 187.3,553.12 C209.84,546.15 221.32,535.49 221.32,535.49 L208.61,453.92 C208.62,453.93 163.53,364.57 131.96,413.35" id="Shape" fill="#1D2561" fill-rule="nonzero"></path>
                    <path d="M222.96,541.24 L241,569.52 L226.65,626.5 L243.46,656.42 C243.46,656.42 208.21,685.52 195.91,644.53 L185.25,599.44 L169.67,566.24 L189.76,551.89 L222.96,541.24 Z" id="Shape" fill="#1D2561" fill-rule="nonzero"></path>
                    <path d="M154.2,524.74 L174.96,532.03 C176.05,532.41 176.96,533.18 177.53,534.18 L187.31,551.48 L221.33,535.49 L222.97,541.23 L189.36,556.4 L192.49,566.14 C192.85,567.26 192.78,568.47 192.31,569.54 L185.68,584.4 C183.98,588.22 178.53,588.14 176.93,584.28 L160.67,544.93 L147.96,530.17 C147.23,526.55 150.72,523.52 154.2,524.74 Z" id="Shape" fill="#FFE74C" fill-rule="nonzero"></path>
                    <path d="M182.38,571.45 C183.86,566.01 183.4,559.68 181.09,553.63 C177.14,543.31 168.78,536.52 160.96,536.52 C159.4,536.52 157.87,536.79 156.39,537.35 C155.83,537.56 155.3,537.81 154.79,538.1 L158.48,542.39 C161.95,541.12 165.87,541.72 169.55,544.1 C173.18,546.45 176.14,550.27 177.89,554.86 C181.19,563.5 179.21,572.47 173.57,576.14 L175.66,581.2 C178.83,579.24 181.18,575.86 182.38,571.45 Z" id="Shape"></path>
                    <path d="M176.03,555.57 C174.43,551.37 171.74,547.89 168.46,545.77 C166.37,544.42 164.21,543.72 162.15,543.72 C161.37,543.72 160.61,543.82 159.88,544.02 L160.66,544.93 L172.79,574.28 C177.43,570.99 178.93,563.17 176.03,555.57 Z" id="Shape"></path>
                    <path d="M189.35,556.41 L222.96,541.24 L221.32,535.5 L187.3,551.49 L177.52,534.19 C176.95,533.19 176.04,532.42 174.95,532.04 L154.19,524.75 C150.71,523.53 147.22,526.56 147.94,530.18 L153.46,536.59 C154.16,536.17 154.89,535.81 155.67,535.51 C165.58,531.73 177.81,539.54 182.93,552.93 C185.39,559.37 185.87,566.13 184.29,571.98 C182.92,577.02 180.16,580.86 176.41,583.06 L176.92,584.29 C178.52,588.16 183.97,588.23 185.67,584.41 L192.3,569.55 C192.78,568.48 192.84,567.27 192.48,566.15 L189.35,556.41 Z" id="Shape"></path>
                    <path d="M177.88,554.86 C176.13,550.27 173.16,546.45 169.54,544.1 C165.87,541.72 161.94,541.12 158.47,542.39 L159.87,544.02 C160.61,543.82 161.37,543.72 162.14,543.72 C164.2,543.72 166.36,544.41 168.45,545.77 C171.73,547.9 174.41,551.38 176.02,555.57 C178.93,563.17 177.42,570.99 172.78,574.28 L173.55,576.14 C179.2,572.47 181.18,563.5 177.88,554.86 Z" id="Shape" fill="#4356E0" fill-rule="nonzero"></path>
                    <path d="M195.91,644.54 L193.04,647.82 L135.24,680.2 L150.41,683.89 L173.36,684.3 L209.84,675.28 L227.06,665.44 L245.92,663.8 L243.46,656.42 C243.46,656.42 227.87,660.53 227.16,659.93 C222.18,655.78 212.36,648.11 209.26,647.04 C205.51,645.75 197.08,644.89 195.91,644.54 Z" id="Shape" fill="#1D2561" fill-rule="nonzero"></path>
                    <polygon id="Shape" fill="#FFE74C" fill-rule="nonzero" points="193.04 647.81 206.57 648.22 227.88 662.16 244.69 660.11 243.46 656.42 229.11 658.06 209.44 645.36 195.91 644.54"></polygon>
                    <path d="M135.24,680.2 L139.34,692.09 L162.29,695.37 L208.2,683.48 L227.88,673.23 L243.87,670.36 L245.92,663.8 L227.06,665.44 L209.84,675.28 L173.36,684.3 C173.36,684.3 141.39,684.3 135.24,680.2 Z" id="Shape" fill="#FFE74C" fill-rule="nonzero"></path>
                    <polygon id="Shape" fill="#FFE74C" fill-rule="nonzero" points="189.76 649.51 205.34 653.01 174.95 673.35 152.82 675.58 156.17 668.43"></polygon>
                    <path d="M163.32,667.69 C163.44,668 163.7,668.22 164.12,668.39 C166.25,669.2 171.14,668 176.01,665.45 C182.76,661.93 186.71,657.46 186.03,655.66 C185.91,655.35 185.65,655.13 185.23,654.96 C183.97,654.48 181.73,654.71 179.11,655.51 L166.25,662.76 C164.02,664.82 162.94,666.68 163.32,667.69 Z" id="Shape"></path>
                    <path d="M189.76,649.51 L188.21,650.38 C188.89,650.47 189.52,650.61 190.08,650.81 C191.39,651.3 192.27,652.09 192.7,653.18 C194.4,657.47 188,664.83 178.13,669.95 C172.74,672.74 167.39,674.28 163.43,674.28 C162.09,674.28 160.91,674.11 159.94,673.74 C158.63,673.25 157.75,672.46 157.32,671.37 C156.9,670.3 156.98,669.05 157.48,667.68 L156.17,668.42 L152.82,675.57 L174.95,673.34 L205.35,653 L189.76,649.51 Z" id="Shape"></path>
                    <path d="M158.57,670.89 C158.85,671.61 159.47,672.15 160.41,672.49 C163.86,673.78 170.73,672.28 177.51,668.76 C187.4,663.63 192.7,656.82 191.45,653.67 C191.17,652.95 190.55,652.41 189.61,652.07 C188.79,651.76 187.77,651.61 186.6,651.61 C186.4,651.61 186.17,651.63 185.96,651.64 L182.85,653.39 C183.99,653.32 184.96,653.41 185.71,653.7 C186.49,654 187.04,654.51 187.29,655.18 C188.5,658.38 182.7,663.47 176.63,666.64 C172.52,668.78 168.56,669.98 165.79,669.98 C164.95,669.98 164.22,669.87 163.63,669.65 C162.85,669.35 162.3,668.84 162.05,668.17 C161.67,667.16 161.99,665.97 162.78,664.7 L159.54,666.53 C158.5,668.27 158.14,669.8 158.57,670.89 Z" id="Shape"></path>
                    <path d="M162.06,668.17 C162.31,668.84 162.86,669.35 163.64,669.65 C164.23,669.88 164.96,669.98 165.8,669.98 C168.57,669.98 172.53,668.79 176.64,666.64 C182.71,663.47 188.5,658.38 187.3,655.18 C187.05,654.51 186.5,654 185.72,653.7 C184.97,653.41 184,653.32 182.86,653.39 L179.12,655.5 C181.74,654.7 183.98,654.47 185.24,654.95 C185.67,655.11 185.93,655.34 186.04,655.65 C186.72,657.46 182.77,661.92 176.02,665.44 C171.15,667.98 166.26,669.19 164.13,668.38 C163.7,668.22 163.44,667.99 163.33,667.68 C162.95,666.66 164.03,664.8 166.26,662.74 L162.81,664.69 C162,665.96 161.68,667.16 162.06,668.17 Z" id="Shape" fill="#4356E0" fill-rule="nonzero"></path>
                    <path d="M130.81,406.38 C130.81,407.63 132.47,418.85 132.47,418.85 L147.54,452.18 L160.31,469.56 L209.77,491.59 L258.81,434.23 L284.99,437.97 L277.09,401.81 L130.81,406.38 Z" id="Shape" fill="#1D2561" fill-rule="nonzero"></path>
                    <path d="M131.46,383.72 L173.91,411.16 L282.12,384.14 C282.12,384.14 286.52,405.29 285.79,408.57 C285.06,411.85 171.65,441.45 171.65,441.45 L130.2,409.47 C130.2,409.46 128.96,390.49 131.46,383.72" id="Shape" fill="#CF0A2C" fill-rule="nonzero"></path>
                    <polygon id="Shape" fill="#FFE74C" fill-rule="nonzero" points="132.47 418.85 148.47 451.5 161.77 469.61 210.15 488.85 237.59 453.2 256.82 433.96 284.55 435.95 286.75 440.19 258.52 438.49 239.85 457.45 215.8 494.22 210.99 495.35 159.79 473.29 145.64 453.77 133.15 424.52"></polygon>
                    <path d="M207.79,128.58 L119.89,156.45 L118.6,165.45 C118.6,165.45 67.14,198.04 62.43,249.49 C62.43,249.49 64.15,252.49 65.86,255.92 C67.58,259.35 121.6,331.82 131.47,383.7 C131.47,383.7 143.91,402.14 173.92,411.14 L278.97,385 L357.87,265.37 L371.59,167.18 C371.59,167.18 328.39,139.7 294.46,134.14 C260.53,128.58 294.46,134.14 294.46,134.14 L207.79,128.58 Z" id="Shape" fill="#1D2561" fill-rule="nonzero"></path>
                    <polygon id="Shape" fill="#FFE74C" fill-rule="nonzero" points="326.2 250.84 326.2 194.51 365.96 165.24 371.59 167.18 330.06 198.93 331.72 250.29"></polygon>
                    <path d="M74.34,267.98 L136.83,240.7" id="Shape" stroke="#FFE74C" stroke-width="1.7911"></path>
                    <path d="M178.49,240.21 C178.49,240.21 267.76,280.38 272.72,284.85 L293.55,280.39" id="Shape" stroke="#FFE74C" stroke-width="1.7911"></path>
                    <path d="M172.07,204.68 L175.82,196.69" id="Shape" stroke="#FFE74C" stroke-width="1.7911"></path>
                    <g transform="translate(131.000000, 200.000000)" fill="#4356E0" fill-rule="nonzero" id="Shape">
                        <path d="M20.1,15.03 C20.1,15.03 -1.21,43.32 32.67,59.74 C32.67,59.74 -6.23,59.54 1.58,25.16 C1.59,25.15 7.87,17.12 20.1,15.03 Z"></path>
                        <path d="M50.69,28.22 C50.69,28.22 31.83,-1.81 1.78,20.87 C1.78,20.87 24.31,-15.54 52.6,8.98 C52.6,8.98 54.39,16.38 50.69,28.22 Z"></path>
                        <path d="M20.91,47.09 C20.91,47.09 55.83,50.8 55.51,13.16 C55.51,13.16 72.95,46.83 38.2,59.19 C38.2,59.18 28.21,57.11 20.91,47.09 Z"></path>
                    </g>
                    <path d="M369.27,166.9 L330.06,198.93 L331.72,240.35 L296.38,252.5 L290.86,297.23 C290.86,297.23 297.41,410.43 370.31,387.24 L381.43,376.76 L390.27,347.49 L440.52,292.82 L456.53,267.97 C456.53,267.97 444.93,212.19 431.68,198.94 C418.42,185.68 369.27,166.9 369.27,166.9 Z" id="Shape" fill="#1D2561" fill-rule="nonzero"></path>
                    <path d="M381.66,204.37 L376.03,212.82 C367.87,225.06 369.23,241.31 379.31,252.03 L397.03,270.87 C407.25,281.74 423.68,283.98 436.44,276.26 C448.69,268.85 454.43,254.14 450.44,240.39 C446.09,225.41 439.87,207.68 433.34,201.14 C429.9,197.7 425.28,194.97 420.4,192.83 C406.46,186.68 390.11,191.69 381.66,204.37 Z" id="Shape" fill="#FFE74C" fill-rule="nonzero"></path>
                    <polygon id="Shape" fill="#FFE74C" fill-rule="nonzero" points="396.33 270.17 375.35 309.38 342.76 333.12 349.39 335.33 378.11 313.24 400.2 271.83"></polygon>
                    <ellipse id="Oval" stroke="#4356E0" stroke-width="2.68655532" transform="translate(415.189738, 234.330530) rotate(-22.998467) translate(-415.189738, -234.330530) " cx="415.189738" cy="234.33053" rx="17.1297151" ry="24.1795979"></ellipse>
                    <path d="M215.2,316.56 L242.81,327.05 L272.63,304.41 L316.81,290.6 L331.72,303.3 L338.9,329.81 L370.82,386.75 L335.03,418.17 C335.03,418.17 275.39,408.78 248.33,394.42 C221.27,380.06 196.97,367.36 196.97,367.36 C196.97,367.36 184.82,325.39 215.2,316.56 Z" id="Shape" fill="#1D2561" fill-rule="nonzero"></path>
                    <path d="M333.98,340.88 L322.31,367.16 C321.43,369.15 321.05,371.33 321.21,373.51 L323.15,399.63 C323.42,403.23 325.15,406.56 327.94,408.86 C332.94,412.97 340.49,413.46 345.35,409.18 L372.58,385.25 C375.67,382.53 377.03,377.93 376.75,373.82 L375.18,350.82 C374.82,345.52 371.32,340.95 366.29,339.22 L350.35,333.74 C343.87,331.52 336.76,334.62 333.98,340.88 Z" id="Shape" fill="#FFE74C" fill-rule="nonzero"></path>
                    <polygon id="Shape" fill="#FFE74C" fill-rule="nonzero" points="316.81 290.6 331.69 304.4 340.54 335.16 344.73 332.22 334.58 300.63 320.67 288.45"></polygon>
                    <ellipse id="Oval" stroke="#4356E0" stroke-width="2.05583109" transform="translate(349.024608, 372.673036) rotate(-76.914337) translate(-349.024608, -372.673036) " cx="349.024608" cy="372.673036" rx="18.4993799" ry="13.1095605"></ellipse>
                    <polyline id="Shape" stroke="#05131F" stroke-width="1.7911" points="316.81 290.6 290.85 297.23 282.07 306.91 220.97 318.11"></polyline>
                    <path d="M318.56,244.55 C318.56,244.55 340.6,237.2 353.69,235.93" id="Shape" stroke="#1D2561" stroke-width="1.7911"></path>
                    <polyline id="Shape" stroke="#05131F" stroke-width="1.7911" points="122.44 351.66 74.34 267.98 109.53 194.17 118.6 165.46"></polyline>
                    <polyline id="Shape" stroke="#05131F" stroke-width="1.7911" points="321.23 284.96 314.77 255.27 325.1 241.5"></polyline>
                    <polygon id="Shape" fill="#CF0A2C" fill-rule="nonzero" points="217.1 345.92 214.39 288.93 200.27 273.73 176.94 266.14 173.14 270.48 157.94 266.14 149.8 266.68 140.03 282.96 143.83 291.1 135.14 323.67 145.46 355.69 173.14 369.26 196.97 367.36"></polygon>
                    <path d="M143.83,291.1 L140.03,282.96 L149.8,266.68 C149.8,266.68 164.29,264.51 172.28,271.84 C180.27,279.17 183.27,280.16 175.61,290.49 L160.63,280.83 L143.83,291.1 Z" id="Shape" fill="#F70C35" fill-rule="nonzero"></path>
                    <polygon id="Shape" fill="#F70C35" fill-rule="nonzero" points="147.97 357.07 148.64 327.44 154.63 315.79 146.3 304.47 147.64 297.14 143.83 291.1 135.14 323.67"></polygon>
                    <path d="M172.27,271.84 C172.27,271.84 186.92,280.5 175.6,290.49 L182.92,298.15 L202.23,290.83 L213.88,291.83 L200.26,273.75 L176.92,266.15 L172.27,271.84 Z" id="Shape" fill="#F70C35" fill-rule="nonzero"></path>
                    <path d="M158.93,326.07 L157.89,328.6 C155.07,335.45 156.32,343.31 161.14,348.94 L162.38,350.39 C167.56,356.45 175.89,358.8 183.48,356.34 C191.35,353.78 196.79,346.59 197.11,338.32 L197.26,334.4 C197.64,324.51 190.63,315.87 180.88,314.2 L180.53,314.14 C171.42,312.57 162.45,317.53 158.93,326.07 Z" id="Shape" fill="#E8DFDF" fill-rule="nonzero"></path>
                    <polygon id="Shape" fill="#FFE74C" fill-rule="nonzero" points="215.2 316.56 217.1 345.92 196.97 367.36 200.86 369.08 220.97 350.37 220.97 318.11"></polygon>
                    <ellipse id="Oval" stroke="#CF0A2C" stroke-width="1.79103996" transform="translate(177.767340, 335.408352) rotate(-76.914337) translate(-177.767340, -335.408352) " cx="177.76734" cy="335.408352" rx="10.829637" ry="10.2896551"></ellipse>
                    <path d="M173.14,270.48 C173.14,270.48 180.43,282.21 180.43,283.71 C180.43,285.21 175.42,291.23 175.42,291.23" id="Shape" stroke="#960720" stroke-width="1.7911"></path>
                    <path d="M140.5,303.09 L150.69,321.8" id="Shape" stroke="#960720" stroke-width="1.7911"></path>
                    <path d="M138,313.28 L148.86,339" id="Shape" stroke="#960720" stroke-width="1.7911"></path>
                    <path d="M186.73,20.46 C186.73,20.46 201.99,9.38 206.07,8.7 C210.15,8.02 233.27,0.2 233.27,0.2 C233.27,0.2 251.97,4.96 255.03,10.74 C258.09,16.52 263.36,32.44 263.36,32.44 L272.36,67.51 C272.36,67.51 284.6,88.93 285.96,91.31 C287.32,93.69 289.7,95.73 288.68,105.25 C287.66,114.77 284.26,131.09 284.26,131.09 L294.46,134.15 L175.82,196.7 L185.34,179.7 L169.7,167.46 L181.26,138.22 L181.6,54.93 L186.73,20.46" id="Shape" fill="#1D2561" fill-rule="nonzero"></path>
                    <polyline id="Shape" stroke="#05131F" stroke-width="1.7911" points="176.65 144.14 169.7 167.45 183.55 176.96 178.37 192.5 284.26 131.08"></polyline>
                    <path d="M239.76,8.3 L185.88,20.67 C185.88,20.67 175.5,44.22 175.1,47.41 C174.7,50.6 176.7,62.18 177.49,64.17 C178.29,66.17 155.54,115.26 155.94,118.45 C156.34,121.64 159.13,126.83 159.13,126.83 L189.06,153.97 C189.06,153.97 222.19,145.19 263.29,111.27 C263.29,111.27 258.5,84.13 252.12,72.96 L268.08,72.96 C268.08,72.96 278.06,56.2 278.06,53.8 C278.06,51.4 272.87,41.03 271.67,39.03 C270.47,37.03 264.89,31.05 262.49,32.64 C260.1,34.24 250.92,40.62 250.92,40.62 L240.94,29.45 L239.76,8.3 Z" id="Shape" fill="#7A4337" fill-rule="nonzero"></path>
                    <polygon id="Shape" fill="#1D2561" fill-rule="nonzero" points="175.13 141.39 179.02 128.97 188.89 124.58 205.89 130.89 206.2 147.57 189.52 154.39"></polygon>
                    <polyline id="Shape" stroke="#3B1B11" stroke-width="1.7911" stroke-linecap="round" stroke-linejoin="round" points="262.15 51.82 259.43 56.22 251.75 51.32 261.82 42.66 270.24 49.68 269.31 60.45"></polyline>
                    <path d="M198.63,55.37 C198.63,55.37 191.19,78.98 192.25,81.09 C193.3,83.2 196.46,84.46 196.46,84.46" id="Shape" stroke="#3B1B11" stroke-width="1.7911" stroke-linecap="round" stroke-linejoin="round"></path>
                    <path d="M203.84,82.77 C203.84,82.77 210.16,75.61 212.06,75.61 C213.96,75.61 217.12,75.4 217.12,75.4" id="Shape" stroke="#3B1B11" stroke-width="1.7911" stroke-linecap="round" stroke-linejoin="round"></path>
                    <path d="M179.82,103 L180.03,110.8 C180.03,110.8 183.4,112.7 186.35,111.85 C189.3,111 221.54,93.94 221.54,93.94 L227.23,83.61 L179.82,103 Z" id="Shape" fill="#300909" fill-rule="nonzero"></path>
                    <path d="M186.92,100.1 L185.5,100.9 L184.87,111.44 L185.21,112.06 C185.59,112.03 185.97,111.97 186.35,111.86 C189.3,111.02 221.54,93.95 221.54,93.95 L229.39,80.2 L219.25,89.9 L186.92,100.1 Z" id="Shape" fill="#FFFFFF" fill-rule="nonzero"></path>
                    <path d="M179.61,99.21 C179.61,99.21 176.24,98.58 176.24,100.26 C176.24,101.95 176.87,104.47 178.77,104.05 C180.67,103.63 219.23,92.25 219.23,92.25 L229.98,79.61 L218.67,86.76 L179.61,99.21 Z" id="Shape" fill="#AB5643" fill-rule="nonzero"></path>
                    <path d="M177.08,103.21 C177.08,103.84 175.6,113.96 176.66,115.22 C177.71,116.48 185.93,121.33 187.62,121.12 C189.31,120.91 222.81,99.84 223.86,98.36 C224.91,96.88 229.97,79.61 229.97,79.61 L221.54,93.94 L188.67,110.8 L180.03,110.8 L179.82,103 L177.08,103.21 Z" id="Shape" fill="#AB4E3A" fill-rule="nonzero"></path>
                    <polygon id="Shape" fill="#FFFFFF" fill-rule="nonzero" points="212.67 49.6 213.47 63.96 226.24 65.96 239.01 56.78 235.82 47.6 225.04 43.61"></polygon>
                    <path d="M197.1,58.69 L191.48,76.06 C191.48,76.06 185.13,76.73 183.54,74.74 C181.95,72.75 180.75,68.35 180.75,68.35 C180.75,68.35 183.14,57.18 185.94,56.38 C188.72,55.58 197.1,58.69 197.1,58.69 Z" id="Shape" fill="#FFFFFF" fill-rule="nonzero"></path>
                    <path d="M195.84,58.21 C195.08,58.3 194.35,58.57 193.69,59.07 C193.69,59.07 188.53,60.51 187.82,67.22 C187.42,70.96 187.32,74.04 187.72,76.13 C190.78,76.49 192.05,76.3 192.05,76.3 L197.13,58.62 C197.12,58.62 196.85,58.54 195.84,58.21 Z" id="Shape" fill="#1D2561" fill-rule="nonzero"></path>
                    <path d="M235.82,47.6 L232.49,46.37 C230.99,47.12 228.03,49.19 227.5,54.16 C226.97,59.09 226.96,62.85 227.95,64.74 L239.02,56.78 L235.82,47.6 Z" id="Shape" fill="#1D2561" fill-rule="nonzero"></path>
                    <path d="M214.33,50.63 L224.75,45.76 C224.75,45.76 232.09,46.03 232.48,46.37 C232.87,46.71 237.61,52.66 237.61,52.66 L238.56,51.31 L236.26,46.3 C236.26,46.3 226.65,41.43 226.24,41.7 C225.83,41.97 210.54,49.69 210.54,49.69 L214.33,50.63 Z" id="Shape" fill="#1D2561" fill-rule="nonzero"></path>
                    <polygon id="Shape" fill="#1D2561" fill-rule="nonzero" points="197.5 58.77 198.63 55.37 185.64 54.42 180.9 62.95 181.17 65.11 187.94 57.67"></polygon>
                    <polygon id="Shape" fill="#1D2561" fill-rule="nonzero" points="207.7 45.49 222.86 28.43 224.22 27.62 240.73 33.03 243.71 38.04 227.74 35.88 207.43 48.87"></polygon>
                    <path d="M175.95,47.2 L184.28,39.53 L197.14,48.6 L197,50.22 L184.41,48.87 L176.69,55.23 C176.71,55.23 175.61,49.46 175.95,47.2 Z" id="Shape" fill="#1D2561" fill-rule="nonzero"></path>
                    <path d="M201.15,34.33 C201.15,34.33 200.42,48.26 201,49.13 C201.58,50 203.61,52.18 203.61,52.18" id="Shape" stroke="#3B1B11" stroke-width="0.8955" stroke-linecap="round" stroke-linejoin="round"></path>
                    <path d="M205.8,42.89 C205.8,42.89 205.22,48.26 206.09,49.13" id="Shape" stroke="#3B1B11" stroke-width="0.8955" stroke-linecap="round" stroke-linejoin="round"></path>
                    <path d="M196.8,43.47 C196.8,43.47 196.95,48.98 197.96,49.85 C198.97,50.72 201.73,52.75 201.73,52.75" id="Shape" stroke="#3B1B11" stroke-width="0.8955" stroke-linecap="round" stroke-linejoin="round"></path>
                </g>
                <g id="Group" transform="translate(540.000000, 97.000000)">
                    <path d="M225.26,370.15 C225.26,370.15 227.48,383.93 239.04,381.71 C250.6,379.49 255.94,366.15 255.94,366.15 L263.07,309.6 L256.11,295.43 L219.23,318.31 L225.26,370.15 Z" id="Shape" fill="#E8DFDF" fill-rule="nonzero"></path>
                    <path d="M224.69,370.64 C224.69,370.64 230.02,359.28 241.49,359.59 C252.96,359.9 255.36,366.64 255.36,366.64 L262.88,399.9 L257.61,423.77 L221.64,436.17 C221.64,436.17 213.27,430.59 210.17,423.46 C210.17,423.46 213.27,405.48 214.2,404.24 L218.23,403.62 L215.75,384.09 L224.69,370.64 Z" id="Shape" fill="#E8DFDF" fill-rule="nonzero"></path>
                    <path d="M241.18,367.96 C241.18,367.96 225.37,382.53 230.95,399.28 C230.95,399.28 219.48,408.58 219.48,409.2 C219.48,409.82 219.48,416.64 219.48,416.64 L243.04,409.2 L249.24,395.56" id="Shape" stroke="#A19A9A" stroke-width="1.6721" stroke-linecap="round"></path>
                    <path d="M224.75,403.93 L214.21,404.24" id="Shape" stroke="#A19A9A" stroke-width="1.6721" stroke-linecap="round"></path>
                    <polyline id="Shape" stroke="#A19A9A" stroke-width="1.6721" stroke-linecap="round" points="220.1 427.5 216.07 416.95 218.86 414.16"></polyline>
                    <path d="M230.64,426.26 L223.51,415.09" id="Shape" stroke="#A19A9A" stroke-width="1.6721" stroke-linecap="round"></path>
                    <path d="M242.42,424.39 L231.88,412.92" id="Shape" stroke="#A19A9A" stroke-width="1.6721" stroke-linecap="round"></path>
                    <path d="M209.79,201.47 L234.24,215.79 L243.39,233.73 L239,250.58 L256.21,295.62 L226.92,324.18 L219.23,318.32 L207.15,299.64 C207.15,299.64 207.15,244.35 206.05,243.98 C204.95,243.61 197.63,212.85 197.63,212.85 L209.79,201.47" id="Shape" fill="#E8DFDF" fill-rule="nonzero"></path>
                    <polygon id="Shape" fill="#CF0A2C" fill-rule="nonzero" points="217.38 206.18 223.91 233.39 240.68 244.06 243.39 233.73 234.24 215.79"></polygon>
                    <polygon id="Shape" fill="#FFE74C" fill-rule="nonzero" points="256.21 295.62 226.92 324.18 219.23 318.32 220.24 327.13 229.51 334.79 259.48 302.51"></polygon>
                    <polygon id="Shape" fill="#FFAF36" fill-rule="nonzero" points="226.92 324.18 229.51 334.79 220.24 327.13 219.23 318.32"></polygon>
                    <path d="M112.29,284.28 C112.29,284.28 176.9,270.04 213.8,286.95 L197.74,324.8 L186.48,346.18 L166.63,352.3 L132.86,344.25 L99.21,296.88 L112.29,284.28 Z" id="Shape" fill="#A19A9A" fill-rule="nonzero"></path>
                    <polygon id="Shape" fill="#BA684E" fill-rule="nonzero" points="114.45 151.31 118.87 167.82 168.17 188.28 168.87 179.91 125.84 143.17"></polygon>
                    <path d="M118.87,167.82 L121.38,180.1 L58.07,205.48 L79.44,287.76 L94.67,274.14 L112.3,284.29 C112.3,284.29 126.56,280.98 146.01,279.52 C156.96,278.7 169.56,278.46 182.18,279.73 C193.05,280.83 203.94,283.04 213.8,286.96 L221.81,259.71 L209.79,201.48 L175.06,181.98 L167.58,184.38 L168.16,188.29 L118.87,167.82 Z" id="Shape" fill="#E8DFDF" fill-rule="nonzero"></path>
                    <path d="M79.43,287.76 L92.93,273.23 L112.28,284.29 L139.71,279.6 L139.22,293.81 L120.85,298.71 L121.58,306.55 L136.28,301.9 L137.5,311.94 L125.74,316.1 L132.84,344.27 L100.75,338.39 C100.75,338.39 94.38,321.49 95.36,307.77 C95.39,307.76 83.08,300.82 79.43,287.76 Z" id="Shape" fill="#CF0A2C" fill-rule="nonzero"></path>
                    <path d="M213.8,286.95 C213.8,286.95 205.34,282.37 188.05,280.17 L186.79,292.75 L198.74,297.47 L196.85,305.02 L188.05,300.93 L185.53,310.05 L195.9,312.57 C195.9,312.57 186.15,338.35 186.47,346.21 L195.27,344.32 L196.84,333 L213.8,286.95 Z" id="Shape" fill="#CF0A2C" fill-rule="nonzero"></path>
                    <g transform="translate(140.000000, 206.000000)" fill="#4356E0" fill-rule="nonzero" id="Shape">
                        <path d="M18.27,13.83 C18.27,13.83 -1.56,40.17 29.98,55.45 C29.98,55.45 -6.23,55.26 1.04,23.26 C1.04,23.26 6.89,15.78 18.27,13.83 Z"></path>
                        <path d="M46.75,26.11 C46.75,26.11 29.19,-1.85 1.22,19.27 C1.22,19.27 22.19,-14.63 48.53,8.2 C48.52,8.2 50.2,15.09 46.75,26.11 Z"></path>
                        <path d="M19.03,43.68 C19.03,43.68 51.54,47.14 51.24,12.09 C51.24,12.09 67.47,43.43 35.12,54.94 C35.12,54.94 25.83,53.01 19.03,43.68 Z"></path>
                    </g>
                    <path d="M145.25,428.22 L148.75,475.74 C148.75,475.74 167.21,506.41 182.55,502.72 C197.89,499.03 199.38,480.56 199.38,480.56 L205.92,427.62 C205.92,427.62 198.45,401.89 179.71,403.88 C160.96,405.87 145.25,428.22 145.25,428.22" id="Shape" fill="#CF0A2C" fill-rule="nonzero"></path>
                    <polyline id="Shape" fill="#FFE74C" fill-rule="nonzero" points="148.82 472.83 147.22 484.66 191.26 497.25 198.98 491.81 199.38 480.56 190.46 486.51 148.82 472.83"></polyline>
                    <polygon id="Shape" fill="#4356E0" fill-rule="nonzero" points="147.22 484.66 142.78 504.74 168.12 584.55 161.11 602.89 165.42 615.83 188.61 617.45 205.87 627.69 247.39 630.39 265.73 621.22 262.49 609.36 205.33 579.16 198.98 491.81 191.26 497.25"></polygon>
                    <polygon id="Shape" fill="#1D2561" fill-rule="nonzero" points="161.97 606.87 192.8 609.08 204.18 614.95 253.37 616.05 262.49 609.36 265.73 621.22 247.39 630.39 205.87 627.69 188.61 617.45 165.42 615.83"></polygon>
                    <polygon id="Shape" fill="#DED5D5" fill-rule="nonzero" points="185.73 495.88 191.58 550.02 183.9 563.92 193.05 580.74 204.39 567.58 198.98 491.81 191.26 497.25"></polygon>
                    <path d="M84.57,396.09 L66.13,469.26 C66.13,469.26 66.67,503 83.43,503.57 C100.19,504.14 125.62,481.75 125.62,481.75 L150.74,414.1 C150.74,414.1 137.51,389.17 121.77,385.13 C100.75,379.74 84.57,396.09 84.57,396.09 Z" id="Shape" fill="#CF0A2C" fill-rule="nonzero"></path>
                    <polygon id="Shape" fill="#FFE74C" fill-rule="nonzero" points="66.13 469.26 85.17 492.46 125.62 481.75 122.05 490.08 82.79 507.93 60.78 475.8"></polygon>
                    <path d="M60.78,475.8 L46.5,504.35 L45.91,598.93 L14.98,644.73 L17.36,659.6 L52.46,670.31 L89.34,659.01 L78.63,623.32 L80.41,596.55 C80.41,596.55 105.99,559.67 114.32,530.52 L114.32,504.94 L122.05,490.07 L82.79,507.92 L60.78,475.8 Z" id="Shape" fill="#4356E0" fill-rule="nonzero"></path>
                    <polygon id="Shape" fill="#DED5D5" fill-rule="nonzero" points="71.84 492 55.41 523.35 53.51 565.05 48.96 568.47 50.1 588.18 67.54 584.39 77.01 592.35 86.87 575.67 79.67 563.16 97.48 500.99 82.79 507.93"></polygon>
                    <path d="M73.73,510.46 L62.8,527.89 L60.44,559.79 L63.1,558.31 C63.1,558.31 66.92,547.02 68.71,538.22 C70.5,529.44 73.73,510.46 73.73,510.46 Z" id="Shape" fill="#4356E0" fill-rule="nonzero"></path>
                    <polygon id="Shape" fill="#1D2561" fill-rule="nonzero" points="14.97 644.75 51.5 658.26 85.75 646.84 89.33 659.02 52.45 670.32 17.35 659.62"></polygon>
                    <polygon id="Shape" fill="#FFE74C" fill-rule="nonzero" points="100.77 338.38 166.63 352.32 195.28 344.31 197.41 360.15 169.24 369.36 96.38 353.65"></polygon>
                    <path d="M84.57,396.09 L83.98,385.98 L96.38,353.65 L169.24,369.36 L197.41,360.15 C197.41,360.15 198.78,365.76 202.35,383.6 C205.92,401.45 205.92,427.62 205.92,427.62 L145.24,428.21 L84.57,396.09 Z" id="Shape" fill="#CF0A2C" fill-rule="nonzero"></path>
                    <path d="M4.28,302.26 C4.28,302.26 0.91,332.5 1.02,344.32 C1.13,356.14 5.92,390.17 5.92,390.17 C5.92,390.17 27.82,412.85 42.29,376.87 L51.99,322.09 L30.56,316.64 L4.28,302.26 Z" id="Shape" fill="#E8DFDF" fill-rule="nonzero"></path>
                    <path d="M14.23,308.76 L14.48,344.65 L22.84,356.94 L17.68,370.46 L8.09,365.05 L3.17,368.74 C3.17,368.74 -3.08,345.34 4.28,302.26 L14.23,308.76 Z" id="Shape" fill="#CF0A2C" fill-rule="nonzero"></path>
                    <path d="M5.52,383.42 L11.3,428.05 L28.1,443.96 C30.02,445.78 32.83,446.29 35.27,445.27 L58.83,435.4 L61.19,436.98 L70.9,431.47 C70.9,431.47 73.79,416.51 67.75,406.53 L68,393.4 L50.15,376.07 L41.49,376.6 C41.48,376.59 21.53,364.52 5.52,383.42 Z" id="Shape" fill="#E8DFDF" fill-rule="nonzero"></path>
                    <path d="M53.73,390.34 C53.73,391.32 53.73,400.46 53.73,400.46 C53.73,400.46 59.61,400.13 59.28,410.26" id="Shape" stroke="#A19A9A" stroke-width="1.6721" stroke-linecap="round"></path>
                    <path d="M58.63,404.05 C58.63,404.05 62.55,402.42 66.8,405.36" id="Shape" stroke="#A19A9A" stroke-width="1.6721" stroke-linecap="round"></path>
                    <path d="M42.95,424.63 C42.95,424.63 47.2,435.41 50.14,435.08 C53.08,434.75 55.04,431.81 55.04,431.81 L58.82,435.4" id="Shape" stroke="#A19A9A" stroke-width="1.6721" stroke-linecap="round"></path>
                    <path d="M52.65,313.79 L100,266.11 C100,266.11 139.29,199.62 78.85,197.94 L49.3,209.36 C49.3,209.36 38.89,237.23 39.9,244.28 L7.33,288.94 L40.91,314.12 L52.65,313.79 Z" id="Shape" fill="#E8DFDF" fill-rule="nonzero"></path>
                    <path d="M7.32,288.95 L40.9,314.13 L52.65,313.79 C52.65,313.79 52.53,318.61 51.99,322.09 L39.12,326.92 L4.27,302.26 C4.28,302.26 5,291.18 7.32,288.95 Z" id="Shape" fill="#FFE74C" fill-rule="nonzero"></path>
                    <path d="M15.61,295.48 L58.28,240.9 L66.74,238.21 L74.81,223.6 L66.74,202.46 L49.3,209.36 C49.3,209.36 38.81,231.14 39.9,244.28 L7.33,288.94 L15.61,295.48 Z" id="Shape" fill="#CF0A2C" fill-rule="nonzero"></path>
                    <polygon id="Shape" fill="#FFAF36" fill-rule="nonzero" points="40.9 314.13 39.13 326.92 51.99 322.1 52.65 313.79"></polygon>
                    <polygon id="Shape" fill="#BA684E" fill-rule="nonzero" points="189.19 114.79 198.12 112.4 204.14 116.7 201 145.31 193.68 152.28"></polygon>
                    <path d="M113.79,118.79 L101.05,118.33 L91.12,132.4 L107.52,156.12 L121.47,150.89 L123.21,159.96 L171.35,186.82 L197.86,173.56 L195.07,149.49 L193.58,113.1 L193.67,73.1 L178.32,52.17 C169.96,57.67 159.53,58.96 150.08,55.67 L142.04,52.87 L116.23,75.54 L113.79,118.79 Z" id="Shape" fill="#D4907B" fill-rule="nonzero"></path>
                    <path d="M108.57,118.5 L92.01,69.28 L134.6,32.37 L144.06,5.87 L179.04,1.03 C184.44,0.28 189.52,3.74 190.82,9.03 L197.25,35.34 C198.35,39.84 197.82,44.58 195.75,48.72 L192.33,55.56 L198.96,73.54 L193.58,112.92 L193.67,73.09 L178.32,52.16 L177.27,52.85 C169.58,57.91 159.96,59.1 151.26,56.07 L142.04,52.86 L122.27,71.54 C119.12,74.52 117.18,78.55 116.82,82.86 L113.79,118.79 L108.57,118.5 Z" id="Shape" fill="#151B47" fill-rule="nonzero"></path>
                    <path d="M178.33,52.17 L183.48,46.42 C187.35,42.11 188.71,36.1 187.09,30.53 L182.83,15.93 C181.77,12.32 178.29,9.97 174.54,10.35 L148.21,13.04 L142.52,38.81 L113.98,64.28 C106.76,70.73 103.64,80.61 105.86,90.03 L109.38,104.97 L113.53,79.92 L116.25,87.36 L116.73,83.27 C117.32,78.26 119.68,73.62 123.37,70.19 L142.05,52.86 L151.36,56.67 C158.11,58.82 165.41,58.49 171.94,55.72 L178.33,52.17 Z" id="Shape" fill="#222C73" fill-rule="nonzero"></path>
                    <path d="M142.05,52.86 C142.05,52.86 163.05,54.86 168.5,42.58 C168.5,42.58 167.96,50.26 166.18,52.55 C166.18,52.55 177.72,47.71 182.29,35.28 L182.03,49.76 C182.03,49.77 165.68,66.21 142.05,52.86 Z" id="Shape" fill="#151B47" fill-rule="nonzero"></path>
                    <path d="M131.34,136.49 L158.82,147.69 C158.82,147.69 171.94,154.26 182.44,139.64 L183.06,156.74 L177.19,162.32 C175.46,163.97 173.09,164.77 170.71,164.51 C166.76,164.08 160.57,162.92 155.67,159.82 C147.84,154.88 130.31,138.13 130.31,138.13 L131.34,136.49 Z" id="Shape" fill="#300909" fill-rule="nonzero"></path>
                    <path d="M177.91,144.6 C168.51,152.54 158.81,147.69 158.81,147.69 L131.33,136.49 L130.3,138.14 C130.3,138.14 147.83,154.88 155.66,159.83 C160.56,162.93 166.76,164.08 170.7,164.52 C173.08,164.78 175.45,163.98 177.18,162.33 L177.77,161.77 L177.91,144.6 Z" id="Shape" fill="#E6DADA" fill-rule="nonzero"></path>
                    <polyline id="Shape" stroke="#8A4028" stroke-width="1.6721" stroke-linecap="round" stroke-linejoin="round" points="109.93 134.63 107.39 138.73 100.22 134.16 109.62 126.08 117.48 132.63 116.61 142.68"></polyline>
                    <path d="M116.24,87.37 L128.89,76.83 L162.26,87.02 L186.85,75.43 L193.68,82.26 L193.53,115.83 L172.4,136.18 C170.87,137.66 168.71,138.29 166.62,137.86 L156.64,135.84 L123.62,118.98 L113.8,118.79 L116.24,87.37 Z" id="Shape" fill="#CF0A2C" fill-rule="nonzero"></path>
                    <path d="M166.73,117.5 L173.67,131.16" id="Shape" stroke="#750619" stroke-width="0.836"></path>
                    <path d="M128.49,102.48 C127.94,98.88 129.45,95.26 132.43,93.17 C135.1,91.3 138.77,89.73 143.12,90.54 C152.27,92.25 154.28,118.45 144.05,119.22 C133.82,120 130.87,116.58 130.1,112.4 C129.67,110.08 129,105.82 128.49,102.48 Z" id="Shape" fill="#F5F5F5" fill-rule="nonzero"></path>
                    <path d="M139.78,115.29 C136.17,115.29 133.22,112.34 133.22,108.73 L133.22,103.43 C133.22,99.82 136.17,96.87 139.78,96.87 C143.39,96.87 146.34,99.82 146.34,103.43 L146.34,108.73 C146.34,112.34 143.39,115.29 139.78,115.29 Z" id="Shape" fill="#151B47" fill-rule="nonzero"></path>
                    <g transform="translate(166.000000, 89.000000)" fill-rule="nonzero" id="Shape">
                        <path d="M15.29,1.58 C11.85,0.16 8.55,1.19 6.04,2.65 C4.24,3.7 2.83,5.46 2.01,7.54 C2.99,6.96 4.12,6.63 5.32,6.63 C8.93,6.63 11.88,9.58 11.88,13.19 L11.88,19.25 C11.88,22.86 8.93,25.81 5.32,25.81 C3.78,25.81 2.36,25.27 1.24,24.37 C2.15,27.23 4.8,29.46 11.18,29.97 C19.74,30.67 22.53,4.56 15.29,1.58 Z" fill="#F5F5F5"></path>
                        <path d="M11.88,19.25 L11.88,13.19 C11.88,9.58 8.93,6.63 5.32,6.63 C4.11,6.63 2.98,6.97 2.01,7.54 C1.55,8.7 1.27,9.96 1.21,11.26 C1.06,14.63 0.89,18.92 0.85,21.26 C0.83,22.34 0.94,23.39 1.25,24.36 C2.37,25.26 3.79,25.8 5.33,25.8 C8.93,25.81 11.88,22.86 11.88,19.25 Z" fill="#151B47"></path>
                    </g>
                    <polygon id="Shape" fill="#151B47" fill-rule="nonzero" points="128.35 96.18 134.05 87.49 146.9 88.85 150.53 98.29 149.71 98.89 144.18 92.82 134.37 93.51 128.25 99.7"></polygon>
                    <polygon id="Shape" fill="#151B47" fill-rule="nonzero" points="167.72 94.55 172.24 87.38 182.56 86.67 185.45 96.81 184.87 97.13 180.19 91.22 172.66 92.35 167.35 98.35"></polygon>
                </g>
            </g>
        </g>
    </g>
</svg>