<?xml version="1.0" encoding="UTF-8"?>
<svg width="1197px" height="167px" viewBox="0 0 1197 167" version="1.1" xmlns="http://www.w3.org/2000/svg" xmlns:xlink="http://www.w3.org/1999/xlink">
    <!-- Generator: Sketch 50.2 (55047) - http://www.bohemiancoding.com/sketch -->
    <title>title</title>
    <desc>Created with Sketch.</desc>
    <defs>
        <filter x="-2.2%" y="-4.8%" width="102.9%" height="119.0%" filterUnits="objectBoundingBox" id="filter-1">
            <feOffset dx="-4" dy="4" in="SourceAlpha" result="shadowOffsetOuter1"></feOffset>
            <feColorMatrix values="0 0 0 0 0.11372549   0 0 0 0 0.145098039   0 0 0 0 0.380392157  0 0 0 1 0" type="matrix" in="shadowOffsetOuter1" result="shadowMatrixOuter1"></feColorMatrix>
            <feMerge>
                <feMergeNode in="shadowMatrixOuter1"></feMergeNode>
                <feMergeNode in="SourceGraphic"></feMergeNode>
            </feMerge>
        </filter>
        <filter x="-1.0%" y="-3.8%" width="101.3%" height="115.4%" filterUnits="objectBoundingBox" id="filter-2">
            <feOffset dx="-7" dy="7" in="SourceAlpha" result="shadowOffsetOuter1"></feOffset>
            <feColorMatrix values="0 0 0 0 0.11372549   0 0 0 0 0.145098039   0 0 0 0 0.380392157  0 0 0 1 0" type="matrix" in="shadowOffsetOuter1" result="shadowMatrixOuter1"></feColorMatrix>
            <feMerge>
                <feMergeNode in="shadowMatrixOuter1"></feMergeNode>
                <feMergeNode in="SourceGraphic"></feMergeNode>
            </feMerge>
        </filter>
        <filter x="-6.7%" y="-2.6%" width="109.3%" height="110.3%" filterUnits="objectBoundingBox" id="filter-3">
            <feOffset dx="-4" dy="5" in="SourceAlpha" result="shadowOffsetOuter1"></feOffset>
            <feColorMatrix values="0 0 0 0 0.11372549   0 0 0 0 0.145098039   0 0 0 0 0.380392157  0 0 0 1 0" type="matrix" in="shadowOffsetOuter1" result="shadowMatrixOuter1"></feColorMatrix>
            <feMerge>
                <feMergeNode in="shadowMatrixOuter1"></feMergeNode>
                <feMergeNode in="SourceGraphic"></feMergeNode>
            </feMerge>
        </filter>
    </defs>
    <g id="Page-1" stroke="none" stroke-width="1" fill="none" fill-rule="evenodd">
        <g id="coverImage" transform="translate(-389.000000, -155.000000)" fill-rule="nonzero">
            <g id="title" transform="translate(393.000000, 155.000000)">
                <g id="Group">
                    <g filter="url(#filter-1)" transform="translate(461.000000, 0.000000)" fill="#E8DFDF" id="Shape">
                        <path d="M36.63,0.6 L40.35,0.6 L40.35,41.38 C36.81,41.38 33.26,41.38 29.72,41.38 L29.72,23.25 L21.06,32.31 L19.9,32.31 L11.3,23.25 L11.3,41.37 C7.76,41.37 4.21,41.37 0.67,41.37 L0.67,0.6 L4.5,0.6 L20.42,18.26 L36.63,0.6 Z"></path>
                        <path d="M76.07,10.01 C70.03,10.01 67.01,10.01 61.02,10.01 L61.02,15.76 L74.85,15.76 C74.85,18.84 74.85,21.92 74.85,25 L61.02,25 C61.02,27.38 61.02,29.71 61.02,32.15 C67,32.15 70.49,32.15 76.59,32.15 C76.59,35.17 76.59,38.31 76.59,41.39 C67.06,41.39 60.09,41.39 50.68,41.39 C50.68,27.8 50.68,14.2 50.68,0.73 C60.09,0.73 66.54,0.73 76.07,0.73 C76.07,3.73 76.07,6.87 76.07,10.01 Z"></path>
                        <path d="M110.92,10.01 C104.88,10.01 101.86,10.01 95.87,10.01 L95.87,15.76 L109.7,15.76 C109.7,18.84 109.7,21.92 109.7,25 L95.87,25 C95.87,27.38 95.87,29.71 95.87,32.15 C101.85,32.15 105.34,32.15 111.44,32.15 C111.44,35.17 111.44,38.31 111.44,41.39 C101.91,41.39 94.94,41.39 85.53,41.39 C85.53,27.8 85.53,14.2 85.53,0.73 C94.94,0.73 101.39,0.73 110.92,0.73 C110.92,3.73 110.92,6.87 110.92,10.01 Z"></path>
                        <path d="M116.38,10.01 C116.38,6.87 116.38,3.79 116.38,0.72 L146.59,0.72 C146.59,3.8 146.59,6.88 146.59,10.01 L136.66,10.01 L136.66,41.38 C133.23,41.38 129.81,41.38 126.38,41.38 L126.38,10.01 L116.38,10.01 Z"></path>
                        <path d="M164.99,10.01 C164.99,6.87 164.99,3.79 164.99,0.72 L195.2,0.72 C195.2,3.8 195.2,6.88 195.2,10.01 L185.27,10.01 L185.27,41.38 C181.84,41.38 178.42,41.38 174.99,41.38 L174.99,10.01 L164.99,10.01 Z"></path>
                        <path d="M235.51,41.38 C231.97,41.38 228.42,41.38 224.88,41.38 L224.88,25.05 L212.33,25.05 L212.33,41.37 C208.79,41.37 205.19,41.37 201.7,41.37 L201.7,0.71 C205.19,0.71 208.79,0.71 212.33,0.71 L212.33,15.46 L224.88,15.46 L224.88,0.71 C228.42,0.71 231.97,0.71 235.51,0.71 L235.51,41.38 Z"></path>
                        <path d="M271.29,10.01 C265.25,10.01 262.23,10.01 256.24,10.01 L256.24,15.76 L270.07,15.76 C270.07,18.84 270.07,21.92 270.07,25 L256.24,25 C256.24,27.38 256.24,29.71 256.24,32.15 C262.22,32.15 265.71,32.15 271.81,32.15 C271.81,35.17 271.81,38.31 271.81,41.39 C262.28,41.39 255.31,41.39 245.9,41.39 C245.9,27.8 245.9,14.2 245.9,0.73 C255.31,0.73 261.76,0.73 271.29,0.73 C271.29,3.73 271.29,6.87 271.29,10.01 Z"></path>
                    </g>
                    <g id="Group-2" transform="translate(0.000000, 65.000000)" fill="#1D2561">
                        <g id="Group" filter="url(#filter-2)" transform="translate(117.000000, 2.000000)">
                            <path d="M73.1,84.92 L73.1,88.13 L48.41,88.13 L33.6,62.7 L22.12,62.7 L22.12,88.13 C14.71,88.13 7.18,88.13 0.03,88.13 C0.03,59.37 0.03,30.61 0.03,1.73 C12.5,1.73 25.33,1.73 37.92,1.73 C71.86,1.85 78.03,42.71 56.19,57.52 L73.1,84.92 Z M37.92,21.48 C32.74,21.36 27.3,21.48 22.12,21.48 C22.12,28.52 22.12,36.17 22.12,43.08 L37.92,43.08 C49.89,43.08 50.51,21.6 37.92,21.48 Z" id="Shape"></path>
                            <path d="M77.91,21.48 C77.91,14.81 77.91,8.27 77.91,1.73 L142.09,1.73 C142.09,8.27 142.09,14.81 142.09,21.48 L120.98,21.48 L120.98,88.13 C113.7,88.13 106.42,88.13 99.13,88.13 L99.13,21.48 L77.91,21.48 Z" id="Shape"></path>
                            <path d="M227.75,88.13 C220.22,88.13 212.69,88.13 205.16,88.13 L205.16,53.45 L178.5,53.45 L178.5,88.13 C170.97,88.13 163.32,88.13 155.91,88.13 L155.91,1.73 C163.32,1.73 170.97,1.73 178.5,1.73 L178.5,33.08 L205.16,33.08 L205.16,1.73 C212.69,1.73 220.22,1.73 227.75,1.73 L227.75,88.13 Z" id="Shape"></path>
                            <path d="M244.53,45.05 C244.53,-14.69 333.15,-14.69 333.15,45.05 C333.15,104.91 244.53,104.91 244.53,45.05 Z M310.57,45.05 C310.57,13.95 267.25,13.95 267.25,45.05 C267.24,76.4 310.57,76.4 310.57,45.05 Z" id="Shape"></path>
                            <path d="M349.81,88.13 C349.81,59.37 349.81,30.61 349.81,1.73 C362.28,1.73 375.11,1.73 387.83,1.73 C429.18,1.85 429.18,66.04 387.83,66.04 L371.91,66.04 L371.91,88.13 C364.5,88.13 357.1,88.13 349.81,88.13 Z M387.71,21.48 C382.53,21.36 376.97,21.48 371.91,21.48 C371.91,28.52 371.91,39.13 371.91,46.17 L387.71,46.17 C399.8,46.16 400.54,21.6 387.71,21.48 Z" id="Shape"></path>
                            <path d="M479.54,77.27 L445.47,77.27 L440.41,88.13 L418.81,88.13 L418.81,84.92 L457.69,0.62 L467.19,0.62 L506.19,84.92 L506.19,88.13 L484.59,88.13 L479.54,77.27 Z M462.38,35.67 L452.63,58.38 L472.38,58.38 L462.38,35.67 Z" id="Shape"></path>
                            <path d="M554.7,0.74 C572.6,0.74 591.98,10.49 595.31,33.57 C587.78,33.57 581.12,33.57 573.59,33.57 C570.51,24.81 563.96,20.86 554.71,20.86 C541.75,20.86 533.23,30.61 533.23,44.93 C533.23,57.64 541.62,68.75 554.71,68.87 C564.09,68.87 571.62,64.18 573.96,54.92 C581.37,54.92 588.15,54.92 595.68,54.92 C592.47,79.36 573.09,88.99 554.7,88.99 C532.73,89.11 510.51,74.3 510.39,44.93 C510.51,15.55 532.73,0.74 554.7,0.74 Z" id="Shape"></path>
                            <path d="M688.86,62.7 C688.86,56.65 681.7,55.29 673.06,54.8 C654.3,53.44 641.96,47.02 641.71,28.26 C640.97,-9.02 708.11,-9.02 707.62,28.26 C699.84,28.26 694.17,28.26 686.64,28.26 C686.64,16.78 663.43,17.77 662.69,28.01 C662.2,34.55 668.61,35.91 676.39,36.77 C693.55,38.62 710.33,41.21 710.33,62.81 C710.33,99.1 639.98,99.71 640.47,61.7 C647.88,61.7 654.29,61.7 661.82,61.7 C661.83,72.7 688.86,72.82 688.86,62.7 Z" id="Shape"></path>
                            <path d="M789.46,88.13 L787.36,84.18 C761.19,98.13 721.33,84.92 721.33,45.05 C721.33,-14.69 809.95,-14.69 809.95,45.05 C809.95,55.29 807.36,63.81 803.04,70.6 L811.93,85.29 L811.93,88.13 L789.46,88.13 Z M787.23,45.05 C787.23,13.95 744.03,13.95 744.03,45.05 C744.03,76.4 787.23,76.4 787.23,45.05 Z" id="Shape"></path>
                            <path d="M873.51,59 L873.51,1.73 C880.55,1.73 887.95,1.73 894.86,1.73 L894.86,59.37 C894.86,78.38 878.2,89.36 860.42,89.36 C842.77,89.36 826.11,78.37 826.11,59.37 L826.11,1.73 C833.02,1.73 840.3,1.73 847.22,1.73 L847.22,59 C847.22,66.04 854.01,69.49 860.43,69.49 C866.84,69.49 873.51,66.03 873.51,59 Z" id="Shape"></path>
                            <path d="M963.11,77.27 L929.04,77.27 L923.98,88.13 L902.38,88.13 L902.38,84.92 L941.26,0.62 L950.76,0.62 L989.76,84.92 L989.76,88.13 L968.16,88.13 L963.11,77.27 Z M945.96,35.67 L936.21,58.38 L955.96,58.38 L945.96,35.67 Z" id="Shape"></path>
                            <path d="M1033.71,88.13 L1001.13,88.13 L1001.13,1.73 L1033.71,1.73 C1089.99,1.97 1089.99,87.88 1033.71,88.13 Z M1023.22,68.01 L1033.71,68.01 C1061.23,68.01 1061.23,21.85 1033.71,21.85 L1023.22,21.85 L1023.22,68.01 Z" id="Shape"></path>
                        </g>
                        <g id="Group" filter="url(#filter-3)">
                            <path d="M33.05,75.92 C49.06,78.88 63.26,75.28 74.93,63.7 C86.59,52.13 90.36,37.98 87.67,21.92 C87.8,21.87 87.92,21.81 88.05,21.76 C89.01,23.29 90.09,24.75 90.92,26.35 C94.55,33.29 96.59,40.68 96.57,48.53 C96.53,61.31 92.1,72.4 83.32,81.71 C77.97,87.38 71.53,91.43 64.14,93.84 C62.65,94.33 60.81,94.35 59.27,93.99 C48.63,91.54 39.98,85.96 33.49,77.12 C33.33,76.9 33.19,76.66 33.07,76.41 C33.01,76.33 33.05,76.21 33.05,75.92 Z" id="Shape"></path>
                            <path d="M5.19,27.39 C6.16,25.65 7.02,23.83 8.12,22.17 C16.88,8.93 29.15,1.46 45.01,0.32 C58.15,-0.62 69.72,3.46 79.72,12.02 C81.56,13.6 82.18,15.76 82.75,17.93 C84.76,25.54 84.77,33.18 82.71,40.78 C82.06,43.19 81.02,45.49 79.91,47.9 C74.17,32.53 63.91,22.01 48.02,17.71 C32.18,13.43 18.06,17.35 5.52,27.72 C5.42,27.62 5.3,27.51 5.19,27.39 Z" id="Shape"></path>
                            <path d="M51.45,96.26 C48.83,96.26 46.2,96.49 43.61,96.22 C26.32,94.44 13.43,85.87 5.31,70.54 C0.06,60.61 -1.13,49.95 1.14,38.93 C1.66,36.39 3.62,34.8 5.35,33.15 C12.44,26.41 20.86,22.45 30.61,21.39 C31.02,21.35 31.44,21.38 32.28,21.38 C21.47,34.03 17.53,48.2 21.76,64.03 C25.96,79.76 36.31,90.13 51.54,95.76 C51.5,95.94 51.47,96.1 51.45,96.26 Z" id="Shape"></path>
                        </g>
                    </g>
                </g>
            </g>
        </g>
    </g>
</svg>